{"glyphs":{"0":{"ha":840,"x_min":0,"x_max":0,"o":"m 386 -14 b 778 471 581 -14 738 176 b 500 986 822 783 707 986 b 106 501 304 986 147 796 b 386 -14 61 189 174 -14 z m 394 31 b 224 546 231 32 189 315 b 485 938 253 731 333 940 b 657 429 646 938 692 657 b 394 31 629 243 540 28 z "},"1":{"ha":458,"x_min":0,"x_max":0,"o":"m 383 961 b 360 986 385 983 375 988 b 269 963 340 985 301 972 b 169 913 176 931 171 924 b 214 882 168 899 175 892 b 265 793 269 869 269 839 l 175 167 b 85 22 160 56 85 57 b 143 0 85 7 96 0 l 274 0 b 333 22 321 0 333 7 b 269 167 333 54 254 54 z "},"2":{"ha":801,"x_min":0,"x_max":0,"o":"m 728 713 b 499 986 753 871 661 986 b 169 785 350 986 229 889 b 203 765 150 753 182 739 b 446 897 289 865 371 897 b 615 697 565 897 633 821 b 36 63 589 499 264 242 b 17 25 22 53 17 38 b 53 -8 17 10 26 -10 b 194 79 100 -7 146 79 b 554 1 283 79 397 1 b 711 157 650 1 711 83 b 692 186 710 174 707 186 b 532 103 660 186 657 103 b 225 142 374 103 338 146 b 728 713 538 389 699 533 z "},"3":{"ha":853,"x_min":0,"x_max":0,"o":"m 818 929 b 796 974 842 960 824 974 b 728 921 768 974 754 921 b 372 988 613 921 499 988 b 246 917 297 988 269 965 b 236 779 233 889 197 779 b 303 843 260 779 269 808 b 419 885 332 872 378 885 b 689 851 519 885 576 854 b 356 568 583 743 472 650 b 361 513 319 542 318 514 b 657 269 532 501 681 439 b 399 64 638 131 515 64 b 106 221 257 64 165 122 b 60 200 93 247 51 232 b 397 -14 94 88 222 -14 b 768 276 639 -14 749 140 b 461 589 796 475 629 576 b 818 929 601 690 717 808 z "},"4":{"ha":825,"x_min":0,"x_max":0,"o":"m 518 -25 b 585 -6 533 -25 571 -12 b 613 39 607 7 610 22 l 636 207 l 693 207 b 743 246 722 207 733 221 b 744 321 764 296 767 321 b 649 301 724 321 704 301 l 740 947 b 714 986 743 971 736 986 b 683 978 706 986 689 982 b 307 564 640 936 419 692 b 50 244 140 376 54 275 b 96 203 44 203 67 203 l 528 206 l 500 6 b 518 -25 497 -18 506 -25 z m 203 301 b 181 336 167 301 164 314 b 638 860 304 485 463 675 l 558 300 z "},"5":{"ha":819,"x_min":0,"x_max":0,"o":"m 375 -14 b 732 282 604 -14 713 139 b 289 657 761 493 599 615 l 383 879 b 726 881 501 871 629 872 b 790 908 760 883 778 890 b 825 990 807 932 818 957 b 813 1024 831 1013 826 1024 b 703 972 783 1024 774 978 b 397 972 601 965 500 965 b 368 951 385 974 375 964 l 214 607 b 226 578 207 592 211 579 b 617 278 500 549 643 468 b 360 67 601 168 515 67 b 76 221 233 67 136 122 b 31 199 63 247 21 231 b 375 -14 65 88 192 -14 z "},"6":{"ha":831,"x_min":0,"x_max":0,"o":"m 403 -14 b 761 339 603 -14 733 144 b 507 678 788 526 681 678 b 239 528 408 678 294 615 b 547 914 269 749 383 914 b 714 868 613 914 657 904 b 749 901 738 853 764 875 b 553 986 719 947 654 986 b 96 432 340 986 144 764 b 403 -14 58 165 178 -14 z m 406 47 b 224 379 246 53 194 218 b 465 589 249 507 343 594 b 644 269 613 585 675 429 b 406 47 618 140 535 42 z "},"7":{"ha":750,"x_min":0,"x_max":0,"o":"m 779 978 b 676 919 736 978 728 919 b 314 986 538 919 440 986 b 140 801 215 986 140 918 b 157 771 140 789 143 771 b 319 890 193 772 182 890 b 640 851 442 890 532 839 b 122 60 431 571 151 264 b 138 14 121 43 119 26 b 204 -12 157 3 178 -8 b 238 3 217 -14 236 -11 b 792 935 283 328 564 683 b 779 978 815 961 800 978 z "},"8":{"ha":800,"x_min":0,"x_max":0,"o":"m 764 783 b 521 986 779 899 686 986 b 192 756 329 986 208 881 b 311 524 176 651 236 581 b 65 242 157 449 79 332 b 354 -12 44 92 158 -12 b 708 247 567 -12 690 122 b 521 521 725 365 681 421 b 764 783 675 600 749 678 z m 667 771 b 489 542 657 701 607 626 b 486 543 488 542 488 543 b 300 788 388 607 286 682 b 500 939 315 886 407 939 b 667 771 613 939 682 876 z m 593 211 b 383 33 579 111 488 33 b 172 256 228 33 153 133 b 339 503 185 356 250 435 l 401 461 b 593 211 567 358 604 290 z "},"9":{"ha":838,"x_min":0,"x_max":0,"o":"m 358 -14 b 783 540 601 -14 735 208 b 507 986 821 808 715 986 b 117 618 317 986 146 825 b 372 296 92 443 199 296 b 642 444 471 296 585 357 b 332 58 610 225 496 58 b 167 104 267 58 222 68 b 132 72 142 119 117 97 b 358 -14 160 25 225 -14 z m 429 382 b 239 682 283 382 215 525 b 471 926 257 817 340 926 b 663 614 628 926 685 771 b 429 382 643 479 553 382 z "},"A":{"ha":932,"x_min":0,"x_max":0,"o":"m 115 0 b 163 26 142 0 158 6 b 147 158 168 63 88 43 l 201 258 b 449 301 222 301 222 301 b 669 264 660 301 660 301 l 697 157 b 636 21 724 49 643 61 b 686 0 633 4 656 0 l 818 0 b 885 25 861 0 881 4 b 801 156 890 61 831 43 l 600 953 b 575 972 596 964 588 972 l 463 972 b 424 949 432 972 425 961 b 458 849 417 907 496 919 l 93 158 b -40 21 26 33 -33 64 b 8 0 -43 6 -22 0 z m 457 347 b 261 374 247 347 247 347 l 518 864 l 640 383 b 457 347 649 347 649 347 z "},"Á":{"ha":932,"x_min":0,"x_max":0,"o":"m 436 1065 b 658 1176 492 1044 640 1126 b 629 1249 671 1211 654 1239 b 514 1182 593 1261 564 1228 b 429 1088 465 1131 435 1099 b 436 1065 426 1082 422 1069 z m 115 0 b 163 26 142 0 158 6 b 147 158 168 63 88 43 l 201 258 b 449 301 222 301 222 301 b 669 264 660 301 660 301 l 697 157 b 636 21 724 49 643 61 b 686 0 633 4 656 0 l 818 0 b 885 25 861 0 881 4 b 801 156 890 61 831 43 l 600 953 b 575 972 596 964 588 972 l 463 972 b 424 949 432 972 425 961 b 458 849 417 907 496 919 l 93 158 b -40 21 26 33 -33 64 b 8 0 -43 6 -22 0 z m 457 347 b 261 374 247 347 247 347 l 518 864 l 640 383 b 457 347 649 347 649 347 z "},"Ă":{"ha":932,"x_min":0,"x_max":0,"o":"m 507 1053 b 686 1196 603 1053 671 1124 b 674 1224 690 1213 685 1224 b 657 1208 668 1224 665 1219 b 518 1135 621 1164 578 1135 b 403 1208 458 1135 424 1165 b 386 1224 399 1219 393 1224 b 368 1196 376 1224 368 1213 b 507 1053 363 1126 399 1053 z m 115 0 b 163 26 142 0 158 6 b 147 158 168 63 88 43 l 201 258 b 449 301 222 301 222 301 b 669 264 660 301 660 301 l 697 157 b 636 21 724 49 643 61 b 686 0 633 4 656 0 l 818 0 b 885 25 861 0 881 4 b 801 156 890 61 831 43 l 600 953 b 575 972 596 964 588 972 l 463 972 b 424 949 432 972 425 961 b 458 849 417 907 496 919 l 93 158 b -40 21 26 33 -33 64 b 8 0 -43 6 -22 0 z m 457 347 b 261 374 247 347 247 347 l 518 864 l 640 383 b 457 347 649 347 649 347 z "},"Â":{"ha":932,"x_min":0,"x_max":0,"o":"m 360 1046 b 531 1110 392 1043 490 1082 b 686 1046 564 1082 650 1043 b 700 1064 700 1049 703 1057 b 640 1143 700 1078 669 1108 b 544 1219 579 1213 576 1219 b 433 1143 515 1219 504 1206 b 347 1064 394 1108 354 1078 b 360 1046 346 1057 344 1049 z m 115 0 b 163 26 142 0 158 6 b 147 158 168 63 88 43 l 201 258 b 449 301 222 301 222 301 b 669 264 660 301 660 301 l 697 157 b 636 21 724 49 643 61 b 686 0 633 4 656 0 l 818 0 b 885 25 861 0 881 4 b 801 156 890 61 831 43 l 600 953 b 575 972 596 964 588 972 l 463 972 b 424 949 432 972 425 961 b 458 849 417 907 496 919 l 93 158 b -40 21 26 33 -33 64 b 8 0 -43 6 -22 0 z m 457 347 b 261 374 247 347 247 347 l 518 864 l 640 383 b 457 347 649 347 649 347 z "},"Ä":{"ha":932,"x_min":0,"x_max":0,"o":"m 388 1085 b 467 1156 428 1085 467 1114 b 408 1211 467 1188 442 1211 b 335 1133 367 1211 335 1172 b 388 1085 335 1104 358 1085 z m 575 1085 b 656 1156 615 1085 656 1114 b 596 1211 656 1188 629 1211 b 522 1133 556 1211 522 1172 b 575 1085 522 1104 546 1085 z m 115 0 b 163 26 142 0 158 6 b 147 158 168 63 88 43 l 201 258 b 449 301 222 301 222 301 b 669 264 660 301 660 301 l 697 157 b 636 21 724 49 643 61 b 686 0 633 4 656 0 l 818 0 b 885 25 861 0 881 4 b 801 156 890 61 831 43 l 600 953 b 575 972 596 964 588 972 l 463 972 b 424 949 432 972 425 961 b 458 849 417 907 496 919 l 93 158 b -40 21 26 33 -33 64 b 8 0 -43 6 -22 0 z m 457 347 b 261 374 247 347 247 347 l 518 864 l 640 383 b 457 347 649 347 649 347 z "},"À":{"ha":932,"x_min":0,"x_max":0,"o":"m 586 1065 b 593 1088 600 1069 596 1082 b 508 1182 589 1099 558 1131 b 393 1249 460 1228 431 1261 b 364 1176 368 1239 351 1211 b 586 1065 383 1126 531 1044 z m 115 0 b 163 26 142 0 158 6 b 147 158 168 63 88 43 l 201 258 b 449 301 222 301 222 301 b 669 264 660 301 660 301 l 697 157 b 636 21 724 49 643 61 b 686 0 633 4 656 0 l 818 0 b 885 25 861 0 881 4 b 801 156 890 61 831 43 l 600 953 b 575 972 596 964 588 972 l 463 972 b 424 949 432 972 425 961 b 458 849 417 907 496 919 l 93 158 b -40 21 26 33 -33 64 b 8 0 -43 6 -22 0 z m 457 347 b 261 374 247 347 247 347 l 518 864 l 640 383 b 457 347 649 347 649 347 z "},"Ā":{"ha":932,"x_min":0,"x_max":0,"o":"m 651 1079 b 683 1108 679 1079 682 1089 b 658 1138 686 1128 688 1138 l 342 1138 b 307 1110 311 1138 310 1128 b 333 1079 304 1089 304 1079 z m 115 0 b 163 26 142 0 158 6 b 147 158 168 63 88 43 l 201 258 b 449 301 222 301 222 301 b 669 264 660 301 660 301 l 697 157 b 636 21 724 49 643 61 b 686 0 633 4 656 0 l 818 0 b 885 25 861 0 881 4 b 801 156 890 61 831 43 l 600 953 b 575 972 596 964 588 972 l 463 972 b 424 949 432 972 425 961 b 458 849 417 907 496 919 l 93 158 b -40 21 26 33 -33 64 b 8 0 -43 6 -22 0 z m 457 347 b 261 374 247 347 247 347 l 518 864 l 640 383 b 457 347 649 347 649 347 z "},"Ą":{"ha":932,"x_min":0,"x_max":0,"o":"m 600 953 b 575 972 596 964 588 972 l 463 972 b 424 949 432 972 425 961 b 458 849 417 907 496 919 l 93 158 b -40 21 26 33 -33 64 b 8 0 -43 6 -22 0 l 115 0 b 163 26 142 0 158 6 b 147 158 168 63 88 43 l 201 258 b 449 301 222 301 222 301 b 669 264 660 301 660 301 l 697 157 b 636 21 724 49 643 61 b 686 0 633 4 656 0 l 731 0 b 626 -144 671 -43 626 -87 b 758 -251 626 -215 689 -251 b 863 -218 788 -251 833 -243 b 846 -196 875 -207 868 -186 b 783 -210 829 -203 803 -210 b 700 -133 729 -210 700 -182 b 769 0 700 -96 719 -49 l 818 0 b 885 25 861 0 881 4 b 801 156 890 61 831 43 z m 457 347 b 261 374 247 347 247 347 l 518 864 l 640 383 b 457 347 649 347 649 347 z "},"Å":{"ha":932,"x_min":0,"x_max":0,"o":"m 511 1050 b 658 1174 583 1050 649 1097 b 551 1293 668 1246 621 1293 b 403 1169 478 1293 413 1244 b 511 1050 393 1097 440 1050 z m 525 1096 b 457 1171 482 1096 457 1126 b 539 1250 461 1218 492 1250 b 604 1176 581 1250 604 1219 b 525 1096 600 1132 571 1096 z m 115 0 b 163 26 142 0 158 6 b 147 158 168 63 88 43 l 201 258 b 449 301 222 301 222 301 b 669 264 660 301 660 301 l 697 157 b 636 21 724 49 643 61 b 686 0 633 4 656 0 l 818 0 b 885 25 861 0 881 4 b 801 156 890 61 831 43 l 600 953 b 575 972 596 964 588 972 l 463 972 b 424 949 432 972 425 961 b 458 849 417 907 496 919 l 93 158 b -40 21 26 33 -33 64 b 8 0 -43 6 -22 0 z m 457 347 b 261 374 247 347 247 347 l 518 864 l 640 383 b 457 347 649 347 649 347 z "},"Ã":{"ha":932,"x_min":0,"x_max":0,"o":"m 613 1063 b 713 1139 665 1063 706 1090 b 683 1172 719 1186 688 1204 b 631 1132 679 1146 665 1132 b 415 1190 582 1132 507 1190 b 314 1113 361 1190 321 1161 b 346 1081 307 1067 340 1047 b 399 1121 347 1106 365 1121 b 613 1063 464 1121 549 1063 z m 115 0 b 163 26 142 0 158 6 b 147 158 168 63 88 43 l 201 258 b 449 301 222 301 222 301 b 669 264 660 301 660 301 l 697 157 b 636 21 724 49 643 61 b 686 0 633 4 656 0 l 818 0 b 885 25 861 0 881 4 b 801 156 890 61 831 43 l 600 953 b 575 972 596 964 588 972 l 463 972 b 424 949 432 972 425 961 b 458 849 417 907 496 919 l 93 158 b -40 21 26 33 -33 64 b 8 0 -43 6 -22 0 z m 457 347 b 261 374 247 347 247 347 l 518 864 l 640 383 b 457 347 649 347 649 347 z "},"Æ":{"ha":1317,"x_min":0,"x_max":0,"o":"m 115 0 b 154 22 146 0 153 11 b 133 51 156 32 150 42 b 136 142 101 72 99 97 l 244 268 b 431 304 269 297 278 304 l 622 304 l 604 176 b 514 22 589 53 513 53 b 565 0 514 8 522 0 l 1086 0 b 1201 43 1176 0 1189 15 b 1242 183 1218 82 1228 119 b 1231 222 1246 203 1247 219 b 1174 167 1214 225 1200 215 b 971 51 1126 83 1100 53 l 854 49 b 690 119 700 47 683 68 l 743 496 b 906 564 753 565 796 564 b 1108 442 1076 563 1064 429 b 1126 514 1126 447 1132 458 l 1117 610 b 1089 657 1114 646 1101 657 b 913 613 1051 657 1076 613 b 769 681 804 613 760 611 l 794 857 b 979 924 800 903 824 924 l 1047 924 b 1246 789 1165 924 1217 878 b 1293 743 1261 753 1268 738 b 1311 783 1311 746 1313 761 b 1299 933 1314 849 1307 896 b 1211 974 1293 967 1289 974 l 664 972 b 626 950 633 972 626 961 b 646 915 624 933 629 925 b 646 804 672 896 693 858 l 79 142 b -35 51 42 97 6 72 b -62 22 -53 42 -62 32 b -29 0 -64 11 -60 0 z m 426 347 b 342 379 333 347 326 363 l 689 785 l 628 347 z "},"B":{"ha":863,"x_min":0,"x_max":0,"o":"m 317 0 b 790 301 579 0 757 72 b 515 576 811 453 696 557 b 726 757 653 594 715 671 b 433 972 746 889 651 972 l 238 972 b 169 950 194 972 172 968 b 232 858 165 915 229 929 b 228 804 232 844 232 832 l 138 168 b 126 114 133 140 132 128 b 39 22 106 44 43 57 b 101 0 36 4 58 0 z m 379 604 b 297 631 331 604 293 604 l 331 861 b 436 924 338 917 368 924 b 622 749 561 924 639 857 b 379 604 610 650 549 604 z m 322 50 b 229 147 232 50 219 79 l 279 494 b 375 551 283 531 290 551 b 681 288 593 551 704 453 b 322 50 656 115 538 50 z "},"":{"ha":863,"x_min":0,"x_max":0,"o":"m 317 0 b 790 301 579 0 757 72 b 515 576 811 453 696 557 b 726 757 653 594 715 671 b 433 972 746 889 651 972 l 238 972 b 169 950 194 972 172 968 b 232 858 165 915 229 929 b 228 804 232 844 232 832 l 138 168 b 126 114 133 140 132 128 b 39 22 106 44 43 57 b 101 0 36 4 58 0 z m 379 604 b 297 631 331 604 293 604 l 331 861 b 436 924 338 917 368 924 b 622 749 561 924 639 857 b 379 604 610 650 549 604 z m 322 50 b 229 147 232 50 219 79 l 279 494 b 375 551 283 531 290 551 b 681 288 593 551 704 453 b 322 50 656 115 538 50 z "},"C":{"ha":943,"x_min":0,"x_max":0,"o":"m 490 -14 b 860 146 694 -14 824 107 b 842 189 894 186 871 217 b 518 53 767 118 672 53 b 188 508 288 53 151 242 b 593 918 217 718 374 918 b 876 738 776 918 828 817 b 925 696 892 710 904 693 b 947 736 942 699 947 714 b 933 910 944 818 938 872 b 893 983 928 968 919 983 b 835 969 874 983 864 969 b 665 986 790 969 757 986 b 81 493 367 986 122 790 b 490 -14 42 215 201 -14 z "},"Ć":{"ha":943,"x_min":0,"x_max":0,"o":"m 521 1065 b 743 1176 576 1044 725 1126 b 714 1249 756 1211 739 1239 b 599 1182 678 1261 649 1228 b 514 1088 550 1131 519 1099 b 521 1065 511 1082 507 1069 z m 490 -14 b 860 146 694 -14 824 107 b 842 189 894 186 871 217 b 518 53 767 118 672 53 b 188 508 288 53 151 242 b 593 918 217 718 374 918 b 876 738 776 918 828 817 b 925 696 892 710 904 693 b 947 736 942 699 947 714 b 933 910 944 818 938 872 b 893 983 928 968 919 983 b 835 969 874 983 864 969 b 665 986 790 969 757 986 b 81 493 367 986 122 790 b 490 -14 42 215 201 -14 z "},"Č":{"ha":943,"x_min":0,"x_max":0,"o":"m 604 1046 b 719 1122 636 1046 639 1051 b 804 1201 758 1157 799 1188 b 792 1218 806 1208 807 1217 b 621 1156 760 1221 661 1183 b 467 1218 588 1183 501 1221 b 451 1201 451 1217 449 1208 b 513 1122 451 1188 483 1156 b 604 1046 567 1058 575 1046 z m 490 -14 b 860 146 694 -14 824 107 b 842 189 894 186 871 217 b 518 53 767 118 672 53 b 188 508 288 53 151 242 b 593 918 217 718 374 918 b 876 738 776 918 828 817 b 925 696 892 710 904 693 b 947 736 942 699 947 714 b 933 910 944 818 938 872 b 893 983 928 968 919 983 b 835 969 874 983 864 969 b 665 986 790 969 757 986 b 81 493 367 986 122 790 b 490 -14 42 215 201 -14 z "},"Ç":{"ha":943,"x_min":0,"x_max":0,"o":"m 933 910 b 893 983 928 968 919 983 b 835 969 874 983 864 969 b 665 986 790 969 757 986 b 81 493 367 986 122 790 b 435 -11 44 233 181 17 l 390 -93 b 407 -117 383 -106 393 -114 b 501 -192 456 -128 501 -147 b 435 -253 501 -225 481 -253 b 354 -229 397 -253 374 -240 b 338 -249 339 -219 325 -235 b 444 -290 353 -268 385 -290 b 569 -183 511 -290 569 -249 b 440 -76 569 -119 511 -89 l 472 -14 l 490 -14 b 860 146 694 -14 824 107 b 842 189 894 186 871 217 b 518 53 767 118 672 53 b 188 508 288 53 151 242 b 593 918 217 718 374 918 b 876 738 776 918 828 817 b 925 696 892 710 904 693 b 947 736 942 699 947 714 b 933 910 944 818 938 872 z "},"Ċ":{"ha":943,"x_min":0,"x_max":0,"o":"m 554 1104 b 660 1189 599 1100 654 1149 b 610 1253 663 1215 642 1249 b 501 1165 563 1261 506 1210 b 554 1104 497 1131 524 1107 z m 490 -14 b 860 146 694 -14 824 107 b 842 189 894 186 871 217 b 518 53 767 118 672 53 b 188 508 288 53 151 242 b 593 918 217 718 374 918 b 876 738 776 918 828 817 b 925 696 892 710 904 693 b 947 736 942 699 947 714 b 933 910 944 818 938 872 b 893 983 928 968 919 983 b 835 969 874 983 864 969 b 665 986 790 969 757 986 b 81 493 367 986 122 790 b 490 -14 42 215 201 -14 z "},"D":{"ha":1026,"x_min":0,"x_max":0,"o":"m 406 0 b 985 501 790 0 949 251 b 500 972 1014 714 904 972 l 238 972 b 169 950 194 972 172 968 b 232 858 165 915 229 929 b 228 804 232 844 232 832 l 138 168 b 126 114 133 140 132 128 b 39 22 106 44 43 57 b 101 0 36 4 58 0 z m 397 50 b 228 132 246 50 219 72 l 331 863 b 439 924 338 914 358 924 b 871 442 767 924 911 714 b 397 50 846 258 747 50 z "},"Ď":{"ha":1026,"x_min":0,"x_max":0,"o":"m 432 1046 b 547 1122 464 1046 467 1051 b 632 1201 586 1157 626 1188 b 619 1218 633 1208 635 1217 b 449 1156 588 1221 489 1183 b 294 1218 415 1183 329 1221 b 279 1201 279 1217 276 1208 b 340 1122 279 1188 311 1156 b 432 1046 394 1058 403 1046 z m 406 0 b 985 501 790 0 949 251 b 500 972 1014 714 904 972 l 238 972 b 169 950 194 972 172 968 b 232 858 165 915 229 929 b 228 804 232 844 232 832 l 138 168 b 126 114 133 140 132 128 b 39 22 106 44 43 57 b 101 0 36 4 58 0 z m 397 50 b 228 132 246 50 219 72 l 331 863 b 439 924 338 914 358 924 b 871 442 767 924 911 714 b 397 50 846 258 747 50 z "},"Đ":{"ha":1026,"x_min":0,"x_max":0,"o":"m 238 972 b 169 950 194 972 172 968 b 232 858 165 915 229 929 b 228 804 232 844 232 832 l 186 508 l 139 508 b 100 482 108 508 103 499 b 131 458 99 467 103 458 l 179 458 l 138 168 b 126 114 133 140 132 128 b 39 22 106 44 43 57 b 101 0 36 4 58 0 l 406 0 b 985 501 790 0 949 251 b 500 972 1014 714 904 972 z m 871 442 b 397 50 846 258 747 50 b 228 132 246 50 219 72 l 274 458 l 414 458 b 451 482 442 458 449 467 b 421 508 454 499 451 508 l 281 508 l 331 863 b 439 924 338 914 358 924 b 871 442 767 924 911 714 z "},"Ð":{"ha":1026,"x_min":0,"x_max":0,"o":"m 238 972 b 169 950 194 972 172 968 b 232 858 165 915 229 929 b 228 804 232 844 232 832 l 186 508 l 139 508 b 100 482 108 508 103 499 b 131 458 99 467 103 458 l 179 458 l 138 168 b 126 114 133 140 132 128 b 39 22 106 44 43 57 b 101 0 36 4 58 0 l 406 0 b 985 501 790 0 949 251 b 500 972 1014 714 904 972 z m 871 442 b 397 50 846 258 747 50 b 228 132 246 50 219 72 l 274 458 l 414 458 b 451 482 442 458 449 467 b 421 508 454 499 451 508 l 281 508 l 331 863 b 439 924 338 914 358 924 b 871 442 767 924 911 714 z "},"E":{"ha":851,"x_min":0,"x_max":0,"o":"m 619 0 b 736 43 710 0 724 15 b 776 183 753 82 763 119 b 765 222 781 203 782 219 b 708 167 749 225 733 215 b 501 51 661 83 633 53 l 389 49 b 225 119 235 47 218 68 l 278 496 b 440 564 288 565 331 564 b 643 442 611 563 599 429 b 660 514 661 447 667 458 l 651 610 b 624 657 647 646 636 657 b 447 613 586 657 610 613 b 304 681 339 613 294 611 l 329 857 b 514 924 335 903 358 924 l 582 924 b 781 789 700 924 751 878 b 826 743 796 753 803 738 b 846 783 846 746 847 761 b 832 933 849 849 840 896 b 746 974 828 967 824 974 l 236 972 b 169 950 194 972 172 972 b 228 804 164 910 247 949 l 138 168 b 39 22 118 24 44 63 b 100 0 36 0 57 0 z "},"":{"ha":851,"x_min":0,"x_max":0,"o":"m 619 0 b 736 43 710 0 724 15 b 776 183 753 82 763 119 b 765 222 781 203 782 219 b 708 167 749 225 733 215 b 501 51 661 83 633 53 l 389 49 b 225 119 235 47 218 68 l 278 496 b 440 564 288 565 331 564 b 643 442 611 563 599 429 b 660 514 661 447 667 458 l 651 610 b 624 657 647 646 636 657 b 447 613 586 657 610 613 b 304 681 339 613 294 611 l 329 857 b 514 924 335 903 358 924 l 582 924 b 781 789 700 924 751 878 b 826 743 796 753 803 738 b 846 783 846 746 847 761 b 832 933 849 849 840 896 b 746 974 828 967 824 974 l 236 972 b 169 950 194 972 172 972 b 228 804 164 910 247 949 l 138 168 b 39 22 118 24 44 63 b 100 0 36 0 57 0 z "},"É":{"ha":851,"x_min":0,"x_max":0,"o":"m 438 1065 b 660 1176 493 1044 642 1126 b 631 1249 672 1211 656 1239 b 515 1182 594 1261 565 1228 b 431 1088 467 1131 436 1099 b 438 1065 428 1082 424 1069 z m 619 0 b 736 43 710 0 724 15 b 776 183 753 82 763 119 b 765 222 781 203 782 219 b 708 167 749 225 733 215 b 501 51 661 83 633 53 l 389 49 b 225 119 235 47 218 68 l 278 496 b 440 564 288 565 331 564 b 643 442 611 563 599 429 b 660 514 661 447 667 458 l 651 610 b 624 657 647 646 636 657 b 447 613 586 657 610 613 b 304 681 339 613 294 611 l 329 857 b 514 924 335 903 358 924 l 582 924 b 781 789 700 924 751 878 b 826 743 796 753 803 738 b 846 783 846 746 847 761 b 832 933 849 849 840 896 b 746 974 828 967 824 974 l 236 972 b 169 950 194 972 172 972 b 228 804 164 910 247 949 l 138 168 b 39 22 118 24 44 63 b 100 0 36 0 57 0 z "},"Ě":{"ha":851,"x_min":0,"x_max":0,"o":"m 514 1046 b 629 1122 546 1046 549 1051 b 714 1201 668 1157 708 1188 b 701 1218 715 1208 717 1217 b 531 1156 669 1221 571 1183 b 376 1218 497 1183 411 1221 b 361 1201 361 1217 358 1208 b 422 1122 361 1188 393 1156 b 514 1046 476 1058 485 1046 z m 619 0 b 736 43 710 0 724 15 b 776 183 753 82 763 119 b 765 222 781 203 782 219 b 708 167 749 225 733 215 b 501 51 661 83 633 53 l 389 49 b 225 119 235 47 218 68 l 278 496 b 440 564 288 565 331 564 b 643 442 611 563 599 429 b 660 514 661 447 667 458 l 651 610 b 624 657 647 646 636 657 b 447 613 586 657 610 613 b 304 681 339 613 294 611 l 329 857 b 514 924 335 903 358 924 l 582 924 b 781 789 700 924 751 878 b 826 743 796 753 803 738 b 846 783 846 746 847 761 b 832 933 849 849 840 896 b 746 974 828 967 824 974 l 236 972 b 169 950 194 972 172 972 b 228 804 164 910 247 949 l 138 168 b 39 22 118 24 44 63 b 100 0 36 0 57 0 z "},"Ê":{"ha":851,"x_min":0,"x_max":0,"o":"m 363 1046 b 533 1110 394 1043 493 1082 b 689 1046 567 1082 653 1043 b 703 1064 703 1049 706 1057 b 643 1143 703 1078 672 1108 b 547 1219 582 1213 579 1219 b 436 1143 518 1219 507 1206 b 350 1064 397 1108 357 1078 b 363 1046 349 1057 347 1049 z m 619 0 b 736 43 710 0 724 15 b 776 183 753 82 763 119 b 765 222 781 203 782 219 b 708 167 749 225 733 215 b 501 51 661 83 633 53 l 389 49 b 225 119 235 47 218 68 l 278 496 b 440 564 288 565 331 564 b 643 442 611 563 599 429 b 660 514 661 447 667 458 l 651 610 b 624 657 647 646 636 657 b 447 613 586 657 610 613 b 304 681 339 613 294 611 l 329 857 b 514 924 335 903 358 924 l 582 924 b 781 789 700 924 751 878 b 826 743 796 753 803 738 b 846 783 846 746 847 761 b 832 933 849 849 840 896 b 746 974 828 967 824 974 l 236 972 b 169 950 194 972 172 972 b 228 804 164 910 247 949 l 138 168 b 39 22 118 24 44 63 b 100 0 36 0 57 0 z "},"Ë":{"ha":851,"x_min":0,"x_max":0,"o":"m 419 1085 b 499 1156 460 1085 499 1114 b 440 1211 499 1188 474 1211 b 367 1133 399 1211 367 1172 b 419 1085 367 1104 390 1085 z m 607 1085 b 688 1156 647 1085 688 1114 b 628 1211 688 1188 661 1211 b 554 1133 588 1211 554 1172 b 607 1085 554 1104 578 1085 z m 619 0 b 736 43 710 0 724 15 b 776 183 753 82 763 119 b 765 222 781 203 782 219 b 708 167 749 225 733 215 b 501 51 661 83 633 53 l 389 49 b 225 119 235 47 218 68 l 278 496 b 440 564 288 565 331 564 b 643 442 611 563 599 429 b 660 514 661 447 667 458 l 651 610 b 624 657 647 646 636 657 b 447 613 586 657 610 613 b 304 681 339 613 294 611 l 329 857 b 514 924 335 903 358 924 l 582 924 b 781 789 700 924 751 878 b 826 743 796 753 803 738 b 846 783 846 746 847 761 b 832 933 849 849 840 896 b 746 974 828 967 824 974 l 236 972 b 169 950 194 972 172 972 b 228 804 164 910 247 949 l 138 168 b 39 22 118 24 44 63 b 100 0 36 0 57 0 z "},"Ė":{"ha":851,"x_min":0,"x_max":0,"o":"m 519 1104 b 625 1189 564 1100 619 1149 b 575 1253 628 1215 607 1249 b 467 1165 528 1261 471 1210 b 519 1104 463 1131 489 1107 z m 619 0 b 736 43 710 0 724 15 b 776 183 753 82 763 119 b 765 222 781 203 782 219 b 708 167 749 225 733 215 b 501 51 661 83 633 53 l 389 49 b 225 119 235 47 218 68 l 278 496 b 440 564 288 565 331 564 b 643 442 611 563 599 429 b 660 514 661 447 667 458 l 651 610 b 624 657 647 646 636 657 b 447 613 586 657 610 613 b 304 681 339 613 294 611 l 329 857 b 514 924 335 903 358 924 l 582 924 b 781 789 700 924 751 878 b 826 743 796 753 803 738 b 846 783 846 746 847 761 b 832 933 849 849 840 896 b 746 974 828 967 824 974 l 236 972 b 169 950 194 972 172 972 b 228 804 164 910 247 949 l 138 168 b 39 22 118 24 44 63 b 100 0 36 0 57 0 z "},"È":{"ha":851,"x_min":0,"x_max":0,"o":"m 608 1065 b 615 1088 622 1069 618 1082 b 531 1182 611 1099 581 1131 b 415 1249 482 1228 453 1261 b 386 1176 390 1239 374 1211 b 608 1065 406 1126 553 1044 z m 619 0 b 736 43 710 0 724 15 b 776 183 753 82 763 119 b 765 222 781 203 782 219 b 708 167 749 225 733 215 b 501 51 661 83 633 53 l 389 49 b 225 119 235 47 218 68 l 278 496 b 440 564 288 565 331 564 b 643 442 611 563 599 429 b 660 514 661 447 667 458 l 651 610 b 624 657 647 646 636 657 b 447 613 586 657 610 613 b 304 681 339 613 294 611 l 329 857 b 514 924 335 903 358 924 l 582 924 b 781 789 700 924 751 878 b 826 743 796 753 803 738 b 846 783 846 746 847 761 b 832 933 849 849 840 896 b 746 974 828 967 824 974 l 236 972 b 169 950 194 972 172 972 b 228 804 164 910 247 949 l 138 168 b 39 22 118 24 44 63 b 100 0 36 0 57 0 z "},"Ē":{"ha":851,"x_min":0,"x_max":0,"o":"m 671 1079 b 703 1108 699 1079 701 1089 b 678 1138 706 1128 707 1138 l 361 1138 b 326 1110 331 1138 329 1128 b 353 1079 324 1089 324 1079 z m 619 0 b 736 43 710 0 724 15 b 776 183 753 82 763 119 b 765 222 781 203 782 219 b 708 167 749 225 733 215 b 501 51 661 83 633 53 l 389 49 b 225 119 235 47 218 68 l 278 496 b 440 564 288 565 331 564 b 643 442 611 563 599 429 b 660 514 661 447 667 458 l 651 610 b 624 657 647 646 636 657 b 447 613 586 657 610 613 b 304 681 339 613 294 611 l 329 857 b 514 924 335 903 358 924 l 582 924 b 781 789 700 924 751 878 b 826 743 796 753 803 738 b 846 783 846 746 847 761 b 832 933 849 849 840 896 b 746 974 828 967 824 974 l 236 972 b 169 950 194 972 172 972 b 228 804 164 910 247 949 l 138 168 b 39 22 118 24 44 63 b 100 0 36 0 57 0 z "},"Ę":{"ha":851,"x_min":0,"x_max":0,"o":"m 832 933 b 746 974 828 967 824 974 l 236 972 b 169 950 194 972 172 972 b 228 804 164 910 247 949 l 138 168 b 39 22 118 24 44 63 b 100 0 36 0 57 0 l 496 0 b 392 -144 436 -43 392 -87 b 524 -251 392 -215 454 -251 b 628 -218 553 -251 599 -243 b 611 -196 640 -207 633 -186 b 549 -210 594 -203 568 -210 b 465 -133 494 -210 465 -182 b 535 0 465 -96 485 -49 l 619 0 b 736 43 710 0 724 15 b 776 183 753 82 763 119 b 765 222 781 203 782 219 b 708 167 749 225 733 215 b 501 51 661 83 633 53 l 389 49 b 225 119 235 47 218 68 l 278 496 b 440 564 288 565 331 564 b 643 442 611 563 599 429 b 660 514 661 447 667 458 l 651 610 b 624 657 647 646 636 657 b 447 613 586 657 610 613 b 304 681 339 613 294 611 l 329 857 b 514 924 335 903 358 924 l 582 924 b 781 789 700 924 751 878 b 826 743 796 753 803 738 b 846 783 846 746 847 761 b 832 933 849 849 840 896 z "},"F":{"ha":822,"x_min":0,"x_max":0,"o":"m 829 783 b 817 933 832 849 825 896 b 729 974 811 967 807 974 l 236 972 b 169 950 194 972 172 972 b 228 804 164 910 247 949 l 140 185 b 39 22 118 32 44 65 b 100 0 36 4 57 0 l 218 0 b 288 22 264 0 285 4 b 233 185 293 65 213 32 l 276 482 b 396 550 286 551 329 550 l 443 550 b 638 428 607 549 594 414 b 654 500 657 433 661 444 l 646 596 b 619 643 643 631 632 643 b 450 599 583 643 606 599 l 401 599 b 301 667 336 599 292 597 l 328 849 b 515 924 336 904 358 924 l 582 924 b 764 789 683 924 735 878 b 811 743 779 753 786 738 b 829 783 829 746 831 761 z "},"G":{"ha":1013,"x_min":0,"x_max":0,"o":"m 492 -14 b 882 169 671 -14 872 88 l 903 324 b 971 461 919 451 964 415 b 932 483 974 479 953 483 l 747 483 b 681 461 703 483 683 479 b 810 325 672 410 825 435 l 789 167 b 526 54 779 100 643 54 b 183 524 278 54 147 260 b 590 918 213 719 371 918 b 872 736 772 918 822 817 b 922 696 888 710 900 692 b 944 736 940 699 944 714 b 929 910 940 818 935 872 b 889 983 924 968 915 983 b 831 969 869 983 860 969 b 665 986 788 969 754 986 b 76 460 364 986 118 758 b 492 -14 39 197 185 -14 z "},"Ğ":{"ha":1013,"x_min":0,"x_max":0,"o":"m 656 1053 b 835 1196 751 1053 819 1124 b 822 1224 839 1213 833 1224 b 806 1208 817 1224 814 1219 b 667 1135 769 1164 726 1135 b 551 1208 607 1135 572 1165 b 535 1224 547 1219 542 1224 b 517 1196 525 1224 517 1213 b 656 1053 511 1126 547 1053 z m 492 -14 b 882 169 671 -14 872 88 l 903 324 b 971 461 919 451 964 415 b 932 483 974 479 953 483 l 747 483 b 681 461 703 483 683 479 b 810 325 672 410 825 435 l 789 167 b 526 54 779 100 643 54 b 183 524 278 54 147 260 b 590 918 213 719 371 918 b 872 736 772 918 822 817 b 922 696 888 710 900 692 b 944 736 940 699 944 714 b 929 910 940 818 935 872 b 889 983 924 968 915 983 b 831 969 869 983 860 969 b 665 986 788 969 754 986 b 76 460 364 986 118 758 b 492 -14 39 197 185 -14 z "},"Ġ":{"ha":1013,"x_min":0,"x_max":0,"o":"m 618 1104 b 724 1189 663 1100 718 1149 b 674 1253 726 1215 706 1249 b 565 1165 626 1261 569 1210 b 618 1104 561 1131 588 1107 z m 492 -14 b 882 169 671 -14 872 88 l 903 324 b 971 461 919 451 964 415 b 932 483 974 479 953 483 l 747 483 b 681 461 703 483 683 479 b 810 325 672 410 825 435 l 789 167 b 526 54 779 100 643 54 b 183 524 278 54 147 260 b 590 918 213 719 371 918 b 872 736 772 918 822 817 b 922 696 888 710 900 692 b 944 736 940 699 944 714 b 929 910 940 818 935 872 b 889 983 924 968 915 983 b 831 969 869 983 860 969 b 665 986 788 969 754 986 b 76 460 364 986 118 758 b 492 -14 39 197 185 -14 z "},"H":{"ha":1089,"x_min":0,"x_max":0,"o":"m 219 0 b 288 22 265 0 286 4 b 228 114 292 57 233 44 b 231 154 228 128 229 140 l 268 425 b 575 493 278 493 278 493 b 843 425 854 493 854 493 l 807 154 b 796 114 806 140 801 128 b 708 22 776 44 714 57 b 771 0 708 4 729 0 l 890 0 b 957 22 935 0 956 4 b 899 114 963 57 903 44 b 901 154 899 128 900 140 l 993 818 b 1004 858 994 832 999 844 b 1092 950 1024 929 1086 915 b 1029 972 1092 968 1071 972 l 910 972 b 843 950 865 972 844 968 b 901 858 838 915 897 928 b 899 818 901 844 900 832 l 871 610 b 583 542 861 542 861 542 b 294 610 285 542 285 542 l 324 818 b 333 858 324 832 328 844 b 421 950 354 929 417 915 b 358 972 422 968 401 972 l 240 972 b 174 950 194 972 174 968 b 232 858 168 915 226 928 b 229 818 232 844 231 832 l 138 154 b 126 114 136 140 132 128 b 39 22 106 44 43 57 b 101 0 38 4 58 0 z "},"Ħ":{"ha":1089,"x_min":0,"x_max":0,"o":"m 993 818 b 1004 858 994 832 999 844 b 1092 950 1024 929 1086 915 b 1029 972 1092 968 1071 972 l 910 972 b 843 950 865 972 844 968 b 901 858 838 915 897 928 b 899 818 901 844 900 832 l 889 746 l 314 746 l 324 818 b 333 858 324 832 328 844 b 421 950 354 929 417 915 b 358 972 422 968 401 972 l 240 972 b 174 950 194 972 174 968 b 232 858 168 915 226 928 b 229 818 232 844 231 832 l 219 746 l 144 746 b 124 722 128 746 124 738 l 124 721 b 144 696 124 706 128 696 l 213 696 l 138 154 b 126 114 136 140 132 128 b 39 22 106 44 43 57 b 101 0 38 4 58 0 l 219 0 b 288 22 265 0 286 4 b 228 114 292 57 233 44 b 231 154 228 128 229 140 l 268 425 b 575 493 278 493 278 493 b 843 425 854 493 854 493 l 807 154 b 796 114 806 140 801 128 b 708 22 776 44 714 57 b 771 0 708 4 729 0 l 890 0 b 957 22 935 0 956 4 b 899 114 963 57 903 44 b 901 154 899 128 900 140 l 976 696 l 1069 696 b 1090 721 1086 696 1090 706 l 1090 722 b 1069 746 1090 738 1086 746 l 983 746 z m 871 610 b 583 542 861 542 861 542 b 294 610 285 542 285 542 l 307 696 l 882 696 z "},"I":{"ha":418,"x_min":0,"x_max":0,"o":"m 219 0 b 288 22 265 0 286 4 b 228 114 292 57 233 44 b 231 154 228 128 229 140 l 324 818 b 333 858 324 832 328 844 b 421 950 354 929 417 915 b 358 972 422 968 401 972 l 240 972 b 174 950 194 972 174 968 b 232 858 168 915 226 928 b 229 818 232 844 231 832 l 138 154 b 126 114 136 140 132 128 b 39 22 106 44 43 57 b 101 0 38 4 58 0 z "},"Í":{"ha":418,"x_min":0,"x_max":0,"o":"m 232 1065 b 454 1176 288 1044 436 1126 b 425 1249 467 1211 450 1239 b 310 1182 389 1261 360 1228 b 225 1088 261 1131 231 1099 b 232 1065 222 1082 218 1069 z m 219 0 b 288 22 265 0 286 4 b 228 114 292 57 233 44 b 231 154 228 128 229 140 l 324 818 b 333 858 324 832 328 844 b 421 950 354 929 417 915 b 358 972 422 968 401 972 l 240 972 b 174 950 194 972 174 968 b 232 858 168 915 226 928 b 229 818 232 844 231 832 l 138 154 b 126 114 136 140 132 128 b 39 22 106 44 43 57 b 101 0 38 4 58 0 z "},"Î":{"ha":418,"x_min":0,"x_max":0,"o":"m 154 1046 b 325 1110 186 1043 285 1082 b 481 1046 358 1082 444 1043 b 494 1064 494 1049 497 1057 b 435 1143 494 1078 464 1108 b 339 1219 374 1213 371 1219 b 228 1143 310 1219 299 1206 b 142 1064 189 1108 149 1078 b 154 1046 140 1057 139 1049 z m 219 0 b 288 22 265 0 286 4 b 228 114 292 57 233 44 b 231 154 228 128 229 140 l 324 818 b 333 858 324 832 328 844 b 421 950 354 929 417 915 b 358 972 422 968 401 972 l 240 972 b 174 950 194 972 174 968 b 232 858 168 915 226 928 b 229 818 232 844 231 832 l 138 154 b 126 114 136 140 132 128 b 39 22 106 44 43 57 b 101 0 38 4 58 0 z "},"Ï":{"ha":418,"x_min":0,"x_max":0,"o":"m 183 1085 b 263 1156 224 1085 263 1114 b 204 1211 263 1188 238 1211 b 131 1133 163 1211 131 1172 b 183 1085 131 1104 154 1085 z m 371 1085 b 451 1156 411 1085 451 1114 b 392 1211 451 1188 425 1211 b 318 1133 351 1211 318 1172 b 371 1085 318 1104 342 1085 z m 219 0 b 288 22 265 0 286 4 b 228 114 292 57 233 44 b 231 154 228 128 229 140 l 324 818 b 333 858 324 832 328 844 b 421 950 354 929 417 915 b 358 972 422 968 401 972 l 240 972 b 174 950 194 972 174 968 b 232 858 168 915 226 928 b 229 818 232 844 231 832 l 138 154 b 126 114 136 140 132 128 b 39 22 106 44 43 57 b 101 0 38 4 58 0 z "},"İ":{"ha":418,"x_min":0,"x_max":0,"o":"m 310 1100 b 415 1185 354 1096 410 1144 b 365 1249 418 1211 397 1244 b 257 1161 318 1257 261 1206 b 310 1100 253 1126 279 1103 z m 219 0 b 288 22 265 0 286 4 b 228 114 292 57 233 44 b 231 154 228 128 229 140 l 324 818 b 333 858 324 832 328 844 b 421 950 354 929 417 915 b 358 972 422 968 401 972 l 240 972 b 174 950 194 972 174 968 b 232 858 168 915 226 928 b 229 818 232 844 231 832 l 138 154 b 126 114 136 140 132 128 b 39 22 106 44 43 57 b 101 0 38 4 58 0 z "},"Ì":{"ha":418,"x_min":0,"x_max":0,"o":"m 382 1065 b 389 1088 396 1069 392 1082 b 304 1182 385 1099 354 1131 b 189 1249 256 1228 226 1261 b 160 1176 164 1239 147 1211 b 382 1065 179 1126 326 1044 z m 219 0 b 288 22 265 0 286 4 b 228 114 292 57 233 44 b 231 154 228 128 229 140 l 324 818 b 333 858 324 832 328 844 b 421 950 354 929 417 915 b 358 972 422 968 401 972 l 240 972 b 174 950 194 972 174 968 b 232 858 168 915 226 928 b 229 818 232 844 231 832 l 138 154 b 126 114 136 140 132 128 b 39 22 106 44 43 57 b 101 0 38 4 58 0 z "},"Ī":{"ha":418,"x_min":0,"x_max":0,"o":"m 447 1079 b 479 1108 475 1079 478 1089 b 454 1138 482 1128 483 1138 l 138 1138 b 103 1110 107 1138 106 1128 b 129 1079 100 1089 100 1079 z m 219 0 b 288 22 265 0 286 4 b 228 114 292 57 233 44 b 231 154 228 128 229 140 l 324 818 b 333 858 324 832 328 844 b 421 950 354 929 417 915 b 358 972 422 968 401 972 l 240 972 b 174 950 194 972 174 968 b 232 858 168 915 226 928 b 229 818 232 844 231 832 l 138 154 b 126 114 136 140 132 128 b 39 22 106 44 43 57 b 101 0 38 4 58 0 z "},"Į":{"ha":418,"x_min":0,"x_max":0,"o":"m 240 972 b 174 950 194 972 174 968 b 232 858 168 915 226 928 b 229 818 232 844 231 832 l 138 154 b 126 114 136 140 132 128 b 39 22 106 44 43 57 b 101 0 38 4 58 0 l 233 0 b 128 -144 172 -43 128 -87 b 260 -251 128 -215 190 -251 b 364 -218 289 -251 335 -243 b 347 -196 376 -207 369 -186 b 285 -210 331 -203 304 -210 b 201 -133 231 -210 201 -182 b 286 14 201 -92 225 -40 l 285 14 b 288 22 286 17 288 19 b 228 114 292 57 233 44 b 231 154 228 128 229 140 l 324 818 b 333 858 324 832 328 844 b 421 950 354 929 417 915 b 358 972 422 968 401 972 z "},"J":{"ha":725,"x_min":0,"x_max":0,"o":"m 244 -11 b 588 383 440 -11 550 118 l 649 818 b 660 858 650 832 654 844 b 746 950 679 929 742 915 b 685 972 747 968 726 972 l 565 972 b 499 950 519 972 499 968 b 557 858 493 915 551 928 b 554 818 557 844 556 832 l 493 378 b 274 43 465 176 396 43 b 138 214 172 43 139 118 b 86 275 136 246 122 275 b 24 211 53 275 31 250 b 244 -11 10 107 74 -11 z "},"K":{"ha":897,"x_min":0,"x_max":0,"o":"m 778 972 b 732 949 754 972 735 968 b 728 847 725 901 814 921 l 274 474 l 321 817 b 419 949 336 919 414 907 b 357 971 422 967 400 971 l 239 971 b 171 949 193 971 174 967 b 228 817 165 906 243 929 l 135 156 b 39 24 121 53 43 65 b 100 1 36 7 57 1 l 218 1 b 288 24 264 1 285 7 b 229 156 292 67 214 43 l 264 404 l 560 650 l 710 138 b 671 26 736 51 675 57 b 733 0 667 4 690 0 l 854 0 b 901 22 881 0 900 4 b 817 128 907 58 843 40 l 638 711 l 803 847 b 963 950 901 929 956 907 b 900 972 965 968 943 972 z "},"L":{"ha":771,"x_min":0,"x_max":0,"o":"m 561 0 b 676 43 653 0 665 15 b 713 168 693 82 704 119 b 703 207 717 186 718 207 b 643 151 685 207 669 193 b 442 51 596 85 575 53 l 343 49 b 225 119 235 47 218 69 l 324 817 b 332 857 324 831 328 843 b 419 949 354 926 415 914 b 358 971 422 967 401 971 l 240 971 b 171 949 194 971 174 967 b 231 857 167 914 226 926 b 229 817 232 843 231 831 l 139 168 b 126 114 135 140 132 128 b 39 22 106 44 43 57 b 101 0 36 4 58 0 z "},"Ĺ":{"ha":771,"x_min":0,"x_max":0,"o":"m 247 1065 b 469 1176 303 1044 451 1126 b 440 1249 482 1211 465 1239 b 325 1182 404 1261 375 1228 b 240 1088 276 1131 246 1099 b 247 1065 238 1082 233 1069 z m 561 0 b 676 43 653 0 665 15 b 713 168 693 82 704 119 b 703 207 717 186 718 207 b 643 151 685 207 669 193 b 442 51 596 85 575 53 l 343 49 b 225 119 235 47 218 69 l 324 817 b 332 857 324 831 328 843 b 419 949 354 926 415 914 b 358 971 422 967 401 971 l 240 971 b 171 949 194 971 174 967 b 231 857 167 914 226 926 b 229 817 232 843 231 831 l 139 168 b 126 114 135 140 132 128 b 39 22 106 44 43 57 b 101 0 36 4 58 0 z "},"Ľ":{"ha":771,"x_min":0,"x_max":0,"o":"m 561 0 b 676 43 653 0 665 15 b 713 168 693 82 704 119 b 703 207 717 186 718 207 b 643 151 685 207 669 193 b 442 51 596 85 575 53 l 343 49 b 225 119 235 47 218 69 l 324 817 b 332 857 324 831 328 843 b 419 949 354 926 415 914 b 358 971 422 967 401 971 l 240 971 b 171 949 194 971 174 967 b 231 857 167 914 226 926 b 229 817 232 843 231 831 l 139 168 b 126 114 135 140 132 128 b 39 22 106 44 43 57 b 101 0 36 4 58 0 z m 508 682 b 640 915 543 682 633 872 b 603 971 646 958 625 971 b 540 908 575 971 550 950 b 494 703 538 890 506 747 b 508 682 492 692 497 682 z "},"Ł":{"ha":771,"x_min":0,"x_max":0,"o":"m 703 207 b 643 151 685 207 669 193 b 442 51 596 85 575 53 l 343 49 b 225 119 235 47 218 69 l 276 488 l 389 551 b 396 582 403 560 404 571 b 367 590 390 594 382 599 l 285 543 l 324 817 b 332 857 324 831 328 843 b 419 949 354 926 415 914 b 358 971 422 967 401 971 l 240 971 b 171 949 194 971 174 967 b 231 857 167 914 226 926 b 229 817 232 843 231 831 l 183 483 l 75 421 b 67 393 58 413 60 404 b 96 383 74 379 82 374 l 175 429 l 139 168 b 126 114 135 140 132 128 b 39 22 106 44 43 57 b 101 0 36 4 58 0 l 561 0 b 676 43 653 0 665 15 b 713 168 693 82 704 119 b 703 207 717 186 718 207 z "},"M":{"ha":1232,"x_min":0,"x_max":0,"o":"m 172 0 b 239 26 215 0 235 6 b 190 164 244 69 168 44 l 310 829 l 514 74 b 554 64 518 63 529 58 b 588 88 571 69 579 75 l 1036 836 l 960 160 b 865 25 947 51 871 65 b 926 0 861 4 883 0 l 1047 0 b 1106 25 1083 0 1101 4 b 1053 160 1111 64 1043 53 l 1126 825 b 1204 951 1138 931 1200 918 b 1160 972 1206 967 1196 972 l 1081 972 b 1047 951 1065 972 1054 967 l 586 172 l 375 951 b 346 972 369 967 361 972 l 260 972 b 211 951 224 972 211 967 b 254 825 206 922 271 919 l 138 164 b 39 26 115 44 44 71 b 93 0 35 6 58 0 z "},"N":{"ha":1038,"x_min":0,"x_max":0,"o":"m 135 0 b 201 26 178 0 197 6 b 146 164 207 69 131 44 l 235 819 l 772 113 b 794 28 794 85 799 54 b 813 0 792 7 799 0 l 821 0 b 843 28 832 0 840 6 l 951 808 b 1044 946 969 928 1039 903 b 990 972 1049 967 1025 972 l 911 972 b 844 946 868 972 849 967 b 899 808 839 903 914 928 l 819 215 l 260 956 b 231 972 253 968 244 972 l 193 972 b 125 950 151 972 129 968 b 183 803 118 907 204 949 l 94 164 b 1 26 78 44 7 71 b 57 0 -3 6 21 0 z "},"Ń":{"ha":1038,"x_min":0,"x_max":0,"o":"m 522 1065 b 744 1176 578 1044 726 1126 b 715 1249 757 1211 740 1239 b 600 1182 679 1261 650 1228 b 515 1088 551 1131 521 1099 b 522 1065 513 1082 508 1069 z m 135 0 b 201 26 178 0 197 6 b 146 164 207 69 131 44 l 235 819 l 772 113 b 794 28 794 85 799 54 b 813 0 792 7 799 0 l 821 0 b 843 28 832 0 840 6 l 951 808 b 1044 946 969 928 1039 903 b 990 972 1049 967 1025 972 l 911 972 b 844 946 868 972 849 967 b 899 808 839 903 914 928 l 819 215 l 260 956 b 231 972 253 968 244 972 l 193 972 b 125 950 151 972 129 968 b 183 803 118 907 204 949 l 94 164 b 1 26 78 44 7 71 b 57 0 -3 6 21 0 z "},"Ň":{"ha":1038,"x_min":0,"x_max":0,"o":"m 606 1046 b 721 1122 638 1046 640 1051 b 806 1201 760 1157 800 1188 b 793 1218 807 1208 808 1217 b 622 1156 761 1221 663 1183 b 468 1218 589 1183 503 1221 b 453 1201 453 1217 450 1208 b 514 1122 453 1188 485 1156 b 606 1046 568 1058 576 1046 z m 135 0 b 201 26 178 0 197 6 b 146 164 207 69 131 44 l 235 819 l 772 113 b 794 28 794 85 799 54 b 813 0 792 7 799 0 l 821 0 b 843 28 832 0 840 6 l 951 808 b 1044 946 969 928 1039 903 b 990 972 1049 967 1025 972 l 911 972 b 844 946 868 972 849 967 b 899 808 839 903 914 928 l 819 215 l 260 956 b 231 972 253 968 244 972 l 193 972 b 125 950 151 972 129 968 b 183 803 118 907 204 949 l 94 164 b 1 26 78 44 7 71 b 57 0 -3 6 21 0 z "},"Ñ":{"ha":1038,"x_min":0,"x_max":0,"o":"m 699 1063 b 799 1139 751 1063 792 1090 b 769 1172 806 1186 774 1204 b 717 1132 765 1146 751 1132 b 501 1190 668 1132 593 1190 b 400 1113 447 1190 407 1161 b 432 1081 393 1067 426 1047 b 485 1121 433 1106 451 1121 b 699 1063 550 1121 635 1063 z m 135 0 b 201 26 178 0 197 6 b 146 164 207 69 131 44 l 235 819 l 772 113 b 794 28 794 85 799 54 b 813 0 792 7 799 0 l 821 0 b 843 28 832 0 840 6 l 951 808 b 1044 946 969 928 1039 903 b 990 972 1049 967 1025 972 l 911 972 b 844 946 868 972 849 967 b 899 808 839 903 914 928 l 819 215 l 260 956 b 231 972 253 968 244 972 l 193 972 b 125 950 151 972 129 968 b 183 803 118 907 204 949 l 94 164 b 1 26 78 44 7 71 b 57 0 -3 6 21 0 z "},"O":{"ha":1078,"x_min":0,"x_max":0,"o":"m 479 -10 b 1040 582 810 -24 1040 251 b 635 983 1040 788 900 983 b 75 406 321 983 75 721 b 479 -10 75 160 267 -1 z m 531 42 b 179 421 313 42 179 188 b 618 932 179 700 364 932 b 938 561 814 932 938 789 b 531 42 938 297 785 42 z "},"Ó":{"ha":1078,"x_min":0,"x_max":0,"o":"m 569 1065 b 792 1176 625 1044 774 1126 b 763 1249 804 1211 788 1239 b 647 1182 726 1261 697 1228 b 563 1088 599 1131 568 1099 b 569 1065 560 1082 556 1069 z m 479 -10 b 1040 582 810 -24 1040 251 b 635 983 1040 788 900 983 b 75 406 321 983 75 721 b 479 -10 75 160 267 -1 z m 531 42 b 179 421 313 42 179 188 b 618 932 179 700 364 932 b 938 561 814 932 938 789 b 531 42 938 297 785 42 z "},"Ô":{"ha":1078,"x_min":0,"x_max":0,"o":"m 493 1046 b 664 1110 525 1043 624 1082 b 819 1046 697 1082 783 1043 b 833 1064 833 1049 836 1057 b 774 1143 833 1078 803 1108 b 678 1219 713 1213 710 1219 b 567 1143 649 1219 638 1206 b 481 1064 528 1108 488 1078 b 493 1046 479 1057 478 1049 z m 479 -10 b 1040 582 810 -24 1040 251 b 635 983 1040 788 900 983 b 75 406 321 983 75 721 b 479 -10 75 160 267 -1 z m 531 42 b 179 421 313 42 179 188 b 618 932 179 700 364 932 b 938 561 814 932 938 789 b 531 42 938 297 785 42 z "},"Ö":{"ha":1078,"x_min":0,"x_max":0,"o":"m 521 1085 b 600 1156 561 1085 600 1114 b 542 1211 600 1188 575 1211 b 468 1133 500 1211 468 1172 b 521 1085 468 1104 492 1085 z m 708 1085 b 789 1156 749 1085 789 1114 b 729 1211 789 1188 763 1211 b 656 1133 689 1211 656 1172 b 708 1085 656 1104 679 1085 z m 479 -10 b 1040 582 810 -24 1040 251 b 635 983 1040 788 900 983 b 75 406 321 983 75 721 b 479 -10 75 160 267 -1 z m 531 42 b 179 421 313 42 179 188 b 618 932 179 700 364 932 b 938 561 814 932 938 789 b 531 42 938 297 785 42 z "},"Ò":{"ha":1078,"x_min":0,"x_max":0,"o":"m 719 1065 b 726 1088 733 1069 729 1082 b 642 1182 722 1099 692 1131 b 526 1249 593 1228 564 1261 b 497 1176 501 1239 485 1211 b 719 1065 517 1126 664 1044 z m 479 -10 b 1040 582 810 -24 1040 251 b 635 983 1040 788 900 983 b 75 406 321 983 75 721 b 479 -10 75 160 267 -1 z m 531 42 b 179 421 313 42 179 188 b 618 932 179 700 364 932 b 938 561 814 932 938 789 b 531 42 938 297 785 42 z "},"Ő":{"ha":1078,"x_min":0,"x_max":0,"o":"m 449 1065 b 658 1182 513 1065 658 1125 b 601 1229 658 1206 629 1229 b 503 1172 575 1229 546 1206 b 406 1083 458 1136 406 1094 b 449 1065 406 1072 421 1065 z m 711 1063 b 925 1168 775 1060 922 1111 b 872 1218 926 1192 899 1217 b 769 1167 844 1219 814 1199 b 669 1083 724 1135 669 1094 b 711 1063 668 1072 683 1064 z m 479 -10 b 1040 582 810 -24 1040 251 b 635 983 1040 788 900 983 b 75 406 321 983 75 721 b 479 -10 75 160 267 -1 z m 531 42 b 179 421 313 42 179 188 b 618 932 179 700 364 932 b 938 561 814 932 938 789 b 531 42 938 297 785 42 z "},"Ō":{"ha":1078,"x_min":0,"x_max":0,"o":"m 785 1079 b 817 1108 813 1079 815 1089 b 792 1138 819 1128 821 1138 l 475 1138 b 440 1110 444 1138 443 1128 b 467 1079 438 1089 438 1079 z m 479 -10 b 1040 582 810 -24 1040 251 b 635 983 1040 788 900 983 b 75 406 321 983 75 721 b 479 -10 75 160 267 -1 z m 531 42 b 179 421 313 42 179 188 b 618 932 179 700 364 932 b 938 561 814 932 938 789 b 531 42 938 297 785 42 z "},"Ø":{"ha":1078,"x_min":0,"x_max":0,"o":"m 928 1056 b 926 1096 939 1074 943 1086 b 888 1085 908 1108 897 1103 l 810 950 b 635 983 760 971 701 983 b 75 406 321 983 75 721 b 286 43 75 239 163 111 l 221 -69 b 225 -110 211 -86 211 -99 b 261 -99 242 -122 251 -115 l 331 22 b 479 -10 378 3 428 -8 b 1040 582 810 -24 1040 251 b 854 928 1040 721 976 854 z m 179 421 b 618 932 179 700 364 932 b 776 893 678 932 732 918 l 321 103 b 179 421 231 167 179 276 z m 531 42 b 363 78 467 42 411 54 l 818 865 b 938 561 894 801 938 696 b 531 42 938 297 785 42 z "},"Õ":{"ha":1078,"x_min":0,"x_max":0,"o":"m 746 1063 b 846 1139 799 1063 839 1090 b 817 1172 853 1186 821 1204 b 764 1132 813 1146 799 1132 b 549 1190 715 1132 640 1190 b 447 1113 494 1190 454 1161 b 479 1081 440 1067 474 1047 b 532 1121 481 1106 499 1121 b 746 1063 597 1121 682 1063 z m 479 -10 b 1040 582 810 -24 1040 251 b 635 983 1040 788 900 983 b 75 406 321 983 75 721 b 479 -10 75 160 267 -1 z m 531 42 b 179 421 313 42 179 188 b 618 932 179 700 364 932 b 938 561 814 932 938 789 b 531 42 938 297 785 42 z "},"Œ":{"ha":1615,"x_min":0,"x_max":0,"o":"m 1596 933 b 1510 974 1592 967 1588 974 l 1031 972 b 992 939 1011 972 994 960 l 974 813 b 635 983 908 913 794 983 b 75 406 321 983 75 721 b 479 -10 75 160 267 -1 b 882 154 643 -17 782 47 l 867 50 b 910 0 863 21 883 0 l 1383 0 b 1500 43 1474 0 1488 15 b 1540 183 1517 82 1526 119 b 1529 222 1544 203 1546 219 b 1472 167 1513 225 1497 215 b 1265 51 1425 83 1397 53 l 1153 49 b 989 119 999 47 982 68 l 1042 496 b 1204 564 1051 565 1094 564 b 1407 442 1375 563 1363 429 b 1424 514 1425 447 1431 458 l 1415 610 b 1388 657 1411 646 1400 657 b 1211 613 1350 657 1374 613 b 1068 681 1103 613 1058 611 l 1093 857 b 1278 924 1099 903 1122 924 l 1346 924 b 1544 789 1464 924 1515 878 b 1590 743 1560 753 1567 738 b 1610 783 1610 746 1611 761 b 1596 933 1613 849 1604 896 z m 531 42 b 179 421 313 42 179 188 b 618 932 179 700 364 932 b 938 561 814 932 938 789 l 938 553 l 914 381 b 531 42 861 192 725 42 z "},"P":{"ha":868,"x_min":0,"x_max":0,"o":"m 219 1 b 286 24 265 1 286 7 b 232 163 293 65 213 47 b 250 288 238 204 243 247 b 281 315 254 317 251 315 l 394 315 b 857 638 674 315 829 439 b 450 972 881 814 750 972 l 238 972 b 169 950 194 972 172 968 b 228 804 163 901 249 954 l 136 156 b 39 24 119 35 44 65 b 101 1 38 7 58 1 z m 401 365 b 265 403 269 365 261 381 l 333 885 b 440 922 338 914 351 922 b 744 611 657 922 769 783 b 401 365 717 415 576 365 z "},"Þ":{"ha":835,"x_min":0,"x_max":0,"o":"m 219 1 b 288 24 265 1 286 6 b 228 115 292 58 224 46 b 275 225 233 183 233 225 l 382 225 b 800 478 649 225 778 319 b 440 785 829 685 664 788 l 318 783 b 406 950 340 932 400 911 b 349 972 407 965 396 972 l 246 972 b 185 950 199 972 186 965 b 224 785 179 914 243 918 l 138 156 b 126 115 136 142 132 129 b 39 24 106 46 43 58 b 101 1 38 6 58 1 z m 369 275 b 253 314 256 275 249 290 l 307 697 b 385 735 311 726 325 736 b 694 481 578 732 719 669 b 369 275 672 333 549 275 z "},"Q":{"ha":1078,"x_min":0,"x_max":0,"o":"m 965 -44 b 869 -81 933 -44 940 -81 b 440 -7 731 -81 575 -43 b 479 -10 453 -8 465 -10 b 1040 582 810 -24 1040 251 b 635 983 1040 788 900 983 b 75 406 321 983 75 721 b 319 28 75 225 179 89 b 150 61 247 47 188 61 b 71 1 104 61 71 40 b 90 -26 71 -14 78 -26 b 138 0 106 -26 108 0 b 396 -75 182 0 282 -33 b 840 -199 554 -132 738 -199 b 985 -79 950 -199 985 -140 b 965 -44 985 -57 975 -44 z m 179 421 b 618 932 179 700 364 932 b 938 561 814 932 938 789 b 531 42 938 297 785 42 b 179 421 313 42 179 188 z "},"R":{"ha":888,"x_min":0,"x_max":0,"o":"m 218 0 b 288 22 264 0 285 4 b 228 114 292 57 233 44 b 229 154 228 128 228 140 l 260 358 b 406 393 267 413 304 406 b 547 322 504 379 525 375 l 622 138 b 583 26 656 56 588 57 b 647 0 581 4 603 0 l 769 0 b 819 22 796 0 817 4 b 733 132 824 58 767 43 l 625 403 b 869 668 763 446 850 529 b 469 972 893 826 779 972 l 239 972 b 169 950 196 972 172 968 b 232 858 165 915 229 929 b 228 804 232 844 232 832 l 135 154 b 126 114 133 140 132 128 b 39 22 106 44 43 57 b 100 0 36 4 57 0 z m 510 439 b 281 514 443 438 272 450 l 333 885 b 460 921 338 914 358 922 b 760 650 685 919 779 793 b 510 439 739 501 632 442 z "},"Ŕ":{"ha":888,"x_min":0,"x_max":0,"o":"m 469 1065 b 692 1176 525 1044 674 1126 b 663 1249 704 1211 688 1239 b 547 1182 626 1261 597 1228 b 463 1088 499 1131 468 1099 b 469 1065 460 1082 456 1069 z m 218 0 b 288 22 264 0 285 4 b 228 114 292 57 233 44 b 229 154 228 128 228 140 l 260 358 b 406 393 267 413 304 406 b 547 322 504 379 525 375 l 622 138 b 583 26 656 56 588 57 b 647 0 581 4 603 0 l 769 0 b 819 22 796 0 817 4 b 733 132 824 58 767 43 l 625 403 b 869 668 763 446 850 529 b 469 972 893 826 779 972 l 239 972 b 169 950 196 972 172 968 b 232 858 165 915 229 929 b 228 804 232 844 232 832 l 135 154 b 126 114 133 140 132 128 b 39 22 106 44 43 57 b 100 0 36 4 57 0 z m 510 439 b 281 514 443 438 272 450 l 333 885 b 460 921 338 914 358 922 b 760 650 685 919 779 793 b 510 439 739 501 632 442 z "},"Ř":{"ha":888,"x_min":0,"x_max":0,"o":"m 553 1046 b 668 1122 585 1046 588 1051 b 753 1201 707 1157 747 1188 b 740 1218 754 1208 756 1217 b 569 1156 708 1221 610 1183 b 415 1218 536 1183 450 1221 b 400 1201 400 1217 397 1208 b 461 1122 400 1188 432 1156 b 553 1046 515 1058 524 1046 z m 218 0 b 288 22 264 0 285 4 b 228 114 292 57 233 44 b 229 154 228 128 228 140 l 260 358 b 406 393 267 413 304 406 b 547 322 504 379 525 375 l 622 138 b 583 26 656 56 588 57 b 647 0 581 4 603 0 l 769 0 b 819 22 796 0 817 4 b 733 132 824 58 767 43 l 625 403 b 869 668 763 446 850 529 b 469 972 893 826 779 972 l 239 972 b 169 950 196 972 172 968 b 232 858 165 915 229 929 b 228 804 232 844 232 832 l 135 154 b 126 114 133 140 132 128 b 39 22 106 44 43 57 b 100 0 36 4 57 0 z m 510 439 b 281 514 443 438 272 450 l 333 885 b 460 921 338 914 358 922 b 760 650 685 919 779 793 b 510 439 739 501 632 442 z "},"S":{"ha":807,"x_min":0,"x_max":0,"o":"m 350 -15 b 726 253 532 -14 710 82 b 451 556 742 424 583 489 b 244 790 335 617 226 672 b 457 929 257 881 346 929 b 689 757 589 929 656 828 b 732 718 700 729 715 718 b 754 757 751 718 756 738 b 739 910 750 829 743 872 b 704 983 733 968 732 983 b 646 969 685 983 675 969 b 501 983 603 969 558 983 b 153 758 282 983 168 876 b 411 453 126 586 286 515 b 624 208 522 396 650 336 b 371 40 604 111 521 38 b 125 253 207 42 150 154 b 83 294 117 283 100 294 b 60 254 64 294 58 276 b 63 63 57 153 63 96 b 101 -14 64 4 75 -14 b 161 -1 121 -14 132 -1 b 350 -15 203 -1 243 -15 z "},"":{"ha":807,"x_min":0,"x_max":0,"o":"m 350 -15 b 726 253 532 -14 710 82 b 451 556 742 424 583 489 b 244 790 335 617 226 672 b 457 929 257 881 346 929 b 689 757 589 929 656 828 b 732 718 700 729 715 718 b 754 757 751 718 756 738 b 739 910 750 829 743 872 b 704 983 733 968 732 983 b 646 969 685 983 675 969 b 501 983 603 969 558 983 b 153 758 282 983 168 876 b 411 453 126 586 286 515 b 624 208 522 396 650 336 b 371 40 604 111 521 38 b 125 253 207 42 150 154 b 83 294 117 283 100 294 b 60 254 64 294 58 276 b 63 63 57 153 63 96 b 101 -14 64 4 75 -14 b 161 -1 121 -14 132 -1 b 350 -15 203 -1 243 -15 z "},"Ś":{"ha":807,"x_min":0,"x_max":0,"o":"m 410 1081 b 632 1192 465 1060 614 1142 b 603 1264 644 1226 628 1254 b 488 1197 567 1276 538 1243 b 403 1103 439 1146 408 1114 b 410 1081 400 1097 396 1085 z m 350 -15 b 726 253 532 -14 710 82 b 451 556 742 424 583 489 b 244 790 335 617 226 672 b 457 929 257 881 346 929 b 689 757 589 929 656 828 b 732 718 700 729 715 718 b 754 757 751 718 756 738 b 739 910 750 829 743 872 b 704 983 733 968 732 983 b 646 969 685 983 675 969 b 501 983 603 969 558 983 b 153 758 282 983 168 876 b 411 453 126 586 286 515 b 624 208 522 396 650 336 b 371 40 604 111 521 38 b 125 253 207 42 150 154 b 83 294 117 283 100 294 b 60 254 64 294 58 276 b 63 63 57 153 63 96 b 101 -14 64 4 75 -14 b 161 -1 121 -14 132 -1 b 350 -15 203 -1 243 -15 z "},"Š":{"ha":807,"x_min":0,"x_max":0,"o":"m 493 1061 b 608 1138 525 1061 528 1067 b 693 1217 647 1172 688 1203 b 681 1233 694 1224 696 1232 b 510 1171 649 1236 550 1199 b 356 1233 476 1199 390 1236 b 340 1217 340 1232 338 1224 b 401 1138 340 1203 372 1171 b 493 1061 456 1074 464 1061 z m 350 -15 b 726 253 532 -14 710 82 b 451 556 742 424 583 489 b 244 790 335 617 226 672 b 457 929 257 881 346 929 b 689 757 589 929 656 828 b 732 718 700 729 715 718 b 754 757 751 718 756 738 b 739 910 750 829 743 872 b 704 983 733 968 732 983 b 646 969 685 983 675 969 b 501 983 603 969 558 983 b 153 758 282 983 168 876 b 411 453 126 586 286 515 b 624 208 522 396 650 336 b 371 40 604 111 521 38 b 125 253 207 42 150 154 b 83 294 117 283 100 294 b 60 254 64 294 58 276 b 63 63 57 153 63 96 b 101 -14 64 4 75 -14 b 161 -1 121 -14 132 -1 b 350 -15 203 -1 243 -15 z "},"Ş":{"ha":807,"x_min":0,"x_max":0,"o":"m 754 757 b 739 910 750 829 743 872 b 704 983 733 968 732 983 b 646 969 685 983 675 969 b 501 983 603 969 558 983 b 153 758 282 983 168 876 b 411 453 126 586 286 515 b 624 208 522 396 650 336 b 371 40 604 111 521 38 b 125 253 207 42 150 154 b 83 294 117 283 100 294 b 60 254 64 294 58 276 b 63 63 57 153 63 96 b 101 -14 64 4 75 -14 b 161 -1 121 -14 132 -1 b 331 -15 200 -1 238 -14 l 289 -93 b 306 -117 282 -106 292 -114 b 400 -192 354 -128 400 -147 b 333 -253 400 -225 379 -253 b 253 -229 296 -253 272 -240 b 236 -249 238 -219 224 -235 b 343 -290 251 -268 283 -290 b 468 -183 410 -290 468 -249 b 339 -76 468 -119 410 -89 l 371 -15 b 726 253 544 -7 710 89 b 451 556 742 424 583 489 b 244 790 335 617 226 672 b 457 929 257 881 346 929 b 689 757 589 929 656 828 b 732 718 700 729 715 718 b 754 757 751 718 756 738 z "},"ẞ":{"ha":1614,"x_min":0,"x_max":0,"o":"m 350 -15 b 726 253 532 -14 710 82 b 451 556 742 424 583 489 b 244 790 335 617 226 672 b 457 929 257 881 346 929 b 689 757 589 929 656 828 b 732 718 700 729 715 718 b 754 757 751 718 756 738 b 739 910 750 829 743 872 b 704 983 733 968 732 983 b 646 969 685 983 675 969 b 501 983 603 969 558 983 b 153 758 282 983 168 876 b 411 453 126 586 286 515 b 624 208 522 396 650 336 b 371 40 604 111 521 38 b 125 253 207 42 150 154 b 83 294 117 283 100 294 b 60 254 64 294 58 276 b 63 63 57 153 63 96 b 101 -14 64 4 75 -14 b 161 -1 121 -14 132 -1 b 350 -15 203 -1 243 -15 z m 1157 -15 b 1533 253 1339 -14 1517 82 b 1258 556 1549 424 1390 489 b 1051 790 1142 617 1033 672 b 1264 929 1064 881 1153 929 b 1496 757 1396 929 1463 828 b 1539 718 1507 729 1522 718 b 1561 757 1558 718 1563 738 b 1546 910 1557 829 1550 872 b 1511 983 1540 968 1539 983 b 1453 969 1492 983 1482 969 b 1308 983 1410 969 1365 983 b 960 758 1089 983 975 876 b 1218 453 933 586 1093 515 b 1431 208 1329 396 1457 336 b 1178 40 1411 111 1328 38 b 932 253 1014 42 957 154 b 890 294 924 283 907 294 b 867 254 871 294 865 276 b 869 63 864 153 869 96 b 908 -14 871 4 882 -14 b 968 -1 928 -14 939 -1 b 1157 -15 1010 -1 1050 -15 z "},"T":{"ha":876,"x_min":0,"x_max":0,"o":"m 449 1 b 517 24 494 1 515 7 b 457 115 521 58 463 47 b 460 156 457 129 457 143 l 558 853 b 650 926 565 904 588 926 b 810 808 767 926 779 889 b 854 751 828 765 836 751 b 885 790 878 751 883 772 b 886 931 893 854 892 892 b 782 974 883 958 874 974 l 272 972 b 157 929 182 972 169 957 b 119 789 140 890 131 853 b 139 750 117 769 115 750 b 197 807 157 750 169 764 b 393 924 254 888 276 924 b 463 851 454 924 469 903 l 367 156 b 356 115 364 143 361 129 b 268 24 335 46 272 58 b 331 1 267 7 288 1 z "},"Ŧ":{"ha":876,"x_min":0,"x_max":0,"o":"m 886 931 b 782 974 883 958 874 974 l 272 972 b 157 929 182 972 169 957 b 119 789 140 890 131 853 b 139 750 117 769 115 750 b 197 807 157 750 169 764 b 393 924 254 888 276 924 b 463 851 454 924 469 903 l 415 508 l 324 508 b 285 482 293 508 288 499 b 315 458 283 467 288 458 l 408 458 l 367 156 b 356 115 364 143 361 129 b 268 24 335 46 272 58 b 331 1 267 7 288 1 l 449 1 b 517 24 494 1 515 7 b 457 115 521 58 463 47 b 460 156 457 129 457 143 l 503 458 l 599 458 b 636 482 626 458 633 467 b 606 508 639 499 636 508 l 510 508 l 558 853 b 650 926 565 904 588 926 b 810 808 767 926 779 889 b 854 751 828 765 836 751 b 885 790 878 751 883 772 b 886 931 893 854 892 892 z "},"Ť":{"ha":876,"x_min":0,"x_max":0,"o":"m 558 1046 b 674 1122 590 1046 593 1051 b 758 1201 713 1157 753 1188 b 746 1218 760 1208 761 1217 b 575 1156 714 1221 615 1183 b 421 1218 542 1183 456 1221 b 406 1201 406 1217 403 1208 b 467 1122 406 1188 438 1156 b 558 1046 521 1058 529 1046 z m 449 1 b 517 24 494 1 515 7 b 457 115 521 58 463 47 b 460 156 457 129 457 143 l 558 853 b 650 926 565 904 588 926 b 810 808 767 926 779 889 b 854 751 828 765 836 751 b 885 790 878 751 883 772 b 886 931 893 854 892 892 b 782 974 883 958 874 974 l 272 972 b 157 929 182 972 169 957 b 119 789 140 890 131 853 b 139 750 117 769 115 750 b 197 807 157 750 169 764 b 393 924 254 888 276 924 b 463 851 454 924 469 903 l 367 156 b 356 115 364 143 361 129 b 268 24 335 46 272 58 b 331 1 267 7 288 1 z "},"U":{"ha":999,"x_min":0,"x_max":0,"o":"m 463 -14 b 875 375 713 -14 846 163 l 938 808 b 1029 946 954 928 1024 903 b 975 972 1033 968 1011 972 l 896 972 b 831 946 853 972 835 967 b 883 808 825 903 901 928 l 826 361 b 490 43 801 188 682 43 b 243 349 310 43 215 149 l 308 815 b 318 856 311 828 314 842 b 406 947 339 925 400 913 b 344 969 408 964 388 969 l 225 969 b 157 947 181 969 160 964 b 215 856 151 913 213 924 b 214 815 217 842 217 828 l 151 365 b 463 -14 119 139 239 -14 z "},"Ú":{"ha":999,"x_min":0,"x_max":0,"o":"m 601 1065 b 824 1176 657 1044 806 1126 b 794 1249 836 1211 819 1239 b 679 1182 758 1261 729 1228 b 594 1088 631 1131 600 1099 b 601 1065 592 1082 588 1069 z m 463 -14 b 875 375 713 -14 846 163 l 938 808 b 1029 946 954 928 1024 903 b 975 972 1033 968 1011 972 l 896 972 b 831 946 853 972 835 967 b 883 808 825 903 901 928 l 826 361 b 490 43 801 188 682 43 b 243 349 310 43 215 149 l 308 815 b 318 856 311 828 314 842 b 406 947 339 925 400 913 b 344 969 408 964 388 969 l 225 969 b 157 947 181 969 160 964 b 215 856 151 913 213 924 b 214 815 217 842 217 828 l 151 365 b 463 -14 119 139 239 -14 z "},"Û":{"ha":999,"x_min":0,"x_max":0,"o":"m 525 1046 b 696 1110 557 1043 656 1082 b 851 1046 729 1082 815 1043 b 865 1064 865 1049 868 1057 b 806 1143 865 1078 835 1108 b 710 1219 744 1213 742 1219 b 599 1143 681 1219 669 1206 b 513 1064 560 1108 519 1078 b 525 1046 511 1057 510 1049 z m 463 -14 b 875 375 713 -14 846 163 l 938 808 b 1029 946 954 928 1024 903 b 975 972 1033 968 1011 972 l 896 972 b 831 946 853 972 835 967 b 883 808 825 903 901 928 l 826 361 b 490 43 801 188 682 43 b 243 349 310 43 215 149 l 308 815 b 318 856 311 828 314 842 b 406 947 339 925 400 913 b 344 969 408 964 388 969 l 225 969 b 157 947 181 969 160 964 b 215 856 151 913 213 924 b 214 815 217 842 217 828 l 151 365 b 463 -14 119 139 239 -14 z "},"Ü":{"ha":999,"x_min":0,"x_max":0,"o":"m 553 1085 b 632 1156 593 1085 632 1114 b 574 1211 632 1188 607 1211 b 500 1133 532 1211 500 1172 b 553 1085 500 1104 524 1085 z m 740 1085 b 821 1156 781 1085 821 1114 b 761 1211 821 1188 794 1211 b 688 1133 721 1211 688 1172 b 740 1085 688 1104 711 1085 z m 463 -14 b 875 375 713 -14 846 163 l 938 808 b 1029 946 954 928 1024 903 b 975 972 1033 968 1011 972 l 896 972 b 831 946 853 972 835 967 b 883 808 825 903 901 928 l 826 361 b 490 43 801 188 682 43 b 243 349 310 43 215 149 l 308 815 b 318 856 311 828 314 842 b 406 947 339 925 400 913 b 344 969 408 964 388 969 l 225 969 b 157 947 181 969 160 964 b 215 856 151 913 213 924 b 214 815 217 842 217 828 l 151 365 b 463 -14 119 139 239 -14 z "},"Ù":{"ha":999,"x_min":0,"x_max":0,"o":"m 751 1065 b 758 1088 765 1069 761 1082 b 674 1182 754 1099 724 1131 b 558 1249 625 1228 596 1261 b 529 1176 533 1239 517 1211 b 751 1065 549 1126 696 1044 z m 463 -14 b 875 375 713 -14 846 163 l 938 808 b 1029 946 954 928 1024 903 b 975 972 1033 968 1011 972 l 896 972 b 831 946 853 972 835 967 b 883 808 825 903 901 928 l 826 361 b 490 43 801 188 682 43 b 243 349 310 43 215 149 l 308 815 b 318 856 311 828 314 842 b 406 947 339 925 400 913 b 344 969 408 964 388 969 l 225 969 b 157 947 181 969 160 964 b 215 856 151 913 213 924 b 214 815 217 842 217 828 l 151 365 b 463 -14 119 139 239 -14 z "},"Ű":{"ha":999,"x_min":0,"x_max":0,"o":"m 481 1065 b 690 1182 544 1065 690 1125 b 633 1229 690 1206 661 1229 b 535 1172 607 1229 578 1206 b 438 1083 490 1136 438 1094 b 481 1065 438 1072 453 1065 z m 743 1063 b 957 1168 807 1060 954 1111 b 904 1218 958 1192 931 1217 b 801 1167 876 1219 846 1199 b 701 1083 756 1135 701 1094 b 743 1063 700 1072 715 1064 z m 463 -14 b 875 375 713 -14 846 163 l 938 808 b 1029 946 954 928 1024 903 b 975 972 1033 968 1011 972 l 896 972 b 831 946 853 972 835 967 b 883 808 825 903 901 928 l 826 361 b 490 43 801 188 682 43 b 243 349 310 43 215 149 l 308 815 b 318 856 311 828 314 842 b 406 947 339 925 400 913 b 344 969 408 964 388 969 l 225 969 b 157 947 181 969 160 964 b 215 856 151 913 213 924 b 214 815 217 842 217 828 l 151 365 b 463 -14 119 139 239 -14 z "},"Ū":{"ha":999,"x_min":0,"x_max":0,"o":"m 817 1079 b 849 1108 844 1079 847 1089 b 824 1138 851 1128 853 1138 l 507 1138 b 472 1110 476 1138 475 1128 b 499 1079 469 1089 469 1079 z m 463 -14 b 875 375 713 -14 846 163 l 938 808 b 1029 946 954 928 1024 903 b 975 972 1033 968 1011 972 l 896 972 b 831 946 853 972 835 967 b 883 808 825 903 901 928 l 826 361 b 490 43 801 188 682 43 b 243 349 310 43 215 149 l 308 815 b 318 856 311 828 314 842 b 406 947 339 925 400 913 b 344 969 408 964 388 969 l 225 969 b 157 947 181 969 160 964 b 215 856 151 913 213 924 b 214 815 217 842 217 828 l 151 365 b 463 -14 119 139 239 -14 z "},"Ų":{"ha":999,"x_min":0,"x_max":0,"o":"m 896 972 b 831 946 853 972 835 967 b 883 808 825 903 901 928 l 826 361 b 490 43 801 188 682 43 b 243 349 310 43 215 149 l 308 815 b 318 856 311 828 314 842 b 406 947 339 925 400 913 b 344 969 408 964 388 969 l 225 969 b 157 947 181 969 160 964 b 215 856 151 913 213 924 b 214 815 217 842 217 828 l 151 365 b 463 -14 119 139 239 -14 b 521 -11 483 -14 503 -12 b 431 -144 468 -50 431 -93 b 563 -251 431 -215 493 -251 b 667 -218 592 -251 638 -243 b 650 -196 679 -207 672 -186 b 588 -210 633 -203 607 -210 b 504 -133 533 -210 504 -182 b 572 -1 504 -96 524 -50 b 875 375 753 43 850 196 l 938 808 b 1029 946 954 928 1024 903 b 975 972 1033 968 1011 972 z "},"Ů":{"ha":999,"x_min":0,"x_max":0,"o":"m 621 1050 b 768 1174 693 1050 758 1097 b 661 1293 778 1246 731 1293 b 513 1169 588 1293 522 1244 b 621 1050 503 1097 550 1050 z m 635 1096 b 567 1171 592 1096 567 1126 b 649 1250 571 1218 601 1250 b 714 1176 690 1250 714 1219 b 635 1096 710 1132 681 1096 z m 463 -14 b 875 375 713 -14 846 163 l 938 808 b 1029 946 954 928 1024 903 b 975 972 1033 968 1011 972 l 896 972 b 831 946 853 972 835 967 b 883 808 825 903 901 928 l 826 361 b 490 43 801 188 682 43 b 243 349 310 43 215 149 l 308 815 b 318 856 311 828 314 842 b 406 947 339 925 400 913 b 344 969 408 964 388 969 l 225 969 b 157 947 181 969 160 964 b 215 856 151 913 213 924 b 214 815 217 842 217 828 l 151 365 b 463 -14 119 139 239 -14 z "},"V":{"ha":978,"x_min":0,"x_max":0,"o":"m 450 -6 b 496 22 482 -1 488 7 l 917 814 b 1049 951 982 939 1042 908 b 1000 972 1050 967 1031 972 l 894 972 b 846 946 868 972 849 967 b 861 815 840 910 921 929 l 476 76 l 290 815 b 351 951 263 924 344 911 b 301 972 351 968 331 972 l 169 972 b 101 947 125 972 104 968 b 188 817 97 911 158 929 l 396 13 b 450 -6 401 -8 413 -12 z "},"W":{"ha":1461,"x_min":0,"x_max":0,"o":"m 403 -4 b 453 26 429 1 444 11 l 778 704 l 926 10 b 975 -4 929 -6 950 -11 b 1025 26 1001 0 1017 11 l 1403 814 b 1532 951 1463 940 1525 908 b 1483 972 1533 967 1514 972 l 1378 972 b 1329 946 1351 972 1332 967 b 1347 814 1324 910 1401 931 l 1004 89 l 856 815 b 922 951 833 925 915 910 b 872 972 922 967 903 972 l 742 972 b 672 947 694 972 675 967 b 753 815 667 910 729 932 l 760 782 l 432 90 l 286 815 b 351 951 263 925 344 910 b 301 972 353 967 332 972 l 171 972 b 101 947 125 972 104 967 b 183 815 97 910 158 932 l 353 10 b 403 -4 357 -6 378 -11 z "},"Ẃ":{"ha":1461,"x_min":0,"x_max":0,"o":"m 714 1065 b 936 1176 769 1044 918 1126 b 907 1249 949 1211 932 1239 b 792 1182 871 1261 842 1228 b 707 1088 743 1131 713 1099 b 714 1065 704 1082 700 1069 z m 403 -4 b 453 26 429 1 444 11 l 778 704 l 926 10 b 975 -4 929 -6 950 -11 b 1025 26 1001 0 1017 11 l 1403 814 b 1532 951 1463 940 1525 908 b 1483 972 1533 967 1514 972 l 1378 972 b 1329 946 1351 972 1332 967 b 1347 814 1324 910 1401 931 l 1004 89 l 856 815 b 922 951 833 925 915 910 b 872 972 922 967 903 972 l 742 972 b 672 947 694 972 675 967 b 753 815 667 910 729 932 l 760 782 l 432 90 l 286 815 b 351 951 263 925 344 910 b 301 972 353 967 332 972 l 171 972 b 101 947 125 972 104 967 b 183 815 97 910 158 932 l 353 10 b 403 -4 357 -6 378 -11 z "},"Ŵ":{"ha":1461,"x_min":0,"x_max":0,"o":"m 636 1046 b 807 1110 668 1043 767 1082 b 963 1046 840 1082 926 1043 b 976 1064 976 1049 979 1057 b 917 1143 976 1078 946 1108 b 821 1219 856 1213 853 1219 b 710 1143 792 1219 781 1206 b 624 1064 671 1108 631 1078 b 636 1046 622 1057 621 1049 z m 403 -4 b 453 26 429 1 444 11 l 778 704 l 926 10 b 975 -4 929 -6 950 -11 b 1025 26 1001 0 1017 11 l 1403 814 b 1532 951 1463 940 1525 908 b 1483 972 1533 967 1514 972 l 1378 972 b 1329 946 1351 972 1332 967 b 1347 814 1324 910 1401 931 l 1004 89 l 856 815 b 922 951 833 925 915 910 b 872 972 922 967 903 972 l 742 972 b 672 947 694 972 675 967 b 753 815 667 910 729 932 l 760 782 l 432 90 l 286 815 b 351 951 263 925 344 910 b 301 972 353 967 332 972 l 171 972 b 101 947 125 972 104 967 b 183 815 97 910 158 932 l 353 10 b 403 -4 357 -6 378 -11 z "},"Ẅ":{"ha":1461,"x_min":0,"x_max":0,"o":"m 665 1085 b 744 1156 706 1085 744 1114 b 686 1211 744 1188 719 1211 b 613 1133 644 1211 613 1172 b 665 1085 613 1104 636 1085 z m 853 1085 b 933 1156 893 1085 933 1114 b 874 1211 933 1188 907 1211 b 800 1133 833 1211 800 1172 b 853 1085 800 1104 824 1085 z m 403 -4 b 453 26 429 1 444 11 l 778 704 l 926 10 b 975 -4 929 -6 950 -11 b 1025 26 1001 0 1017 11 l 1403 814 b 1532 951 1463 940 1525 908 b 1483 972 1533 967 1514 972 l 1378 972 b 1329 946 1351 972 1332 967 b 1347 814 1324 910 1401 931 l 1004 89 l 856 815 b 922 951 833 925 915 910 b 872 972 922 967 903 972 l 742 972 b 672 947 694 972 675 967 b 753 815 667 910 729 932 l 760 782 l 432 90 l 286 815 b 351 951 263 925 344 910 b 301 972 353 967 332 972 l 171 972 b 101 947 125 972 104 967 b 183 815 97 910 158 932 l 353 10 b 403 -4 357 -6 378 -11 z "},"Ẁ":{"ha":1461,"x_min":0,"x_max":0,"o":"m 864 1065 b 871 1088 878 1069 874 1082 b 786 1182 867 1099 836 1131 b 671 1249 738 1228 708 1261 b 642 1176 646 1239 629 1211 b 864 1065 661 1126 808 1044 z m 403 -4 b 453 26 429 1 444 11 l 778 704 l 926 10 b 975 -4 929 -6 950 -11 b 1025 26 1001 0 1017 11 l 1403 814 b 1532 951 1463 940 1525 908 b 1483 972 1533 967 1514 972 l 1378 972 b 1329 946 1351 972 1332 967 b 1347 814 1324 910 1401 931 l 1004 89 l 856 815 b 922 951 833 925 915 910 b 872 972 922 967 903 972 l 742 972 b 672 947 694 972 675 967 b 753 815 667 910 729 932 l 760 782 l 432 90 l 286 815 b 351 951 263 925 344 910 b 301 972 353 967 332 972 l 171 972 b 101 947 125 972 104 967 b 183 815 97 910 158 932 l 353 10 b 403 -4 357 -6 378 -11 z "},"X":{"ha":986,"x_min":0,"x_max":0,"o":"m 150 1 b 199 28 176 1 196 7 b 210 131 204 64 136 44 l 482 449 l 665 150 b 619 22 722 58 626 64 b 669 1 618 7 639 1 l 829 1 b 899 28 876 1 896 7 b 785 150 903 64 844 53 l 568 501 l 864 842 b 1010 951 946 936 1003 908 b 963 972 1011 967 992 972 l 863 972 b 814 946 836 972 817 967 b 803 842 810 910 878 929 l 543 542 l 371 824 b 418 951 314 915 411 910 b 368 972 418 967 399 972 l 207 972 b 139 946 161 972 142 967 b 253 824 133 910 193 921 l 457 489 l 150 132 b 3 22 69 38 10 65 b 51 1 1 7 22 1 z "},"Y":{"ha":893,"x_min":0,"x_max":0,"o":"m 810 972 b 763 946 785 972 767 967 b 754 840 757 910 824 929 l 481 486 l 299 824 b 347 951 246 917 340 910 b 297 972 350 967 328 972 l 138 972 b 69 946 92 972 74 967 b 182 824 64 910 125 922 l 399 431 l 361 154 b 350 114 358 140 356 128 b 263 22 331 44 268 57 b 325 0 260 4 282 0 l 444 0 b 511 22 489 0 508 4 b 453 114 515 57 457 44 b 456 154 453 128 453 140 l 493 429 l 815 839 b 958 951 890 936 951 908 b 910 972 961 967 939 972 z "},"Ý":{"ha":893,"x_min":0,"x_max":0,"o":"m 472 1065 b 694 1176 528 1044 676 1126 b 665 1249 707 1211 690 1239 b 550 1182 629 1261 600 1228 b 465 1088 501 1131 471 1099 b 472 1065 463 1082 458 1069 z m 810 972 b 763 946 785 972 767 967 b 754 840 757 910 824 929 l 481 486 l 299 824 b 347 951 246 917 340 910 b 297 972 350 967 328 972 l 138 972 b 69 946 92 972 74 967 b 182 824 64 910 125 922 l 399 431 l 361 154 b 350 114 358 140 356 128 b 263 22 331 44 268 57 b 325 0 260 4 282 0 l 444 0 b 511 22 489 0 508 4 b 453 114 515 57 457 44 b 456 154 453 128 453 140 l 493 429 l 815 839 b 958 951 890 936 951 908 b 910 972 961 967 939 972 z "},"Ŷ":{"ha":893,"x_min":0,"x_max":0,"o":"m 394 1046 b 565 1110 426 1043 525 1082 b 721 1046 599 1082 685 1043 b 735 1064 735 1049 738 1057 b 675 1143 735 1078 704 1108 b 579 1219 614 1213 611 1219 b 468 1143 550 1219 539 1206 b 382 1064 429 1108 389 1078 b 394 1046 381 1057 379 1049 z m 810 972 b 763 946 785 972 767 967 b 754 840 757 910 824 929 l 481 486 l 299 824 b 347 951 246 917 340 910 b 297 972 350 967 328 972 l 138 972 b 69 946 92 972 74 967 b 182 824 64 910 125 922 l 399 431 l 361 154 b 350 114 358 140 356 128 b 263 22 331 44 268 57 b 325 0 260 4 282 0 l 444 0 b 511 22 489 0 508 4 b 453 114 515 57 457 44 b 456 154 453 128 453 140 l 493 429 l 815 839 b 958 951 890 936 951 908 b 910 972 961 967 939 972 z "},"Ÿ":{"ha":893,"x_min":0,"x_max":0,"o":"m 424 1085 b 503 1156 464 1085 503 1114 b 444 1211 503 1188 478 1211 b 371 1133 403 1211 371 1172 b 424 1085 371 1104 394 1085 z m 611 1085 b 692 1156 651 1085 692 1114 b 632 1211 692 1188 665 1211 b 558 1133 592 1211 558 1172 b 611 1085 558 1104 582 1085 z m 810 972 b 763 946 785 972 767 967 b 754 840 757 910 824 929 l 481 486 l 299 824 b 347 951 246 917 340 910 b 297 972 350 967 328 972 l 138 972 b 69 946 92 972 74 967 b 182 824 64 910 125 922 l 399 431 l 361 154 b 350 114 358 140 356 128 b 263 22 331 44 268 57 b 325 0 260 4 282 0 l 444 0 b 511 22 489 0 508 4 b 453 114 515 57 457 44 b 456 154 453 128 453 140 l 493 429 l 815 839 b 958 951 890 936 951 908 b 910 972 961 967 939 972 z "},"Ỳ":{"ha":893,"x_min":0,"x_max":0,"o":"m 622 1065 b 629 1088 636 1069 632 1082 b 544 1182 625 1099 594 1131 b 429 1249 496 1228 467 1261 b 400 1176 404 1239 388 1211 b 622 1065 419 1126 567 1044 z m 810 972 b 763 946 785 972 767 967 b 754 840 757 910 824 929 l 481 486 l 299 824 b 347 951 246 917 340 910 b 297 972 350 967 328 972 l 138 972 b 69 946 92 972 74 967 b 182 824 64 910 125 922 l 399 431 l 361 154 b 350 114 358 140 356 128 b 263 22 331 44 268 57 b 325 0 260 4 282 0 l 444 0 b 511 22 489 0 508 4 b 453 114 515 57 457 44 b 456 154 453 128 453 140 l 493 429 l 815 839 b 958 951 890 936 951 908 b 910 972 961 967 939 972 z "},"Z":{"ha":860,"x_min":0,"x_max":0,"o":"m 639 0 b 738 43 715 0 725 10 b 783 210 753 82 772 144 b 772 250 789 232 790 250 b 713 192 754 250 736 239 b 501 51 665 110 621 51 l 143 49 l 885 925 b 867 972 908 951 900 972 l 288 972 b 190 929 213 972 201 963 b 143 763 175 890 156 828 b 156 722 139 740 136 722 b 214 781 172 722 190 733 b 426 922 261 863 306 922 l 769 924 l 28 49 b 47 0 6 21 14 0 z "},"Ź":{"ha":860,"x_min":0,"x_max":0,"o":"m 454 1065 b 676 1176 510 1044 658 1126 b 647 1249 689 1211 672 1239 b 532 1182 611 1261 582 1228 b 447 1088 483 1131 453 1099 b 454 1065 444 1082 440 1069 z m 639 0 b 738 43 715 0 725 10 b 783 210 753 82 772 144 b 772 250 789 232 790 250 b 713 192 754 250 736 239 b 501 51 665 110 621 51 l 143 49 l 885 925 b 867 972 908 951 900 972 l 288 972 b 190 929 213 972 201 963 b 143 763 175 890 156 828 b 156 722 139 740 136 722 b 214 781 172 722 190 733 b 426 922 261 863 306 922 l 769 924 l 28 49 b 47 0 6 21 14 0 z "},"Ž":{"ha":860,"x_min":0,"x_max":0,"o":"m 538 1046 b 653 1122 569 1046 572 1051 b 738 1201 692 1157 732 1188 b 725 1218 739 1208 740 1217 b 554 1156 693 1221 594 1183 b 400 1218 521 1183 435 1221 b 385 1201 385 1217 382 1208 b 446 1122 385 1188 417 1156 b 538 1046 500 1058 508 1046 z m 639 0 b 738 43 715 0 725 10 b 783 210 753 82 772 144 b 772 250 789 232 790 250 b 713 192 754 250 736 239 b 501 51 665 110 621 51 l 143 49 l 885 925 b 867 972 908 951 900 972 l 288 972 b 190 929 213 972 201 963 b 143 763 175 890 156 828 b 156 722 139 740 136 722 b 214 781 172 722 190 733 b 426 922 261 863 306 922 l 769 924 l 28 49 b 47 0 6 21 14 0 z "},"Ż":{"ha":860,"x_min":0,"x_max":0,"o":"m 547 1083 b 653 1168 592 1079 647 1128 b 603 1232 656 1194 635 1228 b 494 1144 556 1240 499 1189 b 547 1083 490 1110 517 1086 z m 639 0 b 738 43 715 0 725 10 b 783 210 753 82 772 144 b 772 250 789 232 790 250 b 713 192 754 250 736 239 b 501 51 665 110 621 51 l 143 49 l 885 925 b 867 972 908 951 900 972 l 288 972 b 190 929 213 972 201 963 b 143 763 175 890 156 828 b 156 722 139 740 136 722 b 214 781 172 722 190 733 b 426 922 261 863 306 922 l 769 924 l 28 49 b 47 0 6 21 14 0 z "},"Ģ":{"ha":1013,"x_min":0,"x_max":0,"o":"m 492 -14 b 882 169 671 -14 872 88 l 903 324 b 971 461 919 451 964 415 b 932 483 974 479 953 483 l 747 483 b 681 461 703 483 683 479 b 810 325 672 410 825 435 l 789 167 b 526 54 779 100 643 54 b 183 524 278 54 147 260 b 590 918 213 719 371 918 b 872 736 772 918 822 817 b 922 696 888 710 900 692 b 944 736 940 699 944 714 b 929 910 940 818 935 872 b 889 983 924 968 915 983 b 831 969 869 983 860 969 b 665 986 788 969 754 986 b 76 460 364 986 118 758 b 492 -14 39 197 185 -14 z m 456 -360 b 590 -150 493 -360 590 -271 b 518 -75 590 -107 561 -75 b 451 -147 489 -75 451 -100 b 499 -249 451 -199 499 -215 b 442 -349 499 -294 442 -328 b 456 -360 442 -354 449 -360 z "},"Ķ":{"ha":897,"x_min":0,"x_max":0,"o":"m 778 972 b 732 949 754 972 735 968 b 728 847 725 901 814 921 l 274 474 l 321 817 b 419 949 336 919 414 907 b 357 971 422 967 400 971 l 239 971 b 171 949 193 971 174 967 b 228 817 165 906 243 929 l 135 156 b 39 24 121 53 43 65 b 100 1 36 7 57 1 l 218 1 b 288 24 264 1 285 7 b 229 156 292 67 214 43 l 264 404 l 560 650 l 710 138 b 671 26 736 51 675 57 b 733 0 667 4 690 0 l 854 0 b 901 22 881 0 900 4 b 817 128 907 58 843 40 l 638 711 l 803 847 b 963 950 901 929 956 907 b 900 972 965 968 943 972 z m 461 -75 b 394 -147 432 -75 394 -100 b 442 -249 394 -199 442 -215 b 385 -349 442 -294 385 -328 b 399 -360 385 -354 392 -360 b 533 -150 436 -360 533 -271 b 461 -75 533 -107 504 -75 z "},"Ļ":{"ha":771,"x_min":0,"x_max":0,"o":"m 561 0 b 676 43 653 0 665 15 b 713 168 693 82 704 119 b 703 207 717 186 718 207 b 643 151 685 207 669 193 b 442 51 596 85 575 53 l 343 49 b 225 119 235 47 218 69 l 324 817 b 332 857 324 831 328 843 b 419 949 354 926 415 914 b 358 971 422 967 401 971 l 240 971 b 171 949 194 971 174 967 b 231 857 167 914 226 926 b 229 817 232 843 231 831 l 139 168 b 126 114 135 140 132 128 b 39 22 106 44 43 57 b 101 0 36 4 58 0 z m 338 -360 b 472 -150 375 -360 472 -271 b 400 -75 472 -107 443 -75 b 333 -147 371 -75 333 -100 b 381 -249 333 -199 381 -215 b 324 -349 381 -294 324 -328 b 338 -360 324 -354 331 -360 z "},"Ņ":{"ha":1038,"x_min":0,"x_max":0,"o":"m 135 0 b 201 26 178 0 197 6 b 146 164 207 69 131 44 l 235 819 l 772 113 b 794 28 794 85 799 54 b 813 0 792 7 799 0 l 821 0 b 843 28 832 0 840 6 l 951 808 b 1044 946 969 928 1039 903 b 990 972 1049 967 1025 972 l 911 972 b 844 946 868 972 849 967 b 899 808 839 903 914 928 l 819 215 l 260 956 b 231 972 253 968 244 972 l 193 972 b 125 950 151 972 129 968 b 183 803 118 907 204 949 l 94 164 b 1 26 78 44 7 71 b 57 0 -3 6 21 0 z m 393 -360 b 528 -150 431 -360 528 -271 b 456 -75 528 -107 499 -75 b 389 -147 426 -75 389 -100 b 436 -249 389 -199 436 -215 b 379 -349 436 -294 379 -328 b 393 -360 379 -354 386 -360 z "},"Ŗ":{"ha":888,"x_min":0,"x_max":0,"o":"m 218 0 b 288 22 264 0 285 4 b 228 114 292 57 233 44 b 229 154 228 128 228 140 l 260 358 b 406 393 267 413 304 406 b 547 322 504 379 525 375 l 622 138 b 583 26 656 56 588 57 b 647 0 581 4 603 0 l 769 0 b 819 22 796 0 817 4 b 733 132 824 58 767 43 l 625 403 b 869 668 763 446 850 529 b 469 972 893 826 779 972 l 239 972 b 169 950 196 972 172 968 b 232 858 165 915 229 929 b 228 804 232 844 232 832 l 135 154 b 126 114 133 140 132 128 b 39 22 106 44 43 57 b 100 0 36 4 57 0 z m 510 439 b 281 514 443 438 272 450 l 333 885 b 460 921 338 914 358 922 b 760 650 685 919 779 793 b 510 439 739 501 632 442 z m 339 -360 b 474 -150 376 -360 474 -271 b 401 -75 474 -107 444 -75 b 335 -147 372 -75 335 -100 b 382 -249 335 -199 382 -215 b 325 -349 382 -294 325 -328 b 339 -360 325 -354 332 -360 z "},"Ţ":{"ha":876,"x_min":0,"x_max":0,"o":"m 449 1 b 517 24 494 1 515 7 b 457 115 521 58 463 47 b 460 156 457 129 457 143 l 558 853 b 650 926 565 904 588 926 b 810 808 767 926 779 889 b 854 751 828 765 836 751 b 885 790 878 751 883 772 b 886 931 893 854 892 892 b 782 974 883 958 874 974 l 272 972 b 157 929 182 972 169 957 b 119 789 140 890 131 853 b 139 750 117 769 115 750 b 197 807 157 750 169 764 b 393 924 254 888 276 924 b 463 851 454 924 469 903 l 367 156 b 356 115 364 143 361 129 b 268 24 335 46 272 58 b 331 1 267 7 288 1 z m 381 -290 b 506 -183 447 -290 506 -249 b 376 -76 506 -119 447 -89 l 415 0 l 376 0 l 326 -93 b 343 -117 319 -106 329 -114 b 438 -192 392 -128 438 -147 b 371 -253 438 -225 417 -253 b 290 -229 333 -253 310 -240 b 274 -249 275 -219 261 -235 b 381 -290 289 -268 321 -290 z "},"Ș":{"ha":807,"x_min":0,"x_max":0,"o":"m 350 -15 b 726 253 532 -14 710 82 b 451 556 742 424 583 489 b 244 790 335 617 226 672 b 457 929 257 881 346 929 b 689 757 589 929 656 828 b 732 718 700 729 715 718 b 754 757 751 718 756 738 b 739 910 750 829 743 872 b 704 983 733 968 732 983 b 646 969 685 983 675 969 b 501 983 603 969 558 983 b 153 758 282 983 168 876 b 411 453 126 586 286 515 b 624 208 522 396 650 336 b 371 40 604 111 521 38 b 125 253 207 42 150 154 b 83 294 117 283 100 294 b 60 254 64 294 58 276 b 63 63 57 153 63 96 b 101 -14 64 4 75 -14 b 161 -1 121 -14 132 -1 b 350 -15 203 -1 243 -15 z m 306 -360 b 440 -150 343 -360 440 -271 b 368 -75 440 -107 411 -75 b 301 -147 339 -75 301 -100 b 349 -249 301 -199 349 -215 b 292 -349 349 -294 292 -328 b 306 -360 292 -354 299 -360 z "},"Ț":{"ha":876,"x_min":0,"x_max":0,"o":"m 449 1 b 517 24 494 1 515 7 b 457 115 521 58 463 47 b 460 156 457 129 457 143 l 558 853 b 650 926 565 904 588 926 b 810 808 767 926 779 889 b 854 751 828 765 836 751 b 885 790 878 751 883 772 b 886 931 893 854 892 892 b 782 974 883 958 874 974 l 272 972 b 157 929 182 972 169 957 b 119 789 140 890 131 853 b 139 750 117 769 115 750 b 197 807 157 750 169 764 b 393 924 254 888 276 924 b 463 851 454 924 469 903 l 367 156 b 356 115 364 143 361 129 b 268 24 335 46 272 58 b 331 1 267 7 288 1 z m 328 -360 b 463 -150 365 -360 463 -271 b 390 -75 463 -107 433 -75 b 324 -147 361 -75 324 -100 b 371 -249 324 -199 371 -215 b 314 -349 371 -294 314 -328 b 328 -360 314 -354 321 -360 z "},"a":{"ha":815,"x_min":0,"x_max":0,"o":"m 735 101 b 676 63 718 101 700 63 b 651 111 650 63 650 88 l 681 624 b 657 681 683 664 681 681 b 564 651 629 681 611 651 b 403 681 529 651 460 681 b 49 231 196 681 49 463 b 272 -14 49 65 156 -14 b 560 183 410 -14 507 88 b 633 -10 539 11 579 -10 b 744 88 688 -10 738 39 b 735 101 746 94 742 101 z m 574 396 b 321 69 560 203 440 69 b 150 285 251 69 150 107 b 397 631 149 426 233 631 b 576 436 494 631 585 561 z "},"á":{"ha":815,"x_min":0,"x_max":0,"o":"m 446 753 b 669 856 503 733 651 806 b 625 928 682 893 660 928 b 524 865 594 928 567 901 b 433 775 472 818 438 788 b 446 753 431 769 429 758 z m 735 101 b 676 63 718 101 700 63 b 651 111 650 63 650 88 l 681 624 b 657 681 683 664 681 681 b 564 651 629 681 611 651 b 403 681 529 651 460 681 b 49 231 196 681 49 463 b 272 -14 49 65 156 -14 b 560 183 410 -14 507 88 b 633 -10 539 11 579 -10 b 744 88 688 -10 738 39 b 735 101 746 94 742 101 z m 574 396 b 321 69 560 203 440 69 b 150 285 251 69 150 107 b 397 631 149 426 233 631 b 576 436 494 631 585 561 z "},"ă":{"ha":815,"x_min":0,"x_max":0,"o":"m 471 747 b 650 890 567 747 635 818 b 638 918 654 907 649 918 b 621 903 632 918 629 914 b 482 829 585 858 542 829 b 367 903 422 829 388 860 b 350 918 363 914 357 918 b 332 890 340 918 332 907 b 471 747 326 821 363 747 z m 735 101 b 676 63 718 101 700 63 b 651 111 650 63 650 88 l 681 624 b 657 681 683 664 681 681 b 564 651 629 681 611 651 b 403 681 529 651 460 681 b 49 231 196 681 49 463 b 272 -14 49 65 156 -14 b 560 183 410 -14 507 88 b 633 -10 539 11 579 -10 b 744 88 688 -10 738 39 b 735 101 746 94 742 101 z m 574 396 b 321 69 560 203 440 69 b 150 285 251 69 150 107 b 397 631 149 426 233 631 b 576 436 494 631 585 561 z "},"â":{"ha":815,"x_min":0,"x_max":0,"o":"m 343 751 b 492 835 375 747 450 796 b 619 751 524 796 585 747 b 636 768 635 753 635 761 b 585 864 636 778 611 811 b 511 940 551 931 550 940 b 403 858 472 940 465 932 b 329 768 360 808 332 778 b 343 751 328 761 329 753 z m 735 101 b 676 63 718 101 700 63 b 651 111 650 63 650 88 l 681 624 b 657 681 683 664 681 681 b 564 651 629 681 611 651 b 403 681 529 651 460 681 b 49 231 196 681 49 463 b 272 -14 49 65 156 -14 b 560 183 410 -14 507 88 b 633 -10 539 11 579 -10 b 744 88 688 -10 738 39 b 735 101 746 94 742 101 z m 574 396 b 321 69 560 203 440 69 b 150 285 251 69 150 107 b 397 631 149 426 233 631 b 576 436 494 631 585 561 z "},"ä":{"ha":815,"x_min":0,"x_max":0,"o":"m 356 800 b 435 871 394 800 435 831 b 375 926 435 903 408 926 b 301 849 335 926 301 888 b 356 800 301 819 325 800 z m 543 800 b 622 871 582 800 622 831 b 563 926 622 903 597 926 b 489 849 522 926 489 888 b 543 800 489 819 513 800 z m 735 101 b 676 63 718 101 700 63 b 651 111 650 63 650 88 l 681 624 b 657 681 683 664 681 681 b 564 651 629 681 611 651 b 403 681 529 651 460 681 b 49 231 196 681 49 463 b 272 -14 49 65 156 -14 b 560 183 410 -14 507 88 b 633 -10 539 11 579 -10 b 744 88 688 -10 738 39 b 735 101 746 94 742 101 z m 574 396 b 321 69 560 203 440 69 b 150 285 251 69 150 107 b 397 631 149 426 233 631 b 576 436 494 631 585 561 z "},"à":{"ha":815,"x_min":0,"x_max":0,"o":"m 581 753 b 593 775 597 758 596 769 b 504 865 589 788 554 818 b 386 925 451 908 421 938 b 357 856 361 917 346 889 b 581 753 375 806 524 733 z m 735 101 b 676 63 718 101 700 63 b 651 111 650 63 650 88 l 681 624 b 657 681 683 664 681 681 b 564 651 629 681 611 651 b 403 681 529 651 460 681 b 49 231 196 681 49 463 b 272 -14 49 65 156 -14 b 560 183 410 -14 507 88 b 633 -10 539 11 579 -10 b 744 88 688 -10 738 39 b 735 101 746 94 742 101 z m 574 396 b 321 69 560 203 440 69 b 150 285 251 69 150 107 b 397 631 149 426 233 631 b 576 436 494 631 585 561 z "},"ā":{"ha":815,"x_min":0,"x_max":0,"o":"m 631 774 b 667 803 658 774 663 783 b 644 832 671 822 674 832 l 328 832 b 290 804 299 832 294 822 b 313 774 286 783 283 774 z m 735 101 b 676 63 718 101 700 63 b 651 111 650 63 650 88 l 681 624 b 657 681 683 664 681 681 b 564 651 629 681 611 651 b 403 681 529 651 460 681 b 49 231 196 681 49 463 b 272 -14 49 65 156 -14 b 560 183 410 -14 507 88 b 633 -10 539 11 579 -10 b 744 88 688 -10 738 39 b 735 101 746 94 742 101 z m 574 396 b 321 69 560 203 440 69 b 150 285 251 69 150 107 b 397 631 149 426 233 631 b 576 436 494 631 585 561 z "},"ą":{"ha":815,"x_min":0,"x_max":0,"o":"m 747 -190 b 685 -204 731 -197 704 -204 b 601 -128 631 -204 601 -176 b 660 -6 601 -93 618 -50 b 744 88 703 7 739 47 b 735 101 746 94 742 101 b 676 63 718 101 700 63 b 651 111 650 63 650 88 l 681 624 b 657 681 683 664 681 681 b 564 651 629 681 611 651 b 403 681 529 651 460 681 b 49 231 196 681 49 463 b 272 -14 49 65 156 -14 b 560 183 410 -14 507 88 b 614 -8 540 32 569 -3 b 528 -139 563 -47 528 -89 b 660 -246 528 -210 590 -246 b 764 -212 689 -246 735 -237 b 747 -190 776 -201 769 -181 z m 574 396 b 321 69 560 203 440 69 b 150 285 251 69 150 107 b 397 631 149 426 233 631 b 576 436 494 631 585 561 z "},"å":{"ha":815,"x_min":0,"x_max":0,"o":"m 475 744 b 622 868 547 744 613 792 b 515 988 632 940 585 988 b 367 864 442 988 376 939 b 475 744 357 792 404 744 z m 503 944 b 568 871 544 944 568 914 b 489 790 564 826 535 790 b 421 865 446 790 421 821 b 503 944 425 913 456 944 z m 735 101 b 676 63 718 101 700 63 b 651 111 650 63 650 88 l 681 624 b 657 681 683 664 681 681 b 564 651 629 681 611 651 b 403 681 529 651 460 681 b 49 231 196 681 49 463 b 272 -14 49 65 156 -14 b 560 183 410 -14 507 88 b 633 -10 539 11 579 -10 b 744 88 688 -10 738 39 b 735 101 746 94 742 101 z m 574 396 b 321 69 560 203 440 69 b 150 285 251 69 150 107 b 397 631 149 426 233 631 b 576 436 494 631 585 561 z "},"ã":{"ha":815,"x_min":0,"x_max":0,"o":"m 347 775 b 400 815 349 800 367 815 b 614 757 465 815 550 757 b 714 833 667 757 707 785 b 685 867 721 881 689 899 b 632 826 681 840 667 826 b 417 885 583 826 508 885 b 315 807 363 885 322 856 b 347 775 308 761 342 742 z m 735 101 b 676 63 718 101 700 63 b 651 111 650 63 650 88 l 681 624 b 657 681 683 664 681 681 b 564 651 629 681 611 651 b 403 681 529 651 460 681 b 49 231 196 681 49 463 b 272 -14 49 65 156 -14 b 560 183 410 -14 507 88 b 633 -10 539 11 579 -10 b 744 88 688 -10 738 39 b 735 101 746 94 742 101 z m 574 396 b 321 69 560 203 440 69 b 150 285 251 69 150 107 b 397 631 149 426 233 631 b 576 436 494 631 585 561 z "},"æ":{"ha":1224,"x_min":0,"x_max":0,"o":"m 1100 176 b 864 64 1040 121 964 64 b 676 217 767 64 696 131 b 1156 522 963 258 1156 356 b 960 681 1156 625 1069 681 b 686 560 846 681 753 631 b 417 681 608 651 494 681 b 50 253 194 681 50 446 b 276 -14 50 81 158 -14 b 569 206 411 -14 526 92 b 831 -14 596 57 715 -14 b 1133 157 978 -14 1096 93 b 1100 176 1153 189 1124 200 z m 324 69 b 149 304 256 69 149 107 b 413 624 149 429 236 624 b 590 524 524 624 593 546 l 572 396 b 324 69 544 207 443 69 z m 918 624 b 1046 504 994 624 1046 576 b 718 274 1046 396 935 307 b 674 303 681 268 674 288 b 918 624 674 490 797 624 z "},"b":{"ha":775,"x_min":0,"x_max":0,"o":"m 515 675 b 213 490 379 675 276 589 l 297 960 b 276 986 300 975 293 986 b 204 968 265 986 257 988 b 135 922 144 946 135 935 b 179 824 135 888 193 903 l 99 344 b 315 -18 86 272 51 -4 b 726 449 522 -29 726 188 b 515 675 726 561 650 675 z m 342 33 b 189 260 256 33 174 99 b 444 594 208 464 319 594 b 603 418 542 594 599 529 b 342 33 610 231 510 33 z "},"":{"ha":775,"x_min":0,"x_max":0,"o":"m 515 675 b 213 490 379 675 276 589 l 297 960 b 276 986 300 975 293 986 b 204 968 265 986 257 988 b 135 922 144 946 135 935 b 179 824 135 888 193 903 l 99 344 b 315 -18 86 272 51 -4 b 726 449 522 -29 726 188 b 515 675 726 561 650 675 z m 342 33 b 189 260 256 33 174 99 b 444 594 208 464 319 594 b 603 418 542 594 599 529 b 342 33 610 231 510 33 z "},"c":{"ha":742,"x_min":0,"x_max":0,"o":"m 351 -14 b 654 146 500 -14 617 82 b 619 167 669 176 646 190 b 376 67 561 110 482 67 b 154 310 240 67 154 169 b 399 626 154 464 247 626 b 544 442 536 626 554 504 b 597 376 539 392 568 375 b 672 446 631 376 661 401 b 436 681 692 540 624 681 b 53 274 222 681 53 494 b 351 -14 53 113 171 -14 z "},"ć":{"ha":742,"x_min":0,"x_max":0,"o":"m 403 753 b 626 856 460 733 608 806 b 582 928 639 893 617 928 b 481 865 551 928 524 901 b 390 775 429 818 394 788 b 403 753 388 769 386 758 z m 351 -14 b 654 146 500 -14 617 82 b 619 167 669 176 646 190 b 376 67 561 110 482 67 b 154 310 240 67 154 169 b 399 626 154 464 247 626 b 544 442 536 626 554 504 b 597 376 539 392 568 375 b 672 446 631 376 661 401 b 436 681 692 540 624 681 b 53 274 222 681 53 494 b 351 -14 53 113 171 -14 z "},"č":{"ha":742,"x_min":0,"x_max":0,"o":"m 443 764 b 539 840 482 764 486 774 b 617 936 579 893 614 926 b 604 953 618 943 619 951 b 454 869 571 956 496 908 b 328 953 422 908 361 956 b 310 936 314 951 311 943 b 358 846 311 926 329 896 b 443 764 399 772 404 764 z m 351 -14 b 654 146 500 -14 617 82 b 619 167 669 176 646 190 b 376 67 561 110 482 67 b 154 310 240 67 154 169 b 399 626 154 464 247 626 b 544 442 536 626 554 504 b 597 376 539 392 568 375 b 672 446 631 376 661 401 b 436 681 692 540 624 681 b 53 274 222 681 53 494 b 351 -14 53 113 171 -14 z "},"ç":{"ha":742,"x_min":0,"x_max":0,"o":"m 597 376 b 672 446 631 376 661 401 b 436 681 692 540 624 681 b 53 274 222 681 53 494 b 311 -11 53 125 154 6 l 268 -93 b 285 -117 261 -106 271 -114 b 379 -192 333 -128 379 -147 b 313 -253 379 -225 358 -253 b 232 -229 275 -253 251 -240 b 215 -249 217 -219 203 -235 b 322 -290 231 -268 263 -290 b 447 -183 389 -290 447 -249 b 318 -76 447 -119 389 -89 l 350 -14 l 351 -14 b 654 146 500 -14 617 82 b 619 167 669 176 646 190 b 376 67 561 110 482 67 b 154 310 240 67 154 169 b 399 626 154 464 247 626 b 544 442 536 626 554 504 b 597 376 539 392 568 375 z "},"ċ":{"ha":742,"x_min":0,"x_max":0,"o":"m 414 785 b 519 869 458 781 514 829 b 469 933 522 896 501 929 b 361 846 422 942 365 890 b 414 785 357 811 383 788 z m 351 -14 b 654 146 500 -14 617 82 b 619 167 669 176 646 190 b 376 67 561 110 482 67 b 154 310 240 67 154 169 b 399 626 154 464 247 626 b 544 442 536 626 554 504 b 597 376 539 392 568 375 b 672 446 631 376 661 401 b 436 681 692 540 624 681 b 53 274 222 681 53 494 b 351 -14 53 113 171 -14 z "},"d":{"ha":814,"x_min":0,"x_max":0,"o":"m 751 960 b 729 986 754 975 746 986 b 656 968 718 986 708 988 b 586 922 596 946 586 935 b 631 826 586 896 642 899 l 601 622 b 431 681 544 660 489 681 b 49 240 225 681 49 481 b 283 -14 49 90 131 -14 b 529 131 393 -14 482 61 b 614 -10 511 17 553 -10 b 724 88 667 -10 717 39 b 714 101 726 94 722 101 b 653 63 697 101 679 63 b 631 111 629 63 626 88 z m 574 400 b 324 67 551 190 433 67 b 154 265 213 67 158 143 b 406 622 149 425 251 622 b 574 400 503 622 590 557 z "},"ď":{"ha":814,"x_min":0,"x_max":0,"o":"m 729 986 b 656 968 718 986 708 988 b 586 922 596 946 586 935 b 631 826 586 896 642 899 l 601 622 b 431 681 544 660 489 681 b 49 240 225 681 49 481 b 283 -14 49 90 131 -14 b 529 131 393 -14 482 61 b 614 -10 511 17 553 -10 b 724 88 667 -10 717 39 b 714 101 726 94 722 101 b 653 63 697 101 679 63 b 631 111 629 63 626 88 l 751 960 b 729 986 754 975 746 986 z m 914 979 b 851 917 886 979 860 958 l 806 711 b 819 690 803 700 807 690 b 950 924 853 690 944 881 b 914 979 956 967 936 979 z m 574 400 b 324 67 551 190 433 67 b 154 265 213 67 158 143 b 406 622 149 425 251 622 b 574 400 503 622 590 557 z "},"đ":{"ha":814,"x_min":0,"x_max":0,"o":"m 729 986 b 656 968 718 986 708 988 b 586 922 596 946 586 935 b 631 826 586 896 642 899 l 621 763 l 486 763 b 465 740 469 763 465 756 b 486 717 465 725 469 717 l 615 717 l 601 622 b 431 681 544 660 489 681 b 49 240 225 681 49 481 b 283 -14 49 90 131 -14 b 529 131 393 -14 482 61 b 614 -10 511 17 553 -10 b 724 88 667 -10 717 39 b 714 101 726 94 722 101 b 653 63 697 101 679 63 b 631 111 629 63 626 88 l 717 717 l 726 717 b 747 740 743 717 747 725 b 726 763 747 756 743 763 l 724 763 l 751 960 b 729 986 754 975 746 986 z m 574 400 b 324 67 551 190 433 67 b 154 265 213 67 158 143 b 406 622 149 425 251 622 b 574 400 503 622 590 557 z "},"ð":{"ha":772,"x_min":0,"x_max":0,"o":"m 611 907 b 625 938 626 913 629 924 b 600 951 624 951 618 958 l 513 921 b 422 996 483 950 453 975 b 389 992 411 1004 399 1001 b 392 960 381 982 381 972 b 446 897 410 940 428 919 l 364 869 b 347 842 346 864 343 856 b 374 826 350 826 357 822 l 472 860 b 574 646 515 797 550 725 b 439 681 535 668 489 681 b 50 251 243 688 50 479 b 318 -14 50 103 157 -14 b 721 419 543 -14 721 190 b 546 885 721 613 643 774 z m 340 40 b 149 290 213 40 147 154 b 424 635 149 443 257 635 b 619 400 568 635 619 522 b 340 40 619 228 518 40 z "},"e":{"ha":711,"x_min":0,"x_max":0,"o":"m 588 176 b 351 64 528 121 451 64 b 164 217 254 64 183 131 b 644 522 450 258 644 356 b 447 681 644 625 557 681 b 51 271 197 681 51 442 b 319 -14 51 78 188 -14 b 621 157 465 -14 583 93 b 588 176 640 189 611 200 z m 407 624 b 535 504 482 624 535 576 b 207 274 535 396 422 307 b 163 303 168 268 163 288 b 407 624 163 490 285 624 z "},"é":{"ha":711,"x_min":0,"x_max":0,"o":"m 374 756 b 597 858 431 736 579 808 b 553 931 610 896 588 931 b 451 868 522 931 494 904 b 361 778 400 821 365 790 b 374 756 358 772 357 761 z m 588 176 b 351 64 528 121 451 64 b 164 217 254 64 183 131 b 644 522 450 258 644 356 b 447 681 644 625 557 681 b 51 271 197 681 51 442 b 319 -14 51 78 188 -14 b 621 157 465 -14 583 93 b 588 176 640 189 611 200 z m 407 624 b 535 504 482 624 535 576 b 207 274 535 396 422 307 b 163 303 168 268 163 288 b 407 624 163 490 285 624 z "},"ě":{"ha":711,"x_min":0,"x_max":0,"o":"m 414 767 b 510 843 453 767 457 776 b 588 939 550 896 585 929 b 575 956 589 946 590 954 b 425 872 542 958 467 911 b 299 956 393 911 332 958 b 281 939 285 954 282 946 b 329 849 282 929 300 899 b 414 767 369 775 375 767 z m 588 176 b 351 64 528 121 451 64 b 164 217 254 64 183 131 b 644 522 450 258 644 356 b 447 681 644 625 557 681 b 51 271 197 681 51 442 b 319 -14 51 78 188 -14 b 621 157 465 -14 583 93 b 588 176 640 189 611 200 z m 407 624 b 535 504 482 624 535 576 b 207 274 535 396 422 307 b 163 303 168 268 163 288 b 407 624 163 490 285 624 z "},"ê":{"ha":711,"x_min":0,"x_max":0,"o":"m 271 754 b 419 838 303 750 378 799 b 547 754 451 799 513 750 b 564 771 563 756 563 764 b 513 867 564 781 539 814 b 439 943 479 933 478 943 b 331 861 400 943 393 935 b 257 771 288 811 260 781 b 271 754 256 764 257 756 z m 588 176 b 351 64 528 121 451 64 b 164 217 254 64 183 131 b 644 522 450 258 644 356 b 447 681 644 625 557 681 b 51 271 197 681 51 442 b 319 -14 51 78 188 -14 b 621 157 465 -14 583 93 b 588 176 640 189 611 200 z m 407 624 b 535 504 482 624 535 576 b 207 274 535 396 422 307 b 163 303 168 268 163 288 b 407 624 163 490 285 624 z "},"ë":{"ha":711,"x_min":0,"x_max":0,"o":"m 297 803 b 376 874 336 803 376 833 b 317 929 376 906 350 929 b 243 851 276 929 243 890 b 297 803 243 822 267 803 z m 485 803 b 564 874 524 803 564 833 b 504 929 564 906 539 929 b 431 851 464 929 431 890 b 485 803 431 822 454 803 z m 588 176 b 351 64 528 121 451 64 b 164 217 254 64 183 131 b 644 522 450 258 644 356 b 447 681 644 625 557 681 b 51 271 197 681 51 442 b 319 -14 51 78 188 -14 b 621 157 465 -14 583 93 b 588 176 640 189 611 200 z m 407 624 b 535 504 482 624 535 576 b 207 274 535 396 422 307 b 163 303 168 268 163 288 b 407 624 163 490 285 624 z "},"ė":{"ha":711,"x_min":0,"x_max":0,"o":"m 407 785 b 513 869 451 781 507 829 b 463 933 515 896 494 929 b 354 846 415 942 358 890 b 407 785 350 811 376 788 z m 588 176 b 351 64 528 121 451 64 b 164 217 254 64 183 131 b 644 522 450 258 644 356 b 447 681 644 625 557 681 b 51 271 197 681 51 442 b 319 -14 51 78 188 -14 b 621 157 465 -14 583 93 b 588 176 640 189 611 200 z m 407 624 b 535 504 482 624 535 576 b 207 274 535 396 422 307 b 163 303 168 268 163 288 b 407 624 163 490 285 624 z "},"è":{"ha":711,"x_min":0,"x_max":0,"o":"m 508 756 b 521 778 525 761 524 772 b 432 868 517 790 482 821 b 314 928 379 911 349 940 b 285 858 289 919 274 892 b 508 756 303 808 451 736 z m 588 176 b 351 64 528 121 451 64 b 164 217 254 64 183 131 b 644 522 450 258 644 356 b 447 681 644 625 557 681 b 51 271 197 681 51 442 b 319 -14 51 78 188 -14 b 621 157 465 -14 583 93 b 588 176 640 189 611 200 z m 407 624 b 535 504 482 624 535 576 b 207 274 535 396 422 307 b 163 303 168 268 163 288 b 407 624 163 490 285 624 z "},"ē":{"ha":711,"x_min":0,"x_max":0,"o":"m 558 776 b 594 806 586 776 590 786 b 572 835 599 825 601 835 l 256 835 b 218 807 226 835 222 825 b 240 776 214 786 211 776 z m 588 176 b 351 64 528 121 451 64 b 164 217 254 64 183 131 b 644 522 450 258 644 356 b 447 681 644 625 557 681 b 51 271 197 681 51 442 b 319 -14 51 78 188 -14 b 621 157 465 -14 583 93 b 588 176 640 189 611 200 z m 407 624 b 535 504 482 624 535 576 b 207 274 535 396 422 307 b 163 303 168 268 163 288 b 407 624 163 490 285 624 z "},"ę":{"ha":711,"x_min":0,"x_max":0,"o":"m 588 176 b 351 64 528 121 451 64 b 164 217 254 64 183 131 b 644 522 450 258 644 356 b 447 681 644 625 557 681 b 51 271 197 681 51 442 b 319 -14 51 78 188 -14 b 344 -12 328 -14 336 -14 b 257 -144 293 -51 257 -93 b 389 -251 257 -215 319 -251 b 493 -218 418 -251 464 -243 b 476 -196 506 -207 499 -186 b 414 -210 460 -203 433 -210 b 331 -133 360 -210 331 -182 b 396 -4 331 -96 349 -51 b 621 157 506 24 590 104 b 588 176 640 189 611 200 z m 407 624 b 535 504 482 624 535 576 b 207 274 535 396 422 307 b 163 303 168 268 163 288 b 407 624 163 490 285 624 z "},"f":{"ha":472,"x_min":0,"x_max":0,"o":"m 467 986 b 206 668 338 986 239 893 l 199 621 l 128 603 b 85 568 106 599 92 594 b 122 535 76 536 89 526 l 189 551 l 110 -6 b 82 -103 106 -35 97 -85 b 121 -139 60 -131 75 -156 l 164 -122 b 192 -97 179 -117 189 -114 l 288 567 l 417 589 b 479 643 458 596 469 594 b 431 669 483 669 476 679 l 299 642 l 299 643 b 292 786 289 640 278 694 b 410 926 307 885 358 926 b 486 831 463 926 479 896 b 532 786 489 803 504 786 b 596 847 565 786 592 817 b 467 986 606 913 569 986 z "},"g":{"ha":694,"x_min":0,"x_max":0,"o":"m 693 736 b 651 782 694 765 671 782 b 608 751 632 782 621 768 b 506 674 576 707 538 674 b 408 679 475 674 460 679 l 407 679 b 81 410 231 679 81 550 b 164 256 81 350 108 293 b 25 135 67 228 31 168 b 94 14 17 72 56 36 b -18 -117 24 -17 -12 -74 b 265 -294 -36 -243 108 -294 b 685 -68 525 -294 667 -197 b 497 86 697 14 638 86 b 303 78 454 86 379 78 b 138 169 217 78 128 96 b 197 236 142 201 178 229 b 339 208 235 218 282 208 b 656 476 508 208 656 318 b 581 626 656 532 631 588 b 693 736 639 644 690 688 z m 356 256 b 185 422 247 256 185 328 b 396 636 185 540 276 636 b 553 467 497 636 553 560 b 356 256 553 357 474 256 z m 231 -10 b 436 -3 322 -10 392 -6 b 578 -104 568 7 585 -57 b 303 -247 565 -203 440 -247 b 85 -111 163 -247 74 -201 b 231 -10 96 -46 168 -10 z "},"ğ":{"ha":694,"x_min":0,"x_max":0,"o":"m 392 747 b 571 890 488 747 556 818 b 558 918 575 907 569 918 b 542 903 553 918 550 914 b 403 829 506 858 463 829 b 288 903 343 829 308 860 b 271 918 283 914 278 918 b 253 890 261 918 253 907 b 392 747 247 821 283 747 z m 693 736 b 651 782 694 765 671 782 b 608 751 632 782 621 768 b 506 674 576 707 538 674 b 408 679 475 674 460 679 l 407 679 b 81 410 231 679 81 550 b 164 256 81 350 108 293 b 25 135 67 228 31 168 b 94 14 17 72 56 36 b -18 -117 24 -17 -12 -74 b 265 -294 -36 -243 108 -294 b 685 -68 525 -294 667 -197 b 497 86 697 14 638 86 b 303 78 454 86 379 78 b 138 169 217 78 128 96 b 197 236 142 201 178 229 b 339 208 235 218 282 208 b 656 476 508 208 656 318 b 581 626 656 532 631 588 b 693 736 639 644 690 688 z m 356 256 b 185 422 247 256 185 328 b 396 636 185 540 276 636 b 553 467 497 636 553 560 b 356 256 553 357 474 256 z m 231 -10 b 436 -3 322 -10 392 -6 b 578 -104 568 7 585 -57 b 303 -247 565 -203 440 -247 b 85 -111 163 -247 74 -201 b 231 -10 96 -46 168 -10 z "},"ġ":{"ha":694,"x_min":0,"x_max":0,"o":"m 396 788 b 501 872 440 783 496 832 b 451 936 504 899 483 932 b 343 849 404 944 347 893 b 396 788 339 814 365 790 z m 265 -294 b 685 -68 525 -294 667 -197 b 497 86 697 14 638 86 b 303 78 454 86 379 78 b 138 169 217 78 128 96 b 197 236 142 201 178 229 b 339 208 235 218 282 208 b 656 476 508 208 656 318 b 581 626 656 532 631 588 b 693 736 639 644 690 688 b 651 782 694 765 671 782 b 608 751 632 782 621 768 b 506 674 576 707 538 674 b 408 679 475 674 460 679 l 407 679 b 81 410 231 679 81 550 b 164 256 81 350 108 293 b 25 135 67 228 31 168 b 94 14 17 72 56 36 b -18 -117 24 -17 -12 -74 b 265 -294 -36 -243 108 -294 z m 356 256 b 185 422 247 256 185 328 b 396 636 185 540 276 636 b 553 467 497 636 553 560 b 356 256 553 357 474 256 z m 303 -247 b 85 -111 163 -247 74 -201 b 231 -10 96 -46 168 -10 b 436 -3 322 -10 392 -6 b 578 -104 568 7 585 -57 b 303 -247 565 -203 440 -247 z "},"h":{"ha":833,"x_min":0,"x_max":0,"o":"m 746 101 b 685 63 729 101 711 63 b 663 111 661 63 661 88 l 679 456 b 522 675 688 606 624 675 b 215 435 403 675 290 581 l 297 958 b 274 985 300 975 290 985 b 203 967 264 985 256 986 b 133 921 143 944 133 933 b 179 832 133 894 189 896 l 60 17 b 93 -14 57 -1 68 -19 l 131 -6 b 158 17 140 -3 156 4 l 188 204 b 471 596 217 393 340 596 b 581 449 553 596 585 532 l 567 113 b 646 -10 564 46 572 -10 b 757 88 699 -10 749 39 b 746 101 758 94 754 101 z "},"ħ":{"ha":833,"x_min":0,"x_max":0,"o":"m 746 101 b 685 63 729 101 711 63 b 663 111 661 63 661 88 l 679 456 b 522 675 688 606 624 675 b 215 435 403 675 290 581 l 260 717 l 335 717 b 356 740 351 717 356 725 b 335 763 356 756 351 763 l 267 763 l 297 958 b 274 985 300 975 290 985 b 203 967 264 985 256 986 b 133 921 143 944 133 933 b 179 832 133 894 189 896 l 169 763 l 94 763 b 74 740 78 763 74 756 b 94 717 74 725 78 717 l 163 717 l 60 17 b 93 -14 57 -1 68 -19 l 131 -6 b 158 17 140 -3 156 4 l 188 204 b 471 596 217 393 340 596 b 581 449 553 596 585 532 l 567 113 b 646 -10 564 46 572 -10 b 757 88 699 -10 749 39 b 746 101 758 94 754 101 z "},"i":{"ha":368,"x_min":0,"x_max":0,"o":"m 231 799 b 336 883 275 794 331 843 b 286 947 339 910 318 943 b 178 860 239 956 182 904 b 231 799 174 825 200 801 z m 172 -10 b 283 88 225 -10 275 39 b 272 101 285 94 281 101 b 211 63 257 101 238 63 b 190 111 188 63 186 88 l 267 647 b 243 675 269 664 260 675 b 178 656 233 675 231 675 b 108 610 118 633 108 622 b 153 515 108 581 164 583 l 92 113 b 172 -10 82 46 99 -10 z "},"ı":{"ha":368,"x_min":0,"x_max":0,"o":"m 172 -10 b 283 88 225 -10 275 39 b 272 101 285 94 281 101 b 211 63 257 101 238 63 b 190 111 188 63 186 88 l 267 647 b 243 675 269 664 260 675 b 178 656 233 675 231 675 b 108 610 118 633 108 622 b 153 515 108 581 164 583 l 92 113 b 172 -10 82 46 99 -10 z "},"í":{"ha":368,"x_min":0,"x_max":0,"o":"m 185 753 b 408 856 242 733 390 806 b 364 928 421 893 399 928 b 263 865 333 928 306 901 b 172 775 211 818 176 788 b 185 753 169 769 168 758 z m 172 -10 b 283 88 225 -10 275 39 b 272 101 285 94 281 101 b 211 63 257 101 238 63 b 190 111 188 63 186 88 l 267 647 b 243 675 269 664 260 675 b 178 656 233 675 231 675 b 108 610 118 633 108 622 b 153 515 108 581 164 583 l 92 113 b 172 -10 82 46 99 -10 z "},"î":{"ha":368,"x_min":0,"x_max":0,"o":"m 82 751 b 231 835 114 747 189 796 b 358 751 263 796 324 747 b 375 768 374 753 374 761 b 324 864 375 778 350 811 b 250 940 290 931 289 940 b 142 858 211 940 204 932 b 68 768 99 808 71 778 b 82 751 67 761 68 753 z m 172 -10 b 283 88 225 -10 275 39 b 272 101 285 94 281 101 b 211 63 257 101 238 63 b 190 111 188 63 186 88 l 267 647 b 243 675 269 664 260 675 b 178 656 233 675 231 675 b 108 610 118 633 108 622 b 153 515 108 581 164 583 l 92 113 b 172 -10 82 46 99 -10 z "},"ï":{"ha":368,"x_min":0,"x_max":0,"o":"m 94 800 b 174 871 133 800 174 831 b 114 926 174 903 147 926 b 40 849 74 926 40 888 b 94 800 40 819 64 800 z m 282 800 b 361 871 321 800 361 831 b 301 926 361 903 336 926 b 228 849 261 926 228 888 b 282 800 228 819 251 800 z m 172 -10 b 283 88 225 -10 275 39 b 272 101 285 94 281 101 b 211 63 257 101 238 63 b 190 111 188 63 186 88 l 267 647 b 243 675 269 664 260 675 b 178 656 233 675 231 675 b 108 610 118 633 108 622 b 153 515 108 581 164 583 l 92 113 b 172 -10 82 46 99 -10 z "},"ì":{"ha":368,"x_min":0,"x_max":0,"o":"m 319 753 b 332 775 336 758 335 769 b 243 865 328 788 293 818 b 125 925 190 908 160 938 b 96 856 100 917 85 889 b 319 753 114 806 263 733 z m 172 -10 b 283 88 225 -10 275 39 b 272 101 285 94 281 101 b 211 63 257 101 238 63 b 190 111 188 63 186 88 l 267 647 b 243 675 269 664 260 675 b 178 656 233 675 231 675 b 108 610 118 633 108 622 b 153 515 108 581 164 583 l 92 113 b 172 -10 82 46 99 -10 z "},"ī":{"ha":368,"x_min":0,"x_max":0,"o":"m 369 774 b 406 803 397 774 401 783 b 383 832 410 822 413 832 l 67 832 b 29 804 38 832 33 822 b 51 774 25 783 22 774 z m 172 -10 b 283 88 225 -10 275 39 b 272 101 285 94 281 101 b 211 63 257 101 238 63 b 190 111 188 63 186 88 l 267 647 b 243 675 269 664 260 675 b 178 656 233 675 231 675 b 108 610 118 633 108 622 b 153 515 108 581 164 583 l 92 113 b 172 -10 82 46 99 -10 z "},"į":{"ha":368,"x_min":0,"x_max":0,"o":"m 286 947 b 178 860 239 956 182 904 b 231 799 174 825 200 801 b 336 883 275 794 331 843 b 286 947 339 910 318 943 z m 276 -199 b 214 -212 260 -206 233 -212 b 131 -136 160 -212 131 -185 b 197 -7 131 -99 150 -54 b 283 88 240 6 276 47 b 272 101 285 94 281 101 b 211 63 257 101 238 63 b 190 111 188 63 186 88 l 267 647 b 243 675 269 664 260 675 b 178 656 233 675 231 675 b 108 610 118 633 108 622 b 153 515 108 581 164 583 l 92 113 b 154 -8 83 51 96 0 b 57 -147 97 -50 57 -93 b 189 -254 57 -218 119 -254 b 293 -221 218 -254 264 -246 b 276 -199 306 -210 299 -189 z "},"j":{"ha":383,"x_min":0,"x_max":0,"o":"m 250 799 b 356 883 294 794 350 843 b 306 947 358 910 338 943 b 197 860 258 956 201 904 b 250 799 193 825 219 801 z m -6 -293 b 174 -112 93 -293 157 -231 l 289 647 b 265 675 290 664 282 675 b 193 656 254 675 246 675 b 124 610 133 633 124 622 b 147 583 124 600 131 593 b 169 515 175 567 174 543 l 86 -49 b -42 -242 69 -162 51 -224 b -6 -293 -96 -253 -89 -293 z "},"ȷ":{"ha":383,"x_min":0,"x_max":0,"o":"m -6 -293 b 174 -112 93 -293 157 -231 l 289 647 b 265 675 290 664 282 675 b 193 656 254 675 246 675 b 124 610 133 633 124 622 b 147 583 124 600 131 593 b 169 515 175 567 174 543 l 86 -49 b -42 -242 69 -162 51 -224 b -6 -293 -96 -253 -89 -293 z "},"k":{"ha":738,"x_min":0,"x_max":0,"o":"m 663 93 b 603 61 644 93 629 61 b 403 299 524 61 436 219 b 651 551 558 350 651 439 b 507 679 651 643 578 679 b 229 493 403 679 299 600 l 297 958 b 274 985 300 975 290 985 b 203 967 264 985 256 986 b 133 921 143 944 133 933 b 179 832 133 894 189 896 l 58 17 b 92 -14 56 -1 67 -19 l 131 -6 b 158 17 140 -3 157 4 l 193 256 b 324 276 240 260 283 267 b 558 -14 361 169 436 -14 b 675 79 628 -14 675 56 b 663 93 675 88 671 93 z m 206 333 b 461 594 232 439 340 594 b 551 518 517 594 551 560 b 201 308 551 417 419 328 z "},"l":{"ha":344,"x_min":0,"x_max":0,"o":"m 156 -10 b 268 88 210 -10 260 39 b 257 101 269 94 265 101 b 196 63 242 101 222 63 b 174 111 172 63 171 88 l 297 960 b 275 986 300 975 292 986 b 203 968 264 986 257 988 b 135 922 143 946 135 935 b 182 835 135 896 190 899 l 78 113 b 156 -10 67 49 85 -10 z "},"ĺ":{"ha":344,"x_min":0,"x_max":0,"o":"m 244 1022 b 468 1125 301 1003 450 1075 b 424 1197 481 1163 458 1197 b 322 1135 393 1197 365 1171 b 232 1044 271 1088 236 1057 b 244 1022 229 1039 228 1028 z m 156 -10 b 268 88 210 -10 260 39 b 257 101 269 94 265 101 b 196 63 242 101 222 63 b 174 111 172 63 171 88 l 297 960 b 275 986 300 975 292 986 b 203 968 264 986 257 988 b 135 922 143 946 135 935 b 182 835 135 896 190 899 l 78 113 b 156 -10 67 49 85 -10 z "},"ľ":{"ha":344,"x_min":0,"x_max":0,"o":"m 156 -10 b 268 88 210 -10 260 39 b 257 101 269 94 265 101 b 196 63 242 101 222 63 b 174 111 172 63 171 88 l 297 960 b 275 986 300 975 292 986 b 203 968 264 986 257 988 b 135 922 143 946 135 935 b 182 835 135 896 190 899 l 78 113 b 156 -10 67 49 85 -10 z m 390 678 b 521 911 424 678 515 868 b 485 965 526 953 506 965 b 422 903 457 965 431 946 b 375 699 418 885 386 743 b 390 678 374 688 378 678 z "},"ł":{"ha":344,"x_min":0,"x_max":0,"o":"m 340 553 b 311 561 335 565 326 569 l 232 515 l 297 960 b 275 986 300 975 292 986 b 203 968 264 986 257 988 b 135 922 143 946 135 935 b 182 835 135 896 190 899 l 126 454 l 19 392 b 11 364 3 383 4 375 b 40 354 18 350 26 344 l 119 400 l 78 113 b 156 -10 67 49 85 -10 b 268 88 210 -10 260 39 b 257 101 269 94 265 101 b 196 63 242 101 222 63 b 174 111 172 63 171 88 l 225 460 l 333 522 b 340 553 347 531 349 542 z "},"m":{"ha":1318,"x_min":0,"x_max":0,"o":"m 1231 101 b 1169 63 1215 101 1196 63 b 1147 111 1146 63 1147 88 l 1164 456 b 1008 675 1172 606 1110 675 b 708 453 885 675 776 579 b 536 675 724 597 661 675 b 235 449 414 675 296 558 l 263 647 b 239 675 265 664 256 675 b 174 656 229 675 217 675 b 106 606 118 629 106 625 b 150 515 106 578 160 586 l 76 10 b 103 -14 74 -10 85 -19 l 151 0 b 174 26 165 4 172 11 l 203 204 b 503 600 235 393 357 600 b 606 399 596 600 626 533 l 549 13 b 575 -12 546 -8 557 -18 l 624 3 b 646 28 638 6 643 13 l 675 204 b 956 600 707 393 825 600 b 1068 449 1039 600 1072 532 l 1050 113 b 1131 -10 1047 46 1057 -10 b 1242 88 1183 -10 1233 39 b 1231 101 1243 94 1239 101 z "},"n":{"ha":850,"x_min":0,"x_max":0,"o":"m 763 101 b 701 63 746 101 728 63 b 679 111 678 63 678 88 l 696 456 b 539 675 704 606 640 675 b 233 438 419 675 310 581 l 264 647 b 240 675 267 664 257 675 b 176 656 231 675 218 675 b 107 606 119 629 107 625 b 151 515 107 578 163 586 l 79 15 b 106 -10 76 -6 86 -15 l 153 6 b 175 31 167 10 172 15 l 204 204 b 488 596 236 393 357 596 b 597 449 569 596 601 532 l 583 113 b 663 -10 581 46 589 -10 b 774 88 715 -10 765 39 b 763 101 775 94 771 101 z "},"ń":{"ha":850,"x_min":0,"x_max":0,"o":"m 367 729 b 590 832 424 710 572 782 b 546 904 603 869 581 904 b 444 842 515 904 488 878 b 354 751 393 794 358 764 b 367 729 351 746 350 735 z m 763 101 b 701 63 746 101 728 63 b 679 111 678 63 678 88 l 696 456 b 539 675 704 606 640 675 b 233 438 419 675 310 581 l 264 647 b 240 675 267 664 257 675 b 176 656 231 675 218 675 b 107 606 119 629 107 625 b 151 515 107 578 163 586 l 79 15 b 106 -10 76 -6 86 -15 l 153 6 b 175 31 167 10 172 15 l 204 204 b 488 596 236 393 357 596 b 597 449 569 596 601 532 l 583 113 b 663 -10 581 46 589 -10 b 774 88 715 -10 765 39 b 763 101 775 94 771 101 z "},"ň":{"ha":850,"x_min":0,"x_max":0,"o":"m 407 740 b 503 817 446 740 450 750 b 581 913 543 869 578 903 b 568 929 582 919 583 928 b 418 846 535 932 460 885 b 292 929 386 885 325 932 b 274 913 278 928 275 919 b 322 822 275 903 293 872 b 407 740 363 749 368 740 z m 763 101 b 701 63 746 101 728 63 b 679 111 678 63 678 88 l 696 456 b 539 675 704 606 640 675 b 233 438 419 675 310 581 l 264 647 b 240 675 267 664 257 675 b 176 656 231 675 218 675 b 107 606 119 629 107 625 b 151 515 107 578 163 586 l 79 15 b 106 -10 76 -6 86 -15 l 153 6 b 175 31 167 10 172 15 l 204 204 b 488 596 236 393 357 596 b 597 449 569 596 601 532 l 583 113 b 663 -10 581 46 589 -10 b 774 88 715 -10 765 39 b 763 101 775 94 771 101 z "},"ñ":{"ha":850,"x_min":0,"x_max":0,"o":"m 268 751 b 321 792 269 776 288 792 b 535 733 386 792 471 733 b 635 810 588 733 628 761 b 606 843 642 857 610 875 b 553 803 601 817 588 803 b 338 861 504 803 429 861 b 236 783 283 861 243 832 b 268 751 229 738 263 718 z m 763 101 b 701 63 746 101 728 63 b 679 111 678 63 678 88 l 696 456 b 539 675 704 606 640 675 b 233 438 419 675 310 581 l 264 647 b 240 675 267 664 257 675 b 176 656 231 675 218 675 b 107 606 119 629 107 625 b 151 515 107 578 163 586 l 79 15 b 106 -10 76 -6 86 -15 l 153 6 b 175 31 167 10 172 15 l 204 204 b 488 596 236 393 357 596 b 597 449 569 596 601 532 l 583 113 b 663 -10 581 46 589 -10 b 774 88 715 -10 765 39 b 763 101 775 94 771 101 z "},"o":{"ha":776,"x_min":0,"x_max":0,"o":"m 336 -14 b 724 411 553 -14 724 179 b 447 681 724 551 624 681 b 51 264 232 681 51 482 b 336 -14 51 107 169 -14 z m 360 39 b 160 296 217 39 160 157 b 431 629 160 446 256 629 b 611 386 567 629 611 513 b 360 39 611 217 521 39 z "},"ó":{"ha":776,"x_min":0,"x_max":0,"o":"m 415 753 b 639 856 472 733 621 806 b 594 928 651 893 629 928 b 493 865 564 928 536 901 b 403 775 442 818 407 788 b 415 753 400 769 399 758 z m 336 -14 b 724 411 553 -14 724 179 b 447 681 724 551 624 681 b 51 264 232 681 51 482 b 336 -14 51 107 169 -14 z m 360 39 b 160 296 217 39 160 157 b 431 629 160 446 256 629 b 611 386 567 629 611 513 b 360 39 611 217 521 39 z "},"ô":{"ha":776,"x_min":0,"x_max":0,"o":"m 314 751 b 463 835 346 747 421 796 b 590 751 494 796 556 747 b 607 768 606 753 606 761 b 556 864 607 778 582 811 b 482 940 522 931 521 940 b 374 858 443 940 436 932 b 300 768 331 808 303 778 b 314 751 299 761 300 753 z m 336 -14 b 724 411 553 -14 724 179 b 447 681 724 551 624 681 b 51 264 232 681 51 482 b 336 -14 51 107 169 -14 z m 360 39 b 160 296 217 39 160 157 b 431 629 160 446 256 629 b 611 386 567 629 611 513 b 360 39 611 217 521 39 z "},"ö":{"ha":776,"x_min":0,"x_max":0,"o":"m 326 800 b 406 871 365 800 406 831 b 346 926 406 903 379 926 b 272 849 306 926 272 888 b 326 800 272 819 296 800 z m 514 800 b 593 871 553 800 593 831 b 533 926 593 903 568 926 b 460 849 493 926 460 888 b 514 800 460 819 483 800 z m 336 -14 b 724 411 553 -14 724 179 b 447 681 724 551 624 681 b 51 264 232 681 51 482 b 336 -14 51 107 169 -14 z m 360 39 b 160 296 217 39 160 157 b 431 629 160 446 256 629 b 611 386 567 629 611 513 b 360 39 611 217 521 39 z "},"ò":{"ha":776,"x_min":0,"x_max":0,"o":"m 551 753 b 564 775 568 758 567 769 b 475 865 560 788 525 818 b 357 925 422 908 392 938 b 328 856 332 917 317 889 b 551 753 346 806 494 733 z m 336 -14 b 724 411 553 -14 724 179 b 447 681 724 551 624 681 b 51 264 232 681 51 482 b 336 -14 51 107 169 -14 z m 360 39 b 160 296 217 39 160 157 b 431 629 160 446 256 629 b 611 386 567 629 611 513 b 360 39 611 217 521 39 z "},"ő":{"ha":776,"x_min":0,"x_max":0,"o":"m 364 749 b 524 907 418 749 524 857 b 476 957 524 939 500 957 b 394 869 443 957 425 924 b 346 765 367 814 346 776 b 364 749 346 757 349 749 z m 557 747 b 722 900 613 747 722 851 b 678 950 722 932 700 950 b 592 867 646 950 626 918 b 538 765 561 813 538 776 b 557 747 536 758 539 747 z m 336 -14 b 724 411 553 -14 724 179 b 447 681 724 551 624 681 b 51 264 232 681 51 482 b 336 -14 51 107 169 -14 z m 360 39 b 160 296 217 39 160 157 b 431 629 160 446 256 629 b 611 386 567 629 611 513 b 360 39 611 217 521 39 z "},"ō":{"ha":776,"x_min":0,"x_max":0,"o":"m 601 774 b 638 803 629 774 633 783 b 615 832 642 822 644 832 l 299 832 b 261 804 269 832 265 822 b 283 774 257 783 254 774 z m 336 -14 b 724 411 553 -14 724 179 b 447 681 724 551 624 681 b 51 264 232 681 51 482 b 336 -14 51 107 169 -14 z m 360 39 b 160 296 217 39 160 157 b 431 629 160 446 256 629 b 611 386 567 629 611 513 b 360 39 611 217 521 39 z "},"ø":{"ha":776,"x_min":0,"x_max":0,"o":"m 679 783 b 686 806 683 792 686 799 b 667 822 686 817 674 822 b 639 803 653 822 647 818 l 557 661 b 447 681 525 674 488 681 b 51 264 232 681 51 482 b 189 22 51 158 104 69 l 106 -122 b 99 -142 101 -129 99 -135 b 117 -160 99 -153 107 -160 b 153 -132 132 -160 140 -151 l 231 4 b 336 -14 263 -8 299 -14 b 724 411 553 -14 724 179 b 597 642 724 504 679 593 z m 160 296 b 431 629 160 446 256 629 b 525 604 468 629 500 619 l 228 89 b 160 296 181 136 160 213 z m 360 39 b 264 61 322 39 290 47 l 558 574 b 611 386 597 528 611 458 b 360 39 611 217 521 39 z "},"õ":{"ha":776,"x_min":0,"x_max":0,"o":"m 585 757 b 685 833 638 757 678 785 b 656 867 692 881 660 899 b 603 826 651 840 638 826 b 388 885 554 826 479 885 b 286 807 333 885 293 856 b 318 775 279 761 313 742 b 371 815 319 800 338 815 b 585 757 436 815 521 757 z m 336 -14 b 724 411 553 -14 724 179 b 447 681 724 551 624 681 b 51 264 232 681 51 482 b 336 -14 51 107 169 -14 z m 360 39 b 160 296 217 39 160 157 b 431 629 160 446 256 629 b 611 386 567 629 611 513 b 360 39 611 217 521 39 z "},"œ":{"ha":1278,"x_min":0,"x_max":0,"o":"m 1154 176 b 919 64 1096 121 1018 64 b 732 217 822 64 751 131 b 1211 522 1017 258 1211 356 b 1015 681 1211 625 1124 681 b 704 515 878 681 772 608 b 447 681 667 610 578 681 b 51 264 232 681 51 482 b 336 -14 51 107 169 -14 b 642 149 461 -14 571 50 b 886 -14 685 39 788 -14 b 1189 157 1033 -14 1151 93 b 1154 176 1208 189 1178 200 z m 360 39 b 160 296 217 39 160 157 b 431 629 160 446 256 629 b 611 386 567 629 611 513 b 360 39 611 217 521 39 z m 974 624 b 1101 504 1049 624 1101 576 b 774 274 1101 396 989 307 b 729 303 736 268 729 288 b 974 624 729 490 851 624 z "},"p":{"ha":776,"x_min":0,"x_max":0,"o":"m 729 458 b 514 675 725 561 663 675 b 251 544 408 675 307 614 l 265 650 b 243 676 268 665 260 676 b 181 657 233 676 233 676 b 111 611 119 636 111 624 b 157 533 111 589 164 579 l 65 -111 b -18 -256 50 -224 -14 -219 b 38 -278 -21 -272 -11 -278 l 139 -278 b 201 -256 185 -278 199 -272 b 163 -111 206 -224 147 -225 l 181 17 b 321 -10 228 -3 274 -10 b 729 458 531 -10 732 164 z m 347 43 b 194 261 257 43 178 100 b 450 597 215 467 329 597 b 613 422 551 597 610 533 b 347 43 615 236 513 43 z "},"þ":{"ha":793,"x_min":0,"x_max":0,"o":"m 746 458 b 529 675 743 561 681 675 b 249 522 428 675 319 618 l 311 963 b 289 988 314 985 306 989 b 183 950 271 986 250 979 b 140 917 147 935 142 928 b 161 886 139 904 146 896 b 190 771 200 864 197 821 l 67 -111 b -18 -256 50 -224 -12 -219 b 38 -278 -21 -274 -10 -278 l 140 -278 b 201 -256 186 -278 199 -272 b 160 -111 207 -224 143 -225 l 181 32 b 339 -10 249 -3 293 -10 b 746 458 549 -10 750 164 z m 364 43 b 213 261 275 43 194 100 b 214 271 213 264 213 268 l 217 297 b 468 596 247 479 354 596 b 629 421 568 596 626 533 b 364 43 633 236 529 43 z "},"q":{"ha":779,"x_min":0,"x_max":0,"o":"m 703 624 b 681 681 708 664 704 681 b 589 650 653 681 636 650 b 415 681 553 650 485 681 b 51 253 194 681 51 446 b 289 -14 51 81 160 -14 b 543 179 417 -14 519 99 l 500 -111 b 417 -256 483 -224 421 -219 b 472 -278 414 -272 424 -278 l 574 -278 b 636 -256 619 -278 633 -272 b 597 -111 640 -224 582 -225 z m 568 379 b 321 69 543 207 442 69 b 149 290 254 69 149 107 b 392 625 149 426 214 625 b 589 524 503 625 592 546 z "},"r":{"ha":563,"x_min":0,"x_max":0,"o":"m 564 606 b 479 681 563 636 544 681 b 244 500 381 681 285 578 l 264 647 b 240 675 267 664 257 675 b 176 656 231 675 218 675 b 107 606 119 629 107 625 b 151 515 107 578 163 586 l 79 8 b 107 -15 76 -10 89 -19 l 157 -6 b 182 19 171 -3 179 6 l 224 310 b 414 590 240 425 338 590 b 515 536 468 590 467 533 b 564 606 550 538 565 568 z "},"ŕ":{"ha":563,"x_min":0,"x_max":0,"o":"m 329 738 b 553 840 386 718 535 790 b 508 913 565 878 543 913 b 407 850 478 913 450 886 b 317 760 356 803 321 772 b 329 738 314 754 313 743 z m 564 606 b 479 681 563 636 544 681 b 244 500 381 681 285 578 l 264 647 b 240 675 267 664 257 675 b 176 656 231 675 218 675 b 107 606 119 629 107 625 b 151 515 107 578 163 586 l 79 8 b 107 -15 76 -10 89 -19 l 157 -6 b 182 19 171 -3 179 6 l 224 310 b 414 590 240 425 338 590 b 515 536 468 590 467 533 b 564 606 550 538 565 568 z "},"ř":{"ha":563,"x_min":0,"x_max":0,"o":"m 369 749 b 465 825 408 749 413 758 b 543 921 506 878 540 911 b 531 938 544 928 546 936 b 381 854 497 940 422 893 b 254 938 349 893 288 940 b 236 921 240 936 238 928 b 285 831 238 911 256 881 b 369 749 325 757 331 749 z m 564 606 b 479 681 563 636 544 681 b 244 500 381 681 285 578 l 264 647 b 240 675 267 664 257 675 b 176 656 231 675 218 675 b 107 606 119 629 107 625 b 151 515 107 578 163 586 l 79 8 b 107 -15 76 -10 89 -19 l 157 -6 b 182 19 171 -3 179 6 l 224 310 b 414 590 240 425 338 590 b 515 536 468 590 467 533 b 564 606 550 538 565 568 z "},"s":{"ha":625,"x_min":0,"x_max":0,"o":"m 272 -14 b 544 164 429 -14 528 69 b 349 382 563 268 465 335 b 182 539 222 433 169 464 b 319 629 190 588 249 629 b 478 557 382 629 431 604 b 557 496 522 511 540 489 b 568 544 572 504 576 514 b 544 615 563 567 556 586 b 361 681 524 660 446 681 b 100 514 258 681 121 636 b 299 290 79 400 181 340 b 453 132 400 249 465 207 b 314 40 446 86 393 40 b 81 189 250 40 168 44 b 47 207 72 207 58 211 b 29 178 33 203 26 192 b 60 43 38 119 49 82 b 272 -14 72 -8 219 -14 z "},"":{"ha":625,"x_min":0,"x_max":0,"o":"m 272 -14 b 544 164 429 -14 528 69 b 349 382 563 268 465 335 b 182 539 222 433 169 464 b 319 629 190 588 249 629 b 478 557 382 629 431 604 b 557 496 522 511 540 489 b 568 544 572 504 576 514 b 544 615 563 567 556 586 b 361 681 524 660 446 681 b 100 514 258 681 121 636 b 299 290 79 400 181 340 b 453 132 400 249 465 207 b 314 40 446 86 393 40 b 81 189 250 40 168 44 b 47 207 72 207 58 211 b 29 178 33 203 26 192 b 60 43 38 119 49 82 b 272 -14 72 -8 219 -14 z "},"ś":{"ha":625,"x_min":0,"x_max":0,"o":"m 318 753 b 542 856 375 733 524 806 b 497 928 554 893 532 928 b 396 865 467 928 439 901 b 306 775 344 818 310 788 b 318 753 303 769 301 758 z m 272 -14 b 544 164 429 -14 528 69 b 349 382 563 268 465 335 b 182 539 222 433 169 464 b 319 629 190 588 249 629 b 478 557 382 629 431 604 b 557 496 522 511 540 489 b 568 544 572 504 576 514 b 544 615 563 567 556 586 b 361 681 524 660 446 681 b 100 514 258 681 121 636 b 299 290 79 400 181 340 b 453 132 400 249 465 207 b 314 40 446 86 393 40 b 81 189 250 40 168 44 b 47 207 72 207 58 211 b 29 178 33 203 26 192 b 60 43 38 119 49 82 b 272 -14 72 -8 219 -14 z "},"š":{"ha":625,"x_min":0,"x_max":0,"o":"m 358 764 b 454 840 397 764 401 774 b 532 936 494 893 529 926 b 519 953 533 943 535 951 b 369 869 486 956 411 908 b 243 953 338 908 276 956 b 225 936 229 951 226 943 b 274 846 226 926 244 896 b 358 764 314 772 319 764 z m 272 -14 b 544 164 429 -14 528 69 b 349 382 563 268 465 335 b 182 539 222 433 169 464 b 319 629 190 588 249 629 b 478 557 382 629 431 604 b 557 496 522 511 540 489 b 568 544 572 504 576 514 b 544 615 563 567 556 586 b 361 681 524 660 446 681 b 100 514 258 681 121 636 b 299 290 79 400 181 340 b 453 132 400 249 465 207 b 314 40 446 86 393 40 b 81 189 250 40 168 44 b 47 207 72 207 58 211 b 29 178 33 203 26 192 b 60 43 38 119 49 82 b 272 -14 72 -8 219 -14 z "},"ş":{"ha":625,"x_min":0,"x_max":0,"o":"m 568 544 b 544 615 563 567 556 586 b 361 681 524 660 446 681 b 100 514 258 681 121 636 b 299 290 79 400 181 340 b 453 132 400 249 465 207 b 314 40 446 86 393 40 b 81 189 250 40 168 44 b 47 207 72 207 58 211 b 29 178 33 203 26 192 b 60 43 38 119 49 82 b 226 -12 69 3 161 -10 l 183 -93 b 200 -117 176 -106 186 -114 b 294 -192 249 -128 294 -147 b 228 -253 294 -225 274 -253 b 147 -229 190 -253 167 -240 b 131 -249 132 -219 118 -235 b 238 -290 146 -268 178 -290 b 363 -183 304 -290 363 -249 b 233 -76 363 -119 304 -89 l 265 -14 l 272 -14 b 544 164 429 -14 528 69 b 349 382 563 268 465 335 b 182 539 222 433 169 464 b 319 629 190 588 249 629 b 478 557 382 629 431 604 b 557 496 522 511 540 489 b 568 544 572 504 576 514 z "},"ß":{"ha":783,"x_min":0,"x_max":0,"o":"m 79 -122 b 107 -97 94 -117 104 -114 l 214 667 b 379 936 229 771 250 936 b 467 800 461 936 474 857 b 332 490 446 651 349 594 b 467 325 321 397 400 364 b 585 147 542 281 596 239 b 444 35 575 83 521 35 b 268 176 340 35 294 117 b 243 215 257 200 256 215 b 214 165 229 215 218 203 b 219 65 210 146 208 99 b 414 -14 249 -1 371 -14 b 683 211 551 -15 665 85 b 529 414 697 314 622 356 b 406 528 457 457 400 483 b 571 818 421 629 553 704 b 413 986 582 906 542 986 b 119 663 264 986 147 863 l 25 -6 b -3 -103 21 -35 13 -85 b 36 -139 -25 -131 -10 -156 z "},"t":{"ha":460,"x_min":0,"x_max":0,"o":"m 257 654 b 275 779 264 703 271 747 b 246 804 276 799 265 808 l 211 797 b 186 774 196 794 189 788 l 163 638 l 101 628 b 58 596 78 624 65 622 b 96 563 50 567 61 558 l 151 569 b 96 119 122 379 94 169 b 228 -14 99 53 119 -14 b 392 115 326 -14 392 75 b 363 124 392 133 378 140 b 260 64 332 86 299 64 b 192 133 210 64 194 94 b 246 581 190 185 219 401 l 385 594 b 447 644 426 600 438 597 b 399 675 451 672 444 682 z "},"ŧ":{"ha":460,"x_min":0,"x_max":0,"o":"m 257 654 b 275 779 264 703 271 747 b 246 804 276 799 265 808 l 211 797 b 186 774 196 794 189 788 l 163 638 l 101 628 b 58 596 78 624 65 622 b 96 563 50 567 61 558 l 151 569 b 136 465 146 535 142 500 l 75 465 b 54 443 58 465 54 458 b 75 419 54 428 58 419 l 129 419 b 96 119 110 281 94 156 b 228 -14 99 53 119 -14 b 392 115 326 -14 392 75 b 363 124 392 133 378 140 b 260 64 332 86 299 64 b 192 133 210 64 194 94 b 224 419 190 171 206 289 l 315 419 b 336 443 332 419 336 428 b 315 465 336 458 332 465 l 229 465 l 246 581 l 385 594 b 447 644 426 600 438 597 b 399 675 451 672 444 682 z "},"ť":{"ha":460,"x_min":0,"x_max":0,"o":"m 422 925 b 360 863 394 925 368 906 l 314 663 l 257 654 b 275 779 264 703 271 747 b 246 804 276 799 265 808 l 211 797 b 186 774 196 794 189 788 l 163 638 l 101 628 b 58 596 78 624 65 622 b 96 563 50 567 61 558 l 151 569 b 96 119 122 379 94 169 b 228 -14 99 53 119 -14 b 392 115 326 -14 392 75 b 363 124 392 133 378 140 b 260 64 332 86 299 64 b 192 133 210 64 194 94 b 246 581 190 185 219 401 l 385 594 b 447 644 426 600 438 597 b 399 675 451 672 444 682 l 363 669 b 458 871 403 726 454 839 b 422 925 464 913 443 925 z "},"u":{"ha":843,"x_min":0,"x_max":0,"o":"m 742 101 b 681 63 726 101 707 63 b 658 111 657 63 656 88 l 740 647 b 711 671 743 661 732 679 l 667 657 b 638 632 654 653 640 650 l 610 461 b 310 54 579 271 442 54 b 218 263 189 54 210 204 l 271 647 b 247 678 274 664 264 678 b 176 656 238 678 218 674 b 107 606 118 631 107 625 b 151 522 107 578 161 594 l 114 242 b 283 -14 93 72 160 -14 b 575 214 408 -14 504 88 b 643 -10 535 33 576 -10 b 753 88 694 -10 744 39 b 742 101 754 94 750 101 z "},"ú":{"ha":843,"x_min":0,"x_max":0,"o":"m 450 756 b 674 858 507 736 656 808 b 629 931 686 896 664 931 b 528 868 599 931 571 904 b 438 778 476 821 442 790 b 450 756 435 772 433 761 z m 742 101 b 681 63 726 101 707 63 b 658 111 657 63 656 88 l 740 647 b 711 671 743 661 732 679 l 667 657 b 638 632 654 653 640 650 l 610 461 b 310 54 579 271 442 54 b 218 263 189 54 210 204 l 271 647 b 247 678 274 664 264 678 b 176 656 238 678 218 674 b 107 606 118 631 107 625 b 151 522 107 578 161 594 l 114 242 b 283 -14 93 72 160 -14 b 575 214 408 -14 504 88 b 643 -10 535 33 576 -10 b 753 88 694 -10 744 39 b 742 101 754 94 750 101 z "},"û":{"ha":843,"x_min":0,"x_max":0,"o":"m 347 754 b 496 838 379 750 454 799 b 624 754 528 799 589 750 b 640 771 639 756 639 764 b 589 867 640 781 615 814 b 515 943 556 933 554 943 b 407 861 476 943 469 935 b 333 771 364 811 336 781 b 347 754 332 764 333 756 z m 742 101 b 681 63 726 101 707 63 b 658 111 657 63 656 88 l 740 647 b 711 671 743 661 732 679 l 667 657 b 638 632 654 653 640 650 l 610 461 b 310 54 579 271 442 54 b 218 263 189 54 210 204 l 271 647 b 247 678 274 664 264 678 b 176 656 238 678 218 674 b 107 606 118 631 107 625 b 151 522 107 578 161 594 l 114 242 b 283 -14 93 72 160 -14 b 575 214 408 -14 504 88 b 643 -10 535 33 576 -10 b 753 88 694 -10 744 39 b 742 101 754 94 750 101 z "},"ü":{"ha":843,"x_min":0,"x_max":0,"o":"m 360 803 b 439 874 399 803 439 833 b 379 929 439 906 413 929 b 306 851 339 929 306 890 b 360 803 306 822 329 803 z m 547 803 b 626 874 586 803 626 833 b 567 929 626 906 601 929 b 493 851 526 929 493 890 b 547 803 493 822 517 803 z m 742 101 b 681 63 726 101 707 63 b 658 111 657 63 656 88 l 740 647 b 711 671 743 661 732 679 l 667 657 b 638 632 654 653 640 650 l 610 461 b 310 54 579 271 442 54 b 218 263 189 54 210 204 l 271 647 b 247 678 274 664 264 678 b 176 656 238 678 218 674 b 107 606 118 631 107 625 b 151 522 107 578 161 594 l 114 242 b 283 -14 93 72 160 -14 b 575 214 408 -14 504 88 b 643 -10 535 33 576 -10 b 753 88 694 -10 744 39 b 742 101 754 94 750 101 z "},"ù":{"ha":843,"x_min":0,"x_max":0,"o":"m 585 756 b 597 778 601 761 600 772 b 508 868 593 790 558 821 b 390 928 456 911 425 940 b 361 858 365 919 350 892 b 585 756 379 808 528 736 z m 742 101 b 681 63 726 101 707 63 b 658 111 657 63 656 88 l 740 647 b 711 671 743 661 732 679 l 667 657 b 638 632 654 653 640 650 l 610 461 b 310 54 579 271 442 54 b 218 263 189 54 210 204 l 271 647 b 247 678 274 664 264 678 b 176 656 238 678 218 674 b 107 606 118 631 107 625 b 151 522 107 578 161 594 l 114 242 b 283 -14 93 72 160 -14 b 575 214 408 -14 504 88 b 643 -10 535 33 576 -10 b 753 88 694 -10 744 39 b 742 101 754 94 750 101 z "},"ű":{"ha":843,"x_min":0,"x_max":0,"o":"m 397 751 b 557 910 451 751 557 860 b 510 960 557 942 533 960 b 428 872 476 960 458 926 b 379 768 400 817 379 779 b 397 751 379 760 382 751 z m 590 750 b 756 903 646 750 756 854 b 711 953 756 935 733 953 b 625 869 679 953 660 921 b 571 768 594 815 571 779 b 590 750 569 761 572 750 z m 742 101 b 681 63 726 101 707 63 b 658 111 657 63 656 88 l 740 647 b 711 671 743 661 732 679 l 667 657 b 638 632 654 653 640 650 l 610 461 b 310 54 579 271 442 54 b 218 263 189 54 210 204 l 271 647 b 247 678 274 664 264 678 b 176 656 238 678 218 674 b 107 606 118 631 107 625 b 151 522 107 578 161 594 l 114 242 b 283 -14 93 72 160 -14 b 575 214 408 -14 504 88 b 643 -10 535 33 576 -10 b 753 88 694 -10 744 39 b 742 101 754 94 750 101 z "},"ū":{"ha":843,"x_min":0,"x_max":0,"o":"m 635 776 b 671 806 663 776 667 786 b 649 835 675 825 678 835 l 332 835 b 294 807 303 835 299 825 b 317 776 290 786 288 776 z m 742 101 b 681 63 726 101 707 63 b 658 111 657 63 656 88 l 740 647 b 711 671 743 661 732 679 l 667 657 b 638 632 654 653 640 650 l 610 461 b 310 54 579 271 442 54 b 218 263 189 54 210 204 l 271 647 b 247 678 274 664 264 678 b 176 656 238 678 218 674 b 107 606 118 631 107 625 b 151 522 107 578 161 594 l 114 242 b 283 -14 93 72 160 -14 b 575 214 408 -14 504 88 b 643 -10 535 33 576 -10 b 753 88 694 -10 744 39 b 742 101 754 94 750 101 z "},"ģ":{"ha":694,"x_min":0,"x_max":0,"o":"m 397 728 b 474 793 435 728 468 756 b 444 856 478 822 465 838 b 417 906 419 874 413 886 b 453 964 419 926 432 943 b 397 951 469 982 433 989 b 333 821 358 911 339 861 b 397 728 324 754 354 728 z m 693 736 b 651 782 694 765 671 782 b 608 751 632 782 621 768 b 506 674 576 707 538 674 b 408 679 475 674 460 679 l 407 679 b 81 410 231 679 81 550 b 164 256 81 350 108 293 b 25 135 67 228 31 168 b 94 14 17 72 56 36 b -18 -117 24 -17 -12 -74 b 265 -294 -36 -243 108 -294 b 685 -68 525 -294 667 -197 b 497 86 697 14 638 86 b 303 78 454 86 379 78 b 138 169 217 78 128 96 b 197 236 142 201 178 229 b 339 208 235 218 282 208 b 656 476 508 208 656 318 b 581 626 656 532 631 588 b 693 736 639 644 690 688 z m 356 256 b 185 422 247 256 185 328 b 396 636 185 540 276 636 b 553 467 497 636 553 560 b 356 256 553 357 474 256 z m 231 -10 b 436 -3 322 -10 392 -6 b 578 -104 568 7 585 -57 b 303 -247 565 -203 440 -247 b 85 -111 163 -247 74 -201 b 231 -10 96 -46 168 -10 z "},"ķ":{"ha":738,"x_min":0,"x_max":0,"o":"m 663 93 b 603 61 644 93 629 61 b 403 299 524 61 436 219 b 651 551 558 350 651 439 b 507 679 651 643 578 679 b 229 493 403 679 299 600 l 297 958 b 274 985 300 975 290 985 b 203 967 264 985 256 986 b 133 921 143 944 133 933 b 179 832 133 894 189 896 l 58 17 b 92 -14 56 -1 67 -19 l 131 -6 b 158 17 140 -3 157 4 l 193 256 b 324 276 240 260 283 267 b 558 -14 361 169 436 -14 b 675 79 628 -14 675 56 b 663 93 675 88 671 93 z m 206 333 b 461 594 232 439 340 594 b 551 518 517 594 551 560 b 201 308 551 417 419 328 z m 353 -75 b 286 -147 324 -75 286 -100 b 333 -249 286 -199 333 -215 b 276 -349 333 -294 276 -328 b 290 -360 276 -354 283 -360 b 425 -150 328 -360 425 -271 b 353 -75 425 -107 396 -75 z "},"ļ":{"ha":344,"x_min":0,"x_max":0,"o":"m 156 -10 b 268 88 210 -10 260 39 b 257 101 269 94 265 101 b 196 63 242 101 222 63 b 174 111 172 63 171 88 l 297 960 b 275 986 300 975 292 986 b 203 968 264 986 257 988 b 135 922 143 946 135 935 b 182 835 135 896 190 899 l 78 113 b 156 -10 67 49 85 -10 z m 32 -357 b 167 -147 69 -357 167 -268 b 94 -72 167 -104 138 -72 b 28 -144 65 -72 28 -97 b 75 -246 28 -196 75 -212 b 18 -346 75 -292 18 -325 b 32 -357 18 -351 25 -357 z "},"ņ":{"ha":850,"x_min":0,"x_max":0,"o":"m 763 101 b 701 63 746 101 728 63 b 679 111 678 63 678 88 l 696 456 b 539 675 704 606 640 675 b 233 438 419 675 310 581 l 264 647 b 240 675 267 664 257 675 b 176 656 231 675 218 675 b 107 606 119 629 107 625 b 151 515 107 578 163 586 l 79 15 b 106 -10 76 -6 86 -15 l 153 6 b 175 31 167 10 172 15 l 204 204 b 488 596 236 393 357 596 b 597 449 569 596 601 532 l 583 113 b 663 -10 581 46 589 -10 b 774 88 715 -10 765 39 b 763 101 775 94 771 101 z m 376 -75 b 310 -147 347 -75 310 -100 b 357 -249 310 -199 357 -215 b 300 -349 357 -294 300 -328 b 314 -360 300 -354 307 -360 b 449 -150 351 -360 449 -271 b 376 -75 449 -107 419 -75 z "},"ŗ":{"ha":563,"x_min":0,"x_max":0,"o":"m 564 606 b 479 681 563 636 544 681 b 244 500 381 681 285 578 l 264 647 b 240 675 267 664 257 675 b 176 656 231 675 218 675 b 107 606 119 629 107 625 b 151 515 107 578 163 586 l 79 8 b 107 -15 76 -10 89 -19 l 157 -6 b 182 19 171 -3 179 6 l 224 310 b 414 590 240 425 338 590 b 515 536 468 590 467 533 b 564 606 550 538 565 568 z m 113 -75 b 46 -147 83 -75 46 -100 b 93 -249 46 -199 93 -215 b 36 -349 93 -294 36 -328 b 50 -360 36 -354 43 -360 b 185 -150 88 -360 185 -271 b 113 -75 185 -107 156 -75 z "},"ţ":{"ha":460,"x_min":0,"x_max":0,"o":"m 257 654 b 275 779 264 703 271 747 b 246 804 276 799 265 808 l 211 797 b 186 774 196 794 189 788 l 163 638 l 101 628 b 58 596 78 624 65 622 b 96 563 50 567 61 558 l 151 569 b 96 119 122 379 94 169 b 215 -14 99 56 118 -8 l 172 -93 b 189 -117 165 -106 175 -114 b 283 -192 238 -128 283 -147 b 217 -253 283 -225 263 -253 b 136 -229 179 -253 156 -240 b 119 -249 121 -219 107 -235 b 226 -290 135 -268 167 -290 b 351 -183 293 -290 351 -249 b 222 -76 351 -119 293 -89 l 256 -11 b 392 115 339 3 392 79 b 363 124 392 133 378 140 b 260 64 332 86 299 64 b 192 133 210 64 194 94 b 246 581 190 185 219 401 l 385 594 b 447 644 426 600 438 597 b 399 675 451 672 444 682 z "},"ș":{"ha":625,"x_min":0,"x_max":0,"o":"m 272 -14 b 544 164 429 -14 528 69 b 349 382 563 268 465 335 b 182 539 222 433 169 464 b 319 629 190 588 249 629 b 478 557 382 629 431 604 b 557 496 522 511 540 489 b 568 544 572 504 576 514 b 544 615 563 567 556 586 b 361 681 524 660 446 681 b 100 514 258 681 121 636 b 299 290 79 400 181 340 b 453 132 400 249 465 207 b 314 40 446 86 393 40 b 81 189 250 40 168 44 b 47 207 72 207 58 211 b 29 178 33 203 26 192 b 60 43 38 119 49 82 b 272 -14 72 -8 219 -14 z m 185 -360 b 319 -150 222 -360 319 -271 b 247 -75 319 -107 290 -75 b 181 -147 218 -75 181 -100 b 228 -249 181 -199 228 -215 b 171 -349 228 -294 171 -328 b 185 -360 171 -354 178 -360 z "},"ț":{"ha":460,"x_min":0,"x_max":0,"o":"m 257 654 b 275 779 264 703 271 747 b 246 804 276 799 265 808 l 211 797 b 186 774 196 794 189 788 l 163 638 l 101 628 b 58 596 78 624 65 622 b 96 563 50 567 61 558 l 151 569 b 96 119 122 379 94 169 b 228 -14 99 53 119 -14 b 392 115 326 -14 392 75 b 363 124 392 133 378 140 b 260 64 332 86 299 64 b 192 133 210 64 194 94 b 246 581 190 185 219 401 l 385 594 b 447 644 426 600 438 597 b 399 675 451 672 444 682 z m 236 -75 b 169 -147 207 -75 169 -100 b 217 -249 169 -199 217 -215 b 160 -349 217 -294 160 -328 b 174 -360 160 -354 167 -360 b 308 -150 211 -360 308 -271 b 236 -75 308 -107 279 -75 z "},"ų":{"ha":843,"x_min":0,"x_max":0,"o":"m 742 -185 b 679 -199 725 -192 699 -199 b 596 -122 625 -199 596 -171 b 646 -10 596 -89 610 -51 b 753 88 696 -8 744 40 b 742 101 754 94 750 101 b 681 63 726 101 707 63 b 658 111 657 63 656 88 l 740 647 b 711 671 743 661 732 679 l 667 657 b 638 632 654 653 640 650 l 610 461 b 310 54 579 271 442 54 b 218 263 189 54 210 204 l 271 647 b 247 678 274 664 264 678 b 176 656 238 678 218 674 b 107 606 118 631 107 625 b 151 522 107 578 161 594 l 114 242 b 283 -14 93 72 160 -14 b 575 214 408 -14 504 88 b 607 -4 543 69 564 13 b 522 -133 557 -43 522 -83 b 654 -240 522 -204 585 -240 b 758 -207 683 -240 729 -232 b 742 -185 771 -196 764 -175 z "},"ů":{"ha":843,"x_min":0,"x_max":0,"o":"m 479 747 b 626 871 551 747 617 794 b 519 990 636 943 589 990 b 371 867 446 990 381 942 b 479 747 361 794 408 747 z m 507 947 b 572 874 549 947 572 917 b 493 793 568 829 539 793 b 425 868 450 793 425 824 b 507 947 429 915 460 947 z m 742 101 b 681 63 726 101 707 63 b 658 111 657 63 656 88 l 740 647 b 711 671 743 661 732 679 l 667 657 b 638 632 654 653 640 650 l 610 461 b 310 54 579 271 442 54 b 218 263 189 54 210 204 l 271 647 b 247 678 274 664 264 678 b 176 656 238 678 218 674 b 107 606 118 631 107 625 b 151 522 107 578 161 594 l 114 242 b 283 -14 93 72 160 -14 b 575 214 408 -14 504 88 b 643 -10 535 33 576 -10 b 753 88 694 -10 744 39 b 742 101 754 94 750 101 z "},"v":{"ha":704,"x_min":0,"x_max":0,"o":"m 261 -14 b 653 599 453 -14 653 261 b 589 681 653 640 640 681 b 500 600 538 681 500 636 b 557 432 500 539 557 539 b 300 56 557 275 426 56 b 206 261 215 56 185 115 l 258 647 b 236 678 261 664 253 678 b 164 656 225 678 206 674 b 94 606 106 631 94 625 b 139 522 94 578 149 594 l 101 238 b 261 -14 78 58 160 -14 z "},"w":{"ha":1132,"x_min":0,"x_max":0,"o":"m 1014 681 b 925 600 963 681 925 636 b 982 432 925 539 982 539 b 722 50 982 279 868 50 b 624 261 638 50 603 115 l 678 649 b 654 675 679 664 671 675 b 596 660 643 675 615 671 b 568 607 576 650 572 632 l 532 335 b 304 50 499 174 419 50 b 206 261 219 50 185 115 l 258 647 b 236 678 261 664 253 678 b 164 656 225 678 206 674 b 94 606 106 631 94 625 b 139 522 94 578 149 594 l 101 238 b 258 -14 78 60 158 -14 b 517 146 340 -14 444 21 b 699 -14 529 35 601 -14 b 1078 575 906 -14 1078 275 b 1014 681 1078 640 1065 681 z "},"":{"ha":1132,"x_min":0,"x_max":0,"o":"m 1014 681 b 925 600 963 681 925 636 b 982 432 925 539 982 539 b 722 50 982 279 868 50 b 624 261 638 50 603 115 l 678 649 b 654 675 679 664 671 675 b 596 660 643 675 615 671 b 568 607 576 650 572 632 l 532 335 b 304 50 499 174 419 50 b 206 261 219 50 185 115 l 258 647 b 236 678 261 664 253 678 b 164 656 225 678 206 674 b 94 606 106 631 94 625 b 139 522 94 578 149 594 l 101 238 b 258 -14 78 60 158 -14 b 517 146 340 -14 444 21 b 699 -14 529 35 601 -14 b 1078 575 906 -14 1078 275 b 1014 681 1078 640 1065 681 z "},"ẃ":{"ha":1132,"x_min":0,"x_max":0,"o":"m 579 756 b 803 858 636 736 785 808 b 758 931 815 896 793 931 b 657 868 728 931 700 904 b 567 778 606 821 571 790 b 579 756 564 772 563 761 z m 1014 681 b 925 600 963 681 925 636 b 982 432 925 539 982 539 b 722 50 982 279 868 50 b 624 261 638 50 603 115 l 678 649 b 654 675 679 664 671 675 b 596 660 643 675 615 671 b 568 607 576 650 572 632 l 532 335 b 304 50 499 174 419 50 b 206 261 219 50 185 115 l 258 647 b 236 678 261 664 253 678 b 164 656 225 678 206 674 b 94 606 106 631 94 625 b 139 522 94 578 149 594 l 101 238 b 258 -14 78 60 158 -14 b 517 146 340 -14 444 21 b 699 -14 529 35 601 -14 b 1078 575 906 -14 1078 275 b 1014 681 1078 640 1065 681 z "},"ŵ":{"ha":1132,"x_min":0,"x_max":0,"o":"m 476 754 b 625 838 508 750 583 799 b 753 754 657 799 718 750 b 769 771 768 756 768 764 b 718 867 769 781 744 814 b 644 943 685 933 683 943 b 536 861 606 943 599 935 b 463 771 493 811 465 781 b 476 754 461 764 463 756 z m 1014 681 b 925 600 963 681 925 636 b 982 432 925 539 982 539 b 722 50 982 279 868 50 b 624 261 638 50 603 115 l 678 649 b 654 675 679 664 671 675 b 596 660 643 675 615 671 b 568 607 576 650 572 632 l 532 335 b 304 50 499 174 419 50 b 206 261 219 50 185 115 l 258 647 b 236 678 261 664 253 678 b 164 656 225 678 206 674 b 94 606 106 631 94 625 b 139 522 94 578 149 594 l 101 238 b 258 -14 78 60 158 -14 b 517 146 340 -14 444 21 b 699 -14 529 35 601 -14 b 1078 575 906 -14 1078 275 b 1014 681 1078 640 1065 681 z "},"ẅ":{"ha":1132,"x_min":0,"x_max":0,"o":"m 489 803 b 568 874 528 803 568 833 b 508 929 568 906 542 929 b 435 851 468 929 435 890 b 489 803 435 822 458 803 z m 676 803 b 756 874 715 803 756 833 b 696 929 756 906 731 929 b 622 851 656 929 622 890 b 676 803 622 822 646 803 z m 1014 681 b 925 600 963 681 925 636 b 982 432 925 539 982 539 b 722 50 982 279 868 50 b 624 261 638 50 603 115 l 678 649 b 654 675 679 664 671 675 b 596 660 643 675 615 671 b 568 607 576 650 572 632 l 532 335 b 304 50 499 174 419 50 b 206 261 219 50 185 115 l 258 647 b 236 678 261 664 253 678 b 164 656 225 678 206 674 b 94 606 106 631 94 625 b 139 522 94 578 149 594 l 101 238 b 258 -14 78 60 158 -14 b 517 146 340 -14 444 21 b 699 -14 529 35 601 -14 b 1078 575 906 -14 1078 275 b 1014 681 1078 640 1065 681 z "},"ẁ":{"ha":1132,"x_min":0,"x_max":0,"o":"m 714 756 b 726 778 731 761 729 772 b 638 868 722 790 688 821 b 519 928 585 911 554 940 b 490 858 494 919 479 892 b 714 756 508 808 657 736 z m 1014 681 b 925 600 963 681 925 636 b 982 432 925 539 982 539 b 722 50 982 279 868 50 b 624 261 638 50 603 115 l 678 649 b 654 675 679 664 671 675 b 596 660 643 675 615 671 b 568 607 576 650 572 632 l 532 335 b 304 50 499 174 419 50 b 206 261 219 50 185 115 l 258 647 b 236 678 261 664 253 678 b 164 656 225 678 206 674 b 94 606 106 631 94 625 b 139 522 94 578 149 594 l 101 238 b 258 -14 78 60 158 -14 b 517 146 340 -14 444 21 b 699 -14 529 35 601 -14 b 1078 575 906 -14 1078 275 b 1014 681 1078 640 1065 681 z "},"x":{"ha":693,"x_min":0,"x_max":0,"o":"m 694 606 b 631 674 694 636 679 674 b 361 399 535 674 442 522 l 267 657 b 242 679 261 672 250 679 b 115 565 211 679 115 603 b 154 551 115 550 132 543 b 211 524 182 561 200 557 l 290 310 b 92 89 213 197 139 89 b 31 119 68 89 56 119 b -17 56 3 119 -17 83 b 47 -14 -17 25 -3 -14 b 311 253 140 -14 232 126 l 350 147 b 483 -14 376 78 403 -14 b 608 61 547 -14 608 32 b 596 75 608 71 604 75 b 532 61 579 75 569 61 b 431 207 482 61 454 144 l 382 342 b 586 571 461 454 538 571 b 647 542 610 571 622 542 b 694 606 675 542 696 576 z "},"y":{"ha":718,"x_min":0,"x_max":0,"o":"m 606 681 b 517 600 554 681 517 636 b 574 432 517 539 574 539 b 407 21 574 324 503 168 b 222 658 357 256 293 458 b 196 679 217 676 203 679 b 58 575 168 679 58 613 b 99 556 58 557 76 553 b 160 522 138 557 151 543 b 289 99 217 369 260 221 b 304 -26 304 36 308 3 b 122 -211 292 -119 219 -211 b 17 -154 61 -211 35 -185 b -51 -103 -8 -110 -29 -103 b -119 -181 -94 -103 -119 -140 b 32 -292 -119 -244 -71 -292 b 464 22 206 -292 344 -160 b 669 600 547 149 669 383 b 606 681 669 640 657 681 z "},"":{"ha":718,"x_min":0,"x_max":0,"o":"m 606 681 b 517 600 554 681 517 636 b 574 432 517 539 574 539 b 407 21 574 324 503 168 b 222 658 357 256 293 458 b 196 679 217 676 203 679 b 58 575 168 679 58 613 b 99 556 58 557 76 553 b 160 522 138 557 151 543 b 289 99 217 369 260 221 b 304 -26 304 36 308 3 b 122 -211 292 -119 219 -211 b 17 -154 61 -211 35 -185 b -51 -103 -8 -110 -29 -103 b -119 -181 -94 -103 -119 -140 b 32 -292 -119 -244 -71 -292 b 464 22 206 -292 344 -160 b 669 600 547 149 669 383 b 606 681 669 640 657 681 z "},"ý":{"ha":718,"x_min":0,"x_max":0,"o":"m 364 731 b 588 833 421 711 569 783 b 543 906 600 871 578 906 b 442 843 513 906 485 879 b 351 753 390 796 356 765 b 364 731 349 747 347 736 z m 606 681 b 517 600 554 681 517 636 b 574 432 517 539 574 539 b 407 21 574 324 503 168 b 222 658 357 256 293 458 b 196 679 217 676 203 679 b 58 575 168 679 58 613 b 99 556 58 557 76 553 b 160 522 138 557 151 543 b 289 99 217 369 260 221 b 304 -26 304 36 308 3 b 122 -211 292 -119 219 -211 b 17 -154 61 -211 35 -185 b -51 -103 -8 -110 -29 -103 b -119 -181 -94 -103 -119 -140 b 32 -292 -119 -244 -71 -292 b 464 22 206 -292 344 -160 b 669 600 547 149 669 383 b 606 681 669 640 657 681 z "},"ŷ":{"ha":718,"x_min":0,"x_max":0,"o":"m 261 729 b 410 813 293 725 368 774 b 538 729 442 774 503 725 b 554 746 553 731 553 739 b 503 842 554 756 529 789 b 429 918 469 908 468 918 b 321 836 390 918 383 910 b 247 746 278 786 250 756 b 261 729 246 739 247 731 z m 606 681 b 517 600 554 681 517 636 b 574 432 517 539 574 539 b 407 21 574 324 503 168 b 222 658 357 256 293 458 b 196 679 217 676 203 679 b 58 575 168 679 58 613 b 99 556 58 557 76 553 b 160 522 138 557 151 543 b 289 99 217 369 260 221 b 304 -26 304 36 308 3 b 122 -211 292 -119 219 -211 b 17 -154 61 -211 35 -185 b -51 -103 -8 -110 -29 -103 b -119 -181 -94 -103 -119 -140 b 32 -292 -119 -244 -71 -292 b 464 22 206 -292 344 -160 b 669 600 547 149 669 383 b 606 681 669 640 657 681 z "},"ÿ":{"ha":718,"x_min":0,"x_max":0,"o":"m 288 778 b 367 849 326 778 367 808 b 307 904 367 881 340 904 b 233 826 267 904 233 865 b 288 778 233 797 257 778 z m 475 778 b 554 849 514 778 554 808 b 494 904 554 881 529 904 b 421 826 454 904 421 865 b 475 778 421 797 444 778 z m 606 681 b 517 600 554 681 517 636 b 574 432 517 539 574 539 b 407 21 574 324 503 168 b 222 658 357 256 293 458 b 196 679 217 676 203 679 b 58 575 168 679 58 613 b 99 556 58 557 76 553 b 160 522 138 557 151 543 b 289 99 217 369 260 221 b 304 -26 304 36 308 3 b 122 -211 292 -119 219 -211 b 17 -154 61 -211 35 -185 b -51 -103 -8 -110 -29 -103 b -119 -181 -94 -103 -119 -140 b 32 -292 -119 -244 -71 -292 b 464 22 206 -292 344 -160 b 669 600 547 149 669 383 b 606 681 669 640 657 681 z "},"ỳ":{"ha":718,"x_min":0,"x_max":0,"o":"m 499 731 b 511 753 515 736 514 747 b 422 843 507 765 472 796 b 304 903 369 886 339 915 b 275 833 279 894 264 867 b 499 731 293 783 442 711 z m 606 681 b 517 600 554 681 517 636 b 574 432 517 539 574 539 b 407 21 574 324 503 168 b 222 658 357 256 293 458 b 196 679 217 676 203 679 b 58 575 168 679 58 613 b 99 556 58 557 76 553 b 160 522 138 557 151 543 b 289 99 217 369 260 221 b 304 -26 304 36 308 3 b 122 -211 292 -119 219 -211 b 17 -154 61 -211 35 -185 b -51 -103 -8 -110 -29 -103 b -119 -181 -94 -103 -119 -140 b 32 -292 -119 -244 -71 -292 b 464 22 206 -292 344 -160 b 669 600 547 149 669 383 b 606 681 669 640 657 681 z "},"z":{"ha":675,"x_min":0,"x_max":0,"o":"m 492 -14 b 604 136 589 -14 604 85 b 592 165 604 153 606 165 b 461 86 565 165 542 85 b 171 101 383 86 242 114 l 615 588 b 647 650 626 599 647 625 b 625 675 647 667 638 675 b 506 653 585 675 576 653 b 204 674 403 653 317 674 b 103 543 129 674 101 593 b 117 513 103 522 108 513 b 218 571 139 513 138 571 b 515 557 286 571 429 549 l 58 68 b 29 14 43 53 29 38 b 51 -7 29 -3 35 -7 b 151 8 71 -7 88 8 b 492 -14 207 8 385 -14 z "},"ź":{"ha":675,"x_min":0,"x_max":0,"o":"m 324 733 b 547 836 381 714 529 786 b 503 908 560 874 538 908 b 401 846 472 908 444 882 b 311 756 350 799 315 768 b 324 733 308 750 307 739 z m 492 -14 b 604 136 589 -14 604 85 b 592 165 604 153 606 165 b 461 86 565 165 542 85 b 171 101 383 86 242 114 l 615 588 b 647 650 626 599 647 625 b 625 675 647 667 638 675 b 506 653 585 675 576 653 b 204 674 403 653 317 674 b 103 543 129 674 101 593 b 117 513 103 522 108 513 b 218 571 139 513 138 571 b 515 557 286 571 429 549 l 58 68 b 29 14 43 53 29 38 b 51 -7 29 -3 35 -7 b 151 8 71 -7 88 8 b 492 -14 207 8 385 -14 z "},"ž":{"ha":675,"x_min":0,"x_max":0,"o":"m 364 744 b 460 821 403 744 407 754 b 538 917 500 874 535 907 b 525 933 539 924 540 932 b 375 850 492 936 417 889 b 249 933 343 889 282 936 b 231 917 235 932 232 924 b 279 826 232 907 250 876 b 364 744 319 753 325 744 z m 492 -14 b 604 136 589 -14 604 85 b 592 165 604 153 606 165 b 461 86 565 165 542 85 b 171 101 383 86 242 114 l 615 588 b 647 650 626 599 647 625 b 625 675 647 667 638 675 b 506 653 585 675 576 653 b 204 674 403 653 317 674 b 103 543 129 674 101 593 b 117 513 103 522 108 513 b 218 571 139 513 138 571 b 515 557 286 571 429 549 l 58 68 b 29 14 43 53 29 38 b 51 -7 29 -3 35 -7 b 151 8 71 -7 88 8 b 492 -14 207 8 385 -14 z "},"ż":{"ha":675,"x_min":0,"x_max":0,"o":"m 400 783 b 506 868 444 779 500 828 b 456 932 508 894 488 928 b 347 844 408 940 351 889 b 400 783 343 810 369 786 z m 492 -14 b 604 136 589 -14 604 85 b 592 165 604 153 606 165 b 461 86 565 165 542 85 b 171 101 383 86 242 114 l 615 588 b 647 650 626 599 647 625 b 625 675 647 667 638 675 b 506 653 585 675 576 653 b 204 674 403 653 317 674 b 103 543 129 674 101 593 b 117 513 103 522 108 513 b 218 571 139 513 138 571 b 515 557 286 571 429 549 l 58 68 b 29 14 43 53 29 38 b 51 -7 29 -3 35 -7 b 151 8 71 -7 88 8 b 492 -14 207 8 385 -14 z "},"ª":{"ha":544,"x_min":0,"x_max":0,"o":"m 542 625 b 507 600 532 625 521 600 b 490 631 489 600 490 615 l 508 950 b 494 986 510 976 508 986 b 436 968 476 986 465 968 b 335 986 414 968 371 986 b 114 706 206 986 114 850 b 254 553 114 601 181 553 b 433 675 340 553 401 617 b 479 556 421 567 446 556 b 549 615 513 556 544 586 b 542 625 550 621 547 625 z m 442 808 b 285 604 433 688 358 604 b 176 739 240 604 176 628 b 332 956 176 828 229 956 b 443 833 393 956 449 911 z "},"º":{"ha":529,"x_min":0,"x_max":0,"o":"m 293 553 b 536 818 429 553 536 674 b 363 986 536 906 474 986 b 115 725 228 986 115 863 b 293 553 115 628 189 553 z m 308 586 b 183 746 218 586 183 658 b 353 954 183 839 243 954 b 465 803 438 954 465 881 b 308 586 465 697 410 586 z "},"А":{"ha":932,"x_min":0,"x_max":0,"o":"m 115 0 b 163 26 142 0 158 6 b 147 158 168 63 88 43 l 201 258 b 449 301 222 301 222 301 b 669 264 660 301 660 301 l 697 157 b 636 21 724 49 643 61 b 686 0 633 4 656 0 l 818 0 b 885 25 861 0 881 4 b 801 156 890 61 831 43 l 600 953 b 575 972 596 964 588 972 l 463 972 b 424 949 432 972 425 961 b 458 849 417 907 496 919 l 93 158 b -40 21 26 33 -33 64 b 8 0 -43 6 -22 0 z m 457 347 b 261 374 247 347 247 347 l 518 864 l 640 383 b 457 347 649 347 649 347 z "},"Б":{"ha":889,"x_min":0,"x_max":0,"o":"m 350 0 b 814 311 631 0 788 124 b 368 663 843 515 693 663 b 332 661 353 663 342 661 b 304 688 310 660 301 669 l 329 857 b 514 924 335 903 358 924 l 581 924 b 750 782 700 924 729 865 b 794 724 763 736 776 724 b 817 765 813 724 817 742 b 819 931 825 829 824 892 b 731 974 815 964 807 974 l 238 972 b 169 950 194 972 172 968 b 232 858 165 915 229 929 b 228 804 232 844 232 832 l 138 168 b 126 114 133 140 132 128 b 39 22 106 44 43 57 b 101 0 36 4 58 0 z m 358 51 b 222 89 226 51 218 65 l 289 574 b 367 611 293 603 307 614 b 703 285 581 608 728 472 b 358 51 676 101 533 51 z "},"В":{"ha":863,"x_min":0,"x_max":0,"o":"m 317 0 b 790 301 579 0 757 72 b 515 576 811 453 696 557 b 726 757 653 594 715 671 b 433 972 746 889 651 972 l 238 972 b 169 950 194 972 172 968 b 232 858 165 915 229 929 b 228 804 232 844 232 832 l 138 168 b 126 114 133 140 132 128 b 39 22 106 44 43 57 b 101 0 36 4 58 0 z m 379 604 b 297 631 331 604 293 604 l 331 861 b 436 924 338 917 368 924 b 622 749 561 924 639 857 b 379 604 610 650 549 604 z m 322 50 b 229 147 232 50 219 79 l 279 494 b 375 551 283 531 290 551 b 681 288 593 551 704 453 b 322 50 656 115 538 50 z "},"Г":{"ha":778,"x_min":0,"x_max":0,"o":"m 219 1 b 286 24 265 1 286 7 b 228 115 292 58 233 47 b 231 156 228 129 229 143 l 329 857 b 514 924 335 903 358 924 l 572 924 b 743 782 693 924 721 865 b 788 724 756 736 769 724 b 810 765 806 724 810 742 b 811 931 817 829 815 892 b 724 974 808 964 800 974 l 238 972 b 169 950 194 972 172 968 b 232 858 165 915 229 929 b 228 804 232 844 232 832 l 136 156 b 126 115 136 143 132 129 b 39 24 106 46 43 58 b 101 1 38 7 58 1 z "},"Ґ":{"ha":763,"x_min":0,"x_max":0,"o":"m 182 1 b 249 24 228 1 249 7 b 190 115 254 58 196 47 b 193 156 190 129 190 143 l 292 857 b 476 924 297 903 321 924 l 700 924 b 799 967 776 924 786 933 b 844 1132 814 1006 832 1068 b 832 1174 849 1154 850 1174 b 774 1115 814 1174 799 1161 b 561 974 726 1032 681 974 l 200 972 b 132 950 157 972 135 968 b 194 858 128 915 192 929 b 190 804 194 844 194 832 l 99 156 b 89 115 96 143 94 129 b 1 24 68 46 6 58 b 64 1 0 7 21 1 z "},"Д":{"ha":924,"x_min":0,"x_max":0,"o":"m -83 -158 b -24 -103 -68 -158 -51 -144 b 167 -1 21 -36 82 -1 l 625 0 b 788 -101 711 0 761 -35 b 831 -156 804 -143 815 -156 b 863 -117 854 -156 860 -136 b 861 7 867 -69 867 -32 b 756 51 857 36 849 51 b 721 106 719 51 717 56 l 819 804 b 832 858 824 832 826 844 b 919 950 853 929 914 915 b 857 972 922 968 900 972 l 342 972 b 260 942 274 972 263 964 b 315 808 256 906 332 915 b 81 89 289 611 222 317 b 15 49 63 60 40 49 b -67 6 -43 49 -56 35 b -101 -118 -83 -33 -94 -71 b -83 -158 -107 -137 -107 -158 z m 131 49 b 396 847 269 333 311 493 b 578 924 410 911 468 924 b 733 857 721 924 739 903 l 621 51 z "},"Е":{"ha":851,"x_min":0,"x_max":0,"o":"m 619 0 b 736 43 710 0 724 15 b 776 183 753 82 763 119 b 765 222 781 203 782 219 b 708 167 749 225 733 215 b 501 51 661 83 633 53 l 389 49 b 225 119 235 47 218 68 l 278 496 b 440 564 288 565 331 564 b 643 442 611 563 599 429 b 660 514 661 447 667 458 l 651 610 b 624 657 647 646 636 657 b 447 613 586 657 610 613 b 304 681 339 613 294 611 l 329 857 b 514 924 335 903 358 924 l 582 924 b 781 789 700 924 751 878 b 826 743 796 753 803 738 b 846 783 846 746 847 761 b 832 933 849 849 840 896 b 746 974 828 967 824 974 l 236 972 b 169 950 194 972 172 972 b 228 804 164 910 247 949 l 138 168 b 39 22 118 24 44 63 b 100 0 36 0 57 0 z "},"Ё":{"ha":851,"x_min":0,"x_max":0,"o":"m 404 1085 b 483 1156 444 1085 483 1114 b 425 1211 483 1188 458 1211 b 351 1133 383 1211 351 1172 b 404 1085 351 1104 375 1085 z m 592 1085 b 672 1156 632 1085 672 1114 b 613 1211 672 1188 646 1211 b 539 1133 572 1211 539 1172 b 592 1085 539 1104 563 1085 z m 619 0 b 736 43 710 0 724 15 b 776 183 753 82 763 119 b 765 222 781 203 782 219 b 708 167 749 225 733 215 b 501 51 661 83 633 53 l 389 49 b 225 119 235 47 218 68 l 278 496 b 440 564 288 565 331 564 b 643 442 611 563 599 429 b 660 514 661 447 667 458 l 651 610 b 624 657 647 646 636 657 b 447 613 586 657 610 613 b 304 681 339 613 294 611 l 329 857 b 514 924 335 903 358 924 l 582 924 b 781 789 700 924 751 878 b 826 743 796 753 803 738 b 846 783 846 746 847 761 b 832 933 849 849 840 896 b 746 974 828 967 824 974 l 236 972 b 169 950 194 972 172 972 b 228 804 164 910 247 949 l 138 168 b 39 22 118 24 44 63 b 100 0 36 0 57 0 z "},"Ж":{"ha":1469,"x_min":0,"x_max":0,"o":"m 193 0 b 228 21 214 0 226 10 b 222 140 233 57 169 57 l 493 563 l 674 304 l 654 167 b 571 22 639 54 576 58 b 626 0 569 7 579 0 l 729 0 b 792 22 776 0 790 7 b 749 167 796 54 733 53 l 768 301 l 1035 575 l 1189 140 b 1151 21 1221 57 1157 57 b 1181 0 1150 10 1160 0 l 1363 0 b 1397 21 1385 0 1396 10 b 1294 132 1401 53 1325 46 l 1107 650 l 1279 826 b 1425 951 1375 922 1419 914 b 1371 972 1426 965 1417 972 l 1269 972 b 1224 950 1239 972 1225 965 b 1211 826 1218 918 1306 921 l 779 386 l 838 806 b 922 950 854 918 917 914 b 867 972 924 967 914 972 l 763 972 b 701 950 717 972 703 965 b 743 806 696 918 760 919 l 685 386 l 376 826 b 400 950 313 921 396 918 b 360 972 401 965 390 972 l 260 972 b 199 951 213 972 200 965 b 308 826 194 914 242 922 l 442 638 l 117 132 b -18 21 63 46 -12 53 b 13 0 -18 10 -11 0 z "},"З":{"ha":772,"x_min":0,"x_max":0,"o":"m 293 -11 b 701 281 486 -15 674 81 b 476 538 719 404 664 513 b 710 776 596 560 696 653 b 483 983 731 940 581 983 b 307 968 386 983 350 968 b 250 983 278 968 269 983 b 190 910 224 983 213 968 b 147 764 175 872 158 818 b 163 724 143 742 143 724 b 214 763 179 724 194 735 b 461 931 269 836 331 931 b 604 764 551 931 621 881 b 318 561 588 638 506 581 b 313 507 279 557 269 508 b 590 258 546 500 610 393 b 324 43 569 118 453 43 b 106 215 188 43 132 131 b 74 263 96 246 92 260 b 42 224 53 264 43 246 b 46 94 36 157 43 135 b 136 7 47 43 86 21 b 293 -11 172 -1 231 -10 z "},"И":{"ha":1124,"x_min":0,"x_max":0,"o":"m 219 0 b 288 22 265 0 286 4 b 229 153 293 63 215 42 l 925 756 l 840 156 b 742 24 826 56 749 64 b 804 1 742 7 763 1 l 924 1 b 990 24 968 1 989 7 b 935 156 996 67 918 43 l 1026 817 b 1125 949 1042 926 1118 911 b 1063 971 1125 967 1104 971 l 943 971 b 876 949 899 971 878 967 b 933 832 869 911 946 919 l 242 229 l 324 817 b 421 949 339 933 415 908 b 358 971 422 967 401 971 l 240 971 b 174 949 194 971 174 967 b 229 817 167 904 244 932 l 138 156 b 39 22 122 53 44 63 b 101 0 38 4 58 0 z "},"Й":{"ha":1124,"x_min":0,"x_max":0,"o":"m 661 1050 b 871 1192 771 1050 861 1114 b 839 1235 875 1213 864 1235 b 669 1096 765 1235 764 1096 b 536 1235 571 1096 610 1235 b 489 1192 510 1235 493 1213 b 661 1050 478 1114 551 1050 z m 219 0 b 288 22 265 0 286 4 b 229 153 293 63 215 42 l 925 756 l 840 156 b 742 24 826 56 749 64 b 804 1 742 7 763 1 l 924 1 b 990 24 968 1 989 7 b 935 156 996 67 918 43 l 1026 817 b 1125 949 1042 926 1118 911 b 1063 971 1125 967 1104 971 l 943 971 b 876 949 899 971 878 967 b 933 832 869 911 946 919 l 242 229 l 324 817 b 421 949 339 933 415 908 b 358 971 422 967 401 971 l 240 971 b 174 949 194 971 174 967 b 229 817 167 904 244 932 l 138 156 b 39 22 122 53 44 63 b 101 0 38 4 58 0 z "},"К":{"ha":897,"x_min":0,"x_max":0,"o":"m 778 972 b 732 949 754 972 735 968 b 728 847 725 901 814 921 l 274 474 l 321 817 b 419 949 336 919 414 907 b 357 971 422 967 400 971 l 239 971 b 171 949 193 971 174 967 b 228 817 165 906 243 929 l 135 156 b 39 24 121 53 43 65 b 100 1 36 7 57 1 l 218 1 b 288 24 264 1 285 7 b 229 156 292 67 214 43 l 264 404 l 560 650 l 710 138 b 671 26 736 51 675 57 b 733 0 667 4 690 0 l 854 0 b 901 22 881 0 900 4 b 817 128 907 58 843 40 l 638 711 l 803 847 b 963 950 901 929 956 907 b 900 972 965 968 943 972 z "},"Л":{"ha":956,"x_min":0,"x_max":0,"o":"m 63 -14 b 199 46 99 -14 149 -7 b 442 847 324 175 374 501 b 631 924 456 911 506 924 b 776 857 757 924 782 903 l 678 156 b 667 115 675 143 672 129 b 579 24 647 46 585 58 b 642 1 579 7 600 1 l 761 1 b 828 24 806 1 826 7 b 769 115 833 58 774 47 b 772 156 769 129 769 143 l 863 806 b 963 950 878 915 957 914 b 886 972 964 964 956 972 l 401 972 b 321 950 332 972 322 964 b 376 808 315 914 392 915 b 125 92 314 361 221 92 b 33 175 72 92 90 175 b -44 100 3 175 -36 158 b 63 -14 -54 26 1 -14 z "},"М":{"ha":1232,"x_min":0,"x_max":0,"o":"m 172 0 b 239 26 215 0 235 6 b 190 164 244 69 168 44 l 310 829 l 514 74 b 554 64 518 63 529 58 b 588 88 571 69 579 75 l 1036 836 l 960 160 b 865 25 947 51 871 65 b 926 0 861 4 883 0 l 1047 0 b 1106 25 1083 0 1101 4 b 1053 160 1111 64 1043 53 l 1126 825 b 1204 951 1138 931 1200 918 b 1160 972 1206 967 1196 972 l 1081 972 b 1047 951 1065 972 1054 967 l 586 172 l 375 951 b 346 972 369 967 361 972 l 260 972 b 211 951 224 972 211 967 b 254 825 206 922 271 919 l 138 164 b 39 26 115 44 44 71 b 93 0 35 6 58 0 z "},"Н":{"ha":1089,"x_min":0,"x_max":0,"o":"m 219 0 b 288 22 265 0 286 4 b 228 114 292 57 233 44 b 231 154 228 128 229 140 l 268 425 b 575 493 278 493 278 493 b 843 425 854 493 854 493 l 807 154 b 796 114 806 140 801 128 b 708 22 776 44 714 57 b 771 0 708 4 729 0 l 890 0 b 957 22 935 0 956 4 b 899 114 963 57 903 44 b 901 154 899 128 900 140 l 993 818 b 1004 858 994 832 999 844 b 1092 950 1024 929 1086 915 b 1029 972 1092 968 1071 972 l 910 972 b 843 950 865 972 844 968 b 901 858 838 915 897 928 b 899 818 901 844 900 832 l 871 610 b 583 542 861 542 861 542 b 294 610 285 542 285 542 l 324 818 b 333 858 324 832 328 844 b 421 950 354 929 417 915 b 358 972 422 968 401 972 l 240 972 b 174 950 194 972 174 968 b 232 858 168 915 226 928 b 229 818 232 844 231 832 l 138 154 b 126 114 136 140 132 128 b 39 22 106 44 43 57 b 101 0 38 4 58 0 z "},"О":{"ha":1078,"x_min":0,"x_max":0,"o":"m 479 -10 b 1040 582 810 -24 1040 251 b 635 983 1040 788 900 983 b 75 406 321 983 75 721 b 479 -10 75 160 267 -1 z m 531 42 b 179 421 313 42 179 188 b 618 932 179 700 364 932 b 938 561 814 932 938 789 b 531 42 938 297 785 42 z "},"П":{"ha":1049,"x_min":0,"x_max":0,"o":"m 219 1 b 286 24 265 1 286 6 b 228 115 292 58 233 46 b 231 156 228 129 228 142 l 329 857 b 611 919 335 901 356 919 b 865 857 857 919 871 901 l 767 156 b 756 115 764 142 761 129 b 668 24 736 46 674 58 b 731 1 668 6 689 1 l 850 1 b 917 24 896 1 917 6 b 858 115 922 58 864 46 b 861 156 858 129 858 142 l 951 804 b 964 858 956 832 958 844 b 1051 950 983 929 1046 915 b 989 972 1054 968 1032 972 l 238 972 b 169 950 194 972 172 968 b 232 858 165 915 229 929 b 228 804 232 844 232 832 l 136 156 b 126 115 133 142 132 129 b 39 24 106 46 43 58 b 101 1 38 6 58 1 z "},"Р":{"ha":868,"x_min":0,"x_max":0,"o":"m 219 1 b 286 24 265 1 286 7 b 232 163 293 65 213 47 b 250 288 238 204 243 247 b 281 315 254 317 251 315 l 394 315 b 857 638 674 315 829 439 b 450 972 881 814 750 972 l 238 972 b 169 950 194 972 172 968 b 228 804 163 901 249 954 l 136 156 b 39 24 119 35 44 65 b 101 1 38 7 58 1 z m 401 365 b 265 403 269 365 261 381 l 333 885 b 440 922 338 914 351 922 b 744 611 657 922 769 783 b 401 365 717 415 576 365 z "},"С":{"ha":943,"x_min":0,"x_max":0,"o":"m 490 -14 b 860 146 694 -14 824 107 b 842 189 894 186 871 217 b 518 53 767 118 672 53 b 188 508 288 53 151 242 b 593 918 217 718 374 918 b 876 738 776 918 828 817 b 925 696 892 710 904 693 b 947 736 942 699 947 714 b 933 910 944 818 938 872 b 893 983 928 968 919 983 b 835 969 874 983 864 969 b 665 986 790 969 757 986 b 81 493 367 986 122 790 b 490 -14 42 215 201 -14 z "},"Т":{"ha":876,"x_min":0,"x_max":0,"o":"m 449 1 b 517 24 494 1 515 7 b 457 115 521 58 463 47 b 460 156 457 129 457 143 l 558 853 b 650 926 565 904 588 926 b 810 808 767 926 779 889 b 854 751 828 765 836 751 b 885 790 878 751 883 772 b 886 931 893 854 892 892 b 782 974 883 958 874 974 l 272 972 b 157 929 182 972 169 957 b 119 789 140 890 131 853 b 139 750 117 769 115 750 b 197 807 157 750 169 764 b 393 924 254 888 276 924 b 463 851 454 924 469 903 l 367 156 b 356 115 364 143 361 129 b 268 24 335 46 272 58 b 331 1 267 7 288 1 z "},"У":{"ha":869,"x_min":0,"x_max":0,"o":"m 192 -14 b 453 222 272 -14 336 25 l 804 814 b 942 950 878 936 935 907 b 893 971 942 965 922 971 l 786 971 b 739 944 760 971 740 965 b 749 814 733 908 817 928 l 472 346 l 286 814 b 336 950 247 914 331 914 b 281 972 338 965 328 972 l 146 972 b 99 950 113 972 99 965 b 175 814 93 918 135 914 l 404 242 b 403 224 407 235 407 231 b 265 86 357 138 317 86 b 181 144 217 86 233 144 b 106 69 149 144 113 114 b 192 -14 96 3 158 -14 z "},"Ф":{"ha":1086,"x_min":0,"x_max":0,"o":"m 554 0 b 622 22 600 0 621 4 b 568 175 629 72 551 14 b 586 190 569 186 576 192 b 696 185 615 188 646 185 b 1040 492 860 185 1014 311 b 782 801 1064 667 961 801 b 669 797 735 801 704 800 b 658 813 660 796 657 801 b 756 950 682 947 749 903 b 693 972 758 968 736 972 l 574 972 b 507 950 529 972 510 968 b 563 813 500 900 579 953 b 546 797 561 801 554 796 b 436 801 511 800 475 801 b 92 492 274 801 117 671 b 350 185 67 315 178 185 b 463 189 394 185 431 188 b 474 174 469 190 476 185 b 375 22 446 22 382 71 b 435 0 372 4 393 0 z m 432 238 b 200 497 271 238 181 356 b 504 747 224 657 318 747 b 554 744 519 747 536 746 l 483 243 b 432 238 467 240 449 238 z m 636 238 b 578 243 615 238 596 239 l 649 744 b 699 747 667 746 683 747 b 932 497 883 747 954 658 b 636 238 911 349 803 238 z "},"Х":{"ha":960,"x_min":0,"x_max":0,"o":"m 111 1 b 160 28 138 1 157 7 b 171 131 165 64 96 44 l 443 449 l 626 150 b 581 22 685 58 588 64 b 631 1 579 7 600 1 l 790 1 b 860 28 838 1 857 7 b 746 150 864 64 806 53 l 529 501 l 825 840 b 971 950 907 935 964 907 b 924 971 972 965 953 971 l 824 971 b 775 944 797 971 778 965 b 764 840 771 908 839 928 l 504 540 l 332 822 b 379 950 275 914 372 908 b 329 971 379 965 360 971 l 168 971 b 100 944 122 971 103 965 b 214 822 94 908 154 919 l 418 489 l 111 132 b -36 22 31 38 -29 65 b 13 1 -37 7 -18 1 z "},"Ч":{"ha":942,"x_min":0,"x_max":0,"o":"m 742 1 b 808 24 786 1 807 7 b 750 115 814 58 754 47 b 753 156 750 129 750 143 l 844 817 b 856 857 847 831 850 843 b 943 949 875 926 938 914 b 881 971 943 967 922 971 l 761 971 b 694 949 717 971 696 967 b 753 857 689 914 749 926 b 750 817 753 843 753 831 l 697 429 b 422 399 589 408 490 399 b 231 715 200 399 203 542 l 246 815 b 256 856 249 829 251 842 b 342 947 276 926 338 913 b 282 969 344 965 324 969 l 163 969 b 94 947 117 969 96 965 b 153 856 89 913 149 925 b 151 815 154 842 154 829 l 133 686 b 390 349 107 494 136 349 b 689 376 472 349 578 358 l 658 156 b 647 115 656 143 653 129 b 560 24 628 46 565 58 b 622 1 560 7 581 1 z "},"Ц":{"ha":1033,"x_min":0,"x_max":0,"o":"m 940 -156 b 972 -117 964 -156 969 -136 b 971 7 976 -69 976 -32 b 897 51 967 36 960 51 b 853 106 864 51 850 69 l 953 817 b 964 857 956 831 958 843 b 1051 949 985 926 1046 914 b 989 971 1053 967 1032 971 l 869 971 b 803 949 825 971 804 967 b 861 857 799 914 857 926 b 860 817 861 843 863 831 l 761 115 b 492 53 756 71 735 53 b 225 115 233 53 219 71 l 324 817 b 333 857 326 831 328 843 b 421 949 354 926 417 914 b 358 971 422 967 401 971 l 240 971 b 174 949 194 971 174 967 b 232 857 168 914 226 926 b 229 817 232 843 232 831 l 139 168 b 126 114 135 140 132 128 b 39 22 106 44 43 57 b 101 0 36 4 58 0 l 736 0 b 897 -101 821 0 871 -35 b 940 -156 914 -143 925 -156 z "},"Ш":{"ha":1514,"x_min":0,"x_max":0,"o":"m 1317 0 b 1383 22 1358 0 1381 4 b 1322 114 1389 57 1324 44 b 1326 168 1322 128 1322 140 l 1417 817 b 1428 857 1419 831 1422 843 b 1515 949 1447 926 1510 914 b 1453 971 1515 967 1494 971 l 1333 971 b 1267 949 1289 971 1268 967 b 1325 857 1261 914 1321 926 b 1322 817 1325 843 1325 831 l 1225 115 b 996 53 1219 71 1199 53 b 772 115 781 53 767 71 l 869 817 b 881 857 872 831 875 843 b 968 949 901 926 963 914 b 906 971 969 967 949 971 l 786 971 b 719 949 742 971 721 967 b 778 857 715 914 774 926 b 776 817 778 843 779 831 l 678 115 b 450 53 672 71 651 53 b 225 115 233 53 219 71 l 324 817 b 333 857 326 831 328 843 b 421 949 354 926 417 914 b 358 971 422 967 401 971 l 240 971 b 174 949 194 971 174 967 b 232 857 168 914 226 926 b 229 817 232 843 232 831 l 139 168 b 126 114 135 140 132 128 b 39 22 106 44 43 57 b 101 0 36 4 58 0 z "},"Щ":{"ha":1497,"x_min":0,"x_max":0,"o":"m 1404 -156 b 1435 -117 1428 -156 1433 -136 b 1435 7 1440 -69 1440 -32 b 1361 51 1431 36 1422 51 b 1317 106 1328 51 1313 69 l 1417 817 b 1428 857 1419 831 1422 843 b 1515 949 1447 926 1510 914 b 1453 971 1515 967 1494 971 l 1333 971 b 1267 949 1289 971 1268 967 b 1325 857 1261 914 1321 926 b 1322 817 1325 843 1325 831 l 1225 115 b 996 53 1219 71 1199 53 b 772 115 781 53 767 71 l 869 817 b 881 857 872 831 875 843 b 968 949 901 926 963 914 b 906 971 969 967 949 971 l 786 971 b 719 949 742 971 721 967 b 778 857 715 914 774 926 b 776 817 778 843 779 831 l 678 115 b 450 53 672 71 651 53 b 225 115 233 53 219 71 l 324 817 b 333 857 326 831 328 843 b 421 949 354 926 417 914 b 358 971 422 967 401 971 l 240 971 b 174 949 194 971 174 967 b 232 857 168 914 226 926 b 229 817 232 843 232 831 l 139 168 b 126 114 135 140 132 128 b 39 22 106 44 43 57 b 101 0 36 4 58 0 l 1199 0 b 1361 -101 1285 0 1335 -35 b 1404 -156 1378 -143 1389 -156 z "},"Ь":{"ha":832,"x_min":0,"x_max":0,"o":"m 351 0 b 814 311 631 0 788 124 b 368 663 843 515 693 663 b 332 661 354 663 342 661 b 304 688 310 660 301 669 l 324 817 b 333 857 326 831 328 843 b 421 949 354 926 417 914 b 358 971 422 967 401 971 l 240 971 b 174 949 194 971 174 967 b 232 857 168 914 226 926 b 229 817 232 843 232 831 l 139 168 b 126 114 135 140 132 128 b 39 22 106 44 43 57 b 101 0 36 4 58 0 z m 357 49 b 221 86 225 49 218 63 l 289 574 b 367 611 293 603 307 614 b 703 285 582 608 728 472 b 357 49 676 101 532 49 z "},"Ы":{"ha":1282,"x_min":0,"x_max":0,"o":"m 351 0 b 814 311 631 0 788 124 b 368 663 843 515 693 663 b 332 661 354 663 342 661 b 304 688 310 660 301 669 l 324 817 b 333 857 326 831 328 843 b 421 949 354 926 417 914 b 358 971 422 967 401 971 l 240 971 b 174 949 194 971 174 967 b 232 857 168 914 226 926 b 229 817 232 843 232 831 l 139 168 b 126 114 135 140 132 128 b 39 22 106 44 43 57 b 101 0 36 4 58 0 z m 1082 1 b 1149 24 1128 1 1149 7 b 1090 115 1154 58 1096 47 b 1093 156 1090 129 1090 143 l 1185 817 b 1196 857 1188 831 1190 843 b 1283 949 1215 926 1278 914 b 1221 971 1285 967 1264 971 l 1101 971 b 1035 949 1057 971 1036 967 b 1093 857 1031 914 1089 926 b 1090 817 1093 843 1093 831 l 999 156 b 988 115 996 143 993 129 b 900 24 968 46 906 58 b 963 1 900 7 921 1 z m 357 49 b 221 86 225 49 218 63 l 289 574 b 367 611 293 603 307 614 b 703 285 582 608 728 472 b 357 49 676 101 532 49 z "},"Ъ":{"ha":978,"x_min":0,"x_max":0,"o":"m 497 0 b 960 311 776 0 933 124 b 514 663 989 515 839 663 b 478 661 500 663 488 661 b 451 688 457 660 449 669 l 468 804 b 481 858 472 832 475 844 b 568 950 500 929 563 915 b 506 972 569 968 547 972 l 199 972 b 92 929 114 972 103 963 b 43 749 76 890 56 815 b 58 708 39 726 39 708 b 110 764 75 708 86 719 b 311 924 157 851 203 924 b 378 836 340 924 392 928 l 285 171 b 274 118 281 144 278 131 b 186 25 253 47 192 61 b 247 0 183 8 204 0 z m 504 51 b 368 89 372 51 365 65 l 435 574 b 513 611 439 603 454 614 b 849 285 728 608 874 472 b 504 51 822 101 679 51 z "},"Є":{"ha":910,"x_min":0,"x_max":0,"o":"m 460 -14 b 824 128 654 -14 786 88 b 803 171 857 168 833 194 b 514 67 731 114 638 67 b 183 476 299 67 161 229 b 356 421 246 439 303 421 b 578 489 440 421 506 489 b 724 431 632 489 693 431 b 754 454 740 431 751 438 b 551 571 758 483 635 571 b 303 496 482 571 389 496 b 190 531 264 496 226 507 b 581 922 226 732 360 922 b 860 736 763 922 811 817 b 899 696 876 710 882 696 b 921 736 918 696 922 714 b 907 910 917 818 911 872 b 867 983 901 968 893 983 b 808 969 847 983 838 969 b 639 986 764 969 731 986 b 81 486 350 986 122 783 b 460 -14 42 208 185 -14 z "},"Э":{"ha":903,"x_min":0,"x_max":0,"o":"m 301 -11 b 861 503 617 -14 822 228 b 508 986 901 790 743 986 b 271 969 374 986 314 969 b 214 983 240 969 233 983 b 154 910 188 983 176 968 b 107 736 139 872 121 818 b 124 696 103 714 104 696 b 169 738 140 696 149 710 b 488 940 228 817 301 940 b 767 531 722 940 790 728 b 642 496 724 507 681 496 b 415 571 556 496 485 571 b 179 454 332 571 183 483 b 203 431 176 438 185 431 b 365 489 232 431 311 489 b 568 421 438 489 483 421 b 756 475 621 421 682 439 b 368 46 706 221 540 46 b 107 215 222 46 139 128 b 76 261 96 244 93 258 b 44 222 56 263 46 244 b 49 93 39 156 46 133 b 139 6 50 42 89 19 b 301 -11 175 -3 228 -10 z "},"І":{"ha":422,"x_min":0,"x_max":0,"o":"m 219 1 b 288 24 265 1 286 7 b 228 115 292 58 233 47 b 231 156 228 129 228 143 l 324 817 b 333 857 326 831 328 843 b 421 949 354 926 417 914 b 358 971 422 967 401 971 l 240 971 b 174 949 194 971 174 967 b 232 857 168 914 226 926 b 229 817 232 843 232 831 l 138 156 b 126 115 135 143 132 129 b 39 24 106 46 43 58 b 101 1 38 7 58 1 z "},"Ї":{"ha":385,"x_min":0,"x_max":0,"o":"m 163 1085 b 251 1156 201 1085 244 1114 b 200 1211 256 1188 233 1211 b 114 1133 160 1211 121 1172 b 163 1085 111 1104 132 1085 z m 350 1085 b 439 1156 389 1085 432 1114 b 388 1211 443 1188 422 1211 b 303 1133 347 1211 308 1172 b 350 1085 299 1104 319 1085 z m 182 1 b 249 24 228 1 249 7 b 190 115 254 58 196 47 b 193 156 190 129 190 143 l 285 817 b 296 857 288 831 290 843 b 383 949 317 926 379 914 b 321 971 385 967 364 971 l 203 971 b 135 949 157 971 136 967 b 194 857 131 914 189 926 b 192 817 194 843 194 831 l 99 156 b 89 115 96 143 94 129 b 1 24 68 46 6 58 b 64 1 0 7 21 1 z "},"Ю":{"ha":1453,"x_min":0,"x_max":0,"o":"m 1010 983 b 460 514 732 983 508 779 l 279 514 l 321 817 b 419 949 336 919 414 907 b 357 971 422 967 400 971 l 239 971 b 171 949 193 971 174 967 b 228 817 165 906 243 929 l 135 156 b 39 24 121 53 43 65 b 100 1 36 7 57 1 l 218 1 b 288 24 264 1 285 7 b 229 156 292 67 214 43 l 272 464 l 453 464 b 450 406 451 444 450 425 b 854 -10 450 160 642 -1 b 1415 582 1185 -24 1415 251 b 1010 983 1415 788 1275 983 z m 904 42 b 554 421 688 42 554 188 b 993 932 554 700 739 932 b 1313 561 1189 932 1313 789 b 904 42 1313 297 1160 42 z "},"Я":{"ha":876,"x_min":0,"x_max":0,"o":"m 164 0 b 235 26 208 0 232 4 b 224 138 239 57 169 53 l 360 346 b 479 338 397 340 436 338 l 593 338 b 617 310 622 338 621 338 l 594 156 b 585 115 592 143 590 129 b 500 24 561 47 504 58 b 563 1 499 7 517 1 l 681 1 b 747 24 724 1 747 7 b 686 115 753 58 688 46 b 689 156 686 129 686 143 l 779 804 b 792 858 783 832 786 844 b 879 950 813 929 875 915 b 817 972 882 968 860 972 l 622 972 b 119 629 326 972 147 826 b 274 372 104 515 156 421 l 115 132 b -3 22 57 42 3 58 b 40 0 -6 4 14 0 z m 485 388 b 232 651 331 388 206 471 b 592 925 256 824 397 925 b 649 922 611 925 631 924 b 697 886 689 918 701 915 l 632 425 b 485 388 629 401 617 388 z "},"а":{"ha":815,"x_min":0,"x_max":0,"o":"m 735 101 b 676 63 718 101 700 63 b 651 111 650 63 650 88 l 681 624 b 657 681 683 664 681 681 b 564 651 629 681 611 651 b 403 681 529 651 460 681 b 49 231 196 681 49 463 b 272 -14 49 65 156 -14 b 560 183 410 -14 507 88 b 633 -10 539 11 579 -10 b 744 88 688 -10 738 39 b 735 101 746 94 742 101 z m 574 396 b 321 69 560 203 440 69 b 150 285 251 69 150 107 b 397 631 149 426 233 631 b 576 436 494 631 585 561 z "},"б":{"ha":793,"x_min":0,"x_max":0,"o":"m 743 432 b 472 686 740 564 643 686 b 150 453 333 686 211 593 b 328 800 164 643 258 761 b 651 872 456 867 551 826 b 742 976 707 897 736 931 b 701 983 746 1004 725 1004 b 649 957 688 971 668 963 b 558 947 622 950 590 947 b 353 907 464 942 390 925 b 68 411 181 828 99 629 b 339 -14 29 121 169 -14 b 743 432 568 -14 747 192 z m 361 40 b 168 286 235 40 171 154 b 442 625 167 433 271 625 b 638 399 582 625 638 525 b 361 40 638 233 540 40 z "},"в":{"ha":671,"x_min":0,"x_max":0,"o":"m 311 -14 b 594 219 458 -14 594 68 b 443 372 594 303 526 358 b 618 540 540 392 618 463 b 443 681 618 632 542 679 b 50 254 236 681 50 479 b 311 -14 50 103 157 -14 z m 339 36 b 150 290 200 36 150 154 b 413 633 150 443 257 633 b 525 533 478 633 525 590 b 319 388 525 450 439 386 b 275 360 293 388 278 372 b 304 336 272 347 282 335 b 483 201 404 336 483 293 b 339 36 483 108 417 36 z "},"г":{"ha":560,"x_min":0,"x_max":0,"o":"m 207 -12 b 449 94 332 -12 419 71 b 429 139 481 124 461 163 b 236 58 397 118 324 58 b 131 147 179 58 131 82 b 290 328 131 233 208 281 b 486 554 386 382 486 435 b 338 681 486 639 414 681 b 108 575 257 681 172 647 b 131 539 75 536 113 524 b 307 615 194 590 247 615 b 388 554 361 615 386 582 b 265 383 390 483 339 429 b 32 138 161 317 32 260 b 207 -12 32 63 82 -12 z "},"ґ":{"ha":560,"x_min":0,"x_max":0,"o":"m 308 753 b 532 856 365 733 514 806 b 488 928 544 893 522 928 b 386 865 457 928 429 901 b 296 775 335 818 300 788 b 308 753 293 769 292 758 z m 207 -12 b 449 94 332 -12 419 71 b 429 139 481 124 461 163 b 236 58 397 118 324 58 b 131 147 179 58 131 82 b 290 328 131 233 208 281 b 486 554 386 382 486 435 b 338 681 486 639 414 681 b 108 575 257 681 172 647 b 131 539 75 536 113 524 b 307 615 194 590 247 615 b 388 554 361 615 386 582 b 265 383 390 483 339 429 b 32 138 161 317 32 260 b 207 -12 32 63 82 -12 z "},"д":{"ha":725,"x_min":0,"x_max":0,"o":"m 382 963 b 339 943 365 972 340 960 b 351 921 338 936 340 928 b 563 594 468 853 536 774 b 386 679 522 649 460 681 b 54 282 179 679 54 479 b 321 -14 54 106 160 -14 b 679 485 574 -14 678 253 b 382 963 679 717 583 894 z m 340 38 b 156 276 214 38 156 156 b 392 619 156 444 229 619 b 574 400 522 619 574 522 b 340 38 574 228 501 38 z "},"е":{"ha":711,"x_min":0,"x_max":0,"o":"m 588 176 b 351 64 528 121 451 64 b 164 217 254 64 183 131 b 644 522 450 258 644 356 b 447 681 644 625 557 681 b 51 271 197 681 51 442 b 319 -14 51 78 188 -14 b 621 157 465 -14 583 93 b 588 176 640 189 611 200 z m 407 624 b 535 504 482 624 535 576 b 207 274 535 396 422 307 b 163 303 168 268 163 288 b 407 624 163 490 285 624 z "},"ё":{"ha":711,"x_min":0,"x_max":0,"o":"m 325 801 b 404 872 364 801 404 832 b 344 928 404 904 378 928 b 271 850 304 928 271 889 b 325 801 271 821 294 801 z m 513 801 b 592 872 551 801 592 832 b 532 928 592 904 567 928 b 458 850 492 928 458 889 b 513 801 458 821 482 801 z m 588 176 b 351 64 528 121 451 64 b 164 217 254 64 183 131 b 644 522 450 258 644 356 b 447 681 644 625 557 681 b 51 271 197 681 51 442 b 319 -14 51 78 188 -14 b 621 157 465 -14 583 93 b 588 176 640 189 611 200 z m 407 624 b 535 504 482 624 535 576 b 207 274 535 396 422 307 b 163 303 168 268 163 288 b 407 624 163 490 285 624 z "},"ж":{"ha":979,"x_min":0,"x_max":0,"o":"m 60 -10 b 211 157 133 -10 172 71 b 413 338 267 275 347 338 b 439 315 442 338 440 339 l 417 163 b 408 121 414 147 413 133 b 332 24 386 46 338 60 b 379 0 329 6 350 0 l 503 0 b 557 24 535 0 554 6 b 513 121 563 60 514 46 b 513 163 511 133 513 147 l 531 311 b 568 338 533 339 533 338 b 717 157 633 338 697 275 b 822 -10 732 71 749 -10 b 911 39 856 -10 910 7 b 893 53 911 49 904 54 b 811 185 846 54 840 74 b 644 358 788 274 771 333 b 746 443 688 374 722 410 b 838 568 789 503 813 568 b 908 536 868 568 868 536 b 968 607 929 536 960 551 b 904 681 974 651 943 681 b 713 474 817 681 772 560 b 585 385 679 424 640 385 l 572 385 b 547 411 544 385 544 385 l 558 504 b 568 547 560 519 564 533 b 644 644 590 621 639 607 b 597 667 646 661 626 667 l 474 667 b 418 643 442 667 421 661 b 464 547 414 607 461 621 b 463 504 465 533 464 519 l 451 411 b 421 385 447 385 447 385 l 408 385 b 307 463 356 385 329 419 b 172 681 269 550 263 681 b 89 607 133 681 94 651 b 129 536 81 551 108 536 b 207 568 169 536 176 568 b 269 428 236 568 235 490 b 340 357 285 400 306 369 b 126 185 208 332 175 274 b 7 53 65 74 54 54 b -17 39 -4 54 -14 49 b 60 -10 -24 7 26 -10 z "},"з":{"ha":606,"x_min":0,"x_max":0,"o":"m 261 -14 b 526 197 371 -14 506 49 b 379 372 536 265 499 349 b 529 529 457 390 519 449 b 354 681 543 636 444 681 b 240 671 294 681 267 671 b 203 681 221 671 217 681 b 161 631 185 681 178 669 b 132 529 153 607 139 567 b 143 500 129 514 129 500 b 175 528 154 500 163 510 b 340 631 213 578 254 631 b 422 533 411 631 429 579 b 225 386 415 479 371 399 b 217 340 199 383 190 342 b 436 182 399 336 447 260 b 251 47 422 79 326 47 b 74 113 178 47 108 72 b 35 89 53 133 19 119 b 261 -14 65 26 153 -14 z "},"и":{"ha":843,"x_min":0,"x_max":0,"o":"m 742 101 b 681 63 726 101 707 63 b 658 111 657 63 656 88 l 740 647 b 711 671 743 661 732 679 l 667 657 b 638 632 654 653 640 650 l 610 461 b 310 54 579 271 442 54 b 218 263 189 54 210 204 l 271 647 b 247 678 274 664 264 678 b 176 656 238 678 218 674 b 107 606 118 631 107 625 b 151 522 107 578 161 594 l 114 242 b 283 -14 93 72 160 -14 b 575 214 408 -14 504 88 b 643 -10 535 33 576 -10 b 753 88 694 -10 744 39 b 742 101 754 94 750 101 z "},"й":{"ha":843,"x_min":0,"x_max":0,"o":"m 460 744 b 669 886 569 744 660 808 b 638 929 674 907 663 929 b 468 790 564 929 563 790 b 335 929 369 790 408 929 b 288 886 308 929 292 907 b 460 744 276 808 350 744 z m 742 101 b 681 63 726 101 707 63 b 658 111 657 63 656 88 l 740 647 b 711 671 743 661 732 679 l 667 657 b 638 632 654 653 640 650 l 610 461 b 310 54 579 271 442 54 b 218 263 189 54 210 204 l 271 647 b 247 678 274 664 264 678 b 176 656 238 678 218 674 b 107 606 118 631 107 625 b 151 522 107 578 161 594 l 114 242 b 283 -14 93 72 160 -14 b 575 214 408 -14 504 88 b 643 -10 535 33 576 -10 b 753 88 694 -10 744 39 b 742 101 754 94 750 101 z "},"к":{"ha":724,"x_min":0,"x_max":0,"o":"m 568 -10 b 657 39 601 -10 656 7 b 639 53 657 49 650 54 b 547 185 592 54 586 74 b 382 365 517 274 508 340 b 574 568 494 429 533 568 b 644 536 604 568 604 536 b 704 607 665 536 696 551 b 640 681 710 651 679 681 b 274 385 503 681 474 385 l 263 385 b 239 411 238 385 236 388 l 250 504 b 260 547 251 519 256 533 b 335 644 282 621 331 607 b 289 667 338 661 318 667 l 165 667 b 110 643 133 667 113 661 b 156 547 104 607 153 621 b 154 504 157 533 156 519 l 108 163 b 99 121 107 147 103 133 b 24 24 76 46 29 60 b 71 0 21 6 42 0 l 193 0 b 249 24 226 0 246 6 b 203 121 254 60 206 46 b 204 163 201 133 203 147 l 224 321 b 258 338 225 335 233 338 b 453 157 369 338 422 274 b 568 -10 478 71 494 -10 z "},"л":{"ha":807,"x_min":0,"x_max":0,"o":"m 60 -14 b 169 36 103 -14 140 7 b 351 557 279 150 319 408 b 478 617 363 611 389 611 b 575 557 563 622 582 606 l 510 114 b 594 -10 500 47 521 -10 b 706 88 647 -10 697 39 b 694 101 707 94 703 101 b 633 63 678 101 660 63 b 604 111 610 63 600 88 l 665 542 b 724 644 675 607 718 608 b 671 665 725 658 717 667 b 442 665 629 665 525 671 b 236 613 292 656 236 646 b 271 579 236 599 251 588 b 289 510 296 568 293 551 b 106 67 268 375 193 67 b 46 113 74 67 89 113 b -10 54 21 113 -6 89 b 60 -14 -18 0 31 -14 z "},"м":{"ha":1001,"x_min":0,"x_max":0,"o":"m 60 -14 b 167 36 103 -14 136 7 b 339 510 275 150 317 408 b 418 67 365 365 389 215 b 475 47 422 36 446 42 b 517 81 497 50 504 60 l 757 508 l 729 113 b 814 -10 725 47 742 -10 b 925 88 867 -10 917 39 b 914 101 926 94 922 101 b 853 63 897 101 879 63 b 824 111 829 63 821 88 l 867 631 b 846 668 869 665 860 669 b 797 658 819 667 811 663 b 765 626 789 656 781 651 l 499 151 b 413 654 465 317 443 488 b 393 668 410 665 403 668 b 274 639 363 668 308 654 b 239 603 261 633 242 621 b 269 572 235 582 254 579 b 289 532 281 567 293 557 b 106 67 265 376 193 67 b 46 113 74 67 89 113 b -10 54 21 113 -6 89 b 60 -14 -18 0 31 -14 z "},"н":{"ha":838,"x_min":0,"x_max":0,"o":"m 750 101 b 689 63 733 101 715 63 b 660 111 665 63 656 88 l 738 654 b 710 678 740 672 729 682 l 663 668 b 639 643 649 665 642 657 l 600 364 l 233 364 l 275 647 b 251 675 276 664 268 675 b 178 656 242 675 231 675 b 108 607 118 633 108 624 b 153 515 108 578 163 585 l 82 8 b 110 -15 79 -10 92 -19 l 160 -6 b 183 19 174 -3 182 6 l 226 314 l 593 314 l 565 113 b 650 -10 557 47 576 -10 b 761 88 703 -10 753 39 b 750 101 763 94 758 101 z "},"о":{"ha":776,"x_min":0,"x_max":0,"o":"m 336 -14 b 724 411 553 -14 724 179 b 447 681 724 551 624 681 b 51 264 232 681 51 482 b 336 -14 51 107 169 -14 z m 360 39 b 160 296 217 39 160 157 b 431 629 160 446 256 629 b 611 386 567 629 611 513 b 360 39 611 217 521 39 z "},"п":{"ha":850,"x_min":0,"x_max":0,"o":"m 763 101 b 701 63 746 101 728 63 b 679 111 678 63 678 88 l 696 456 b 539 675 704 606 640 675 b 233 438 419 675 310 581 l 264 647 b 240 675 267 664 257 675 b 176 656 231 675 218 675 b 107 606 119 629 107 625 b 151 515 107 578 163 586 l 79 15 b 106 -10 76 -6 86 -15 l 153 6 b 175 31 167 10 172 15 l 204 204 b 488 596 236 393 357 596 b 597 449 569 596 601 532 l 583 113 b 663 -10 581 46 589 -10 b 774 88 715 -10 765 39 b 763 101 775 94 771 101 z "},"р":{"ha":776,"x_min":0,"x_max":0,"o":"m 729 458 b 514 675 725 561 663 675 b 251 544 408 675 307 614 l 265 650 b 243 676 268 665 260 676 b 181 657 233 676 233 676 b 111 611 119 636 111 624 b 157 533 111 589 164 579 l 65 -111 b -18 -256 50 -224 -14 -219 b 38 -278 -21 -272 -11 -278 l 139 -278 b 201 -256 185 -278 199 -272 b 163 -111 206 -224 147 -225 l 181 17 b 321 -10 228 -3 274 -10 b 729 458 531 -10 732 164 z m 347 43 b 194 261 257 43 178 100 b 450 597 215 467 329 597 b 613 422 551 597 610 533 b 347 43 615 236 513 43 z "},"с":{"ha":742,"x_min":0,"x_max":0,"o":"m 351 -14 b 654 146 500 -14 617 82 b 619 167 669 176 646 190 b 376 67 561 110 482 67 b 154 310 240 67 154 169 b 399 626 154 464 247 626 b 544 442 536 626 554 504 b 597 376 539 392 568 375 b 672 446 631 376 661 401 b 436 681 692 540 624 681 b 53 274 222 681 53 494 b 351 -14 53 113 171 -14 z "},"т":{"ha":1318,"x_min":0,"x_max":0,"o":"m 1231 101 b 1169 63 1215 101 1196 63 b 1147 111 1146 63 1147 88 l 1164 456 b 1008 675 1172 606 1110 675 b 708 453 885 675 776 579 b 536 675 724 597 661 675 b 235 449 414 675 296 558 l 263 647 b 239 675 265 664 256 675 b 174 656 229 675 217 675 b 106 606 118 629 106 625 b 150 515 106 578 160 586 l 76 10 b 103 -14 74 -10 85 -19 l 151 0 b 174 26 165 4 172 11 l 203 204 b 503 600 235 393 357 600 b 606 399 596 600 626 533 l 549 13 b 575 -12 546 -8 557 -18 l 624 3 b 646 28 638 6 643 13 l 675 204 b 956 600 707 393 825 600 b 1068 449 1039 600 1072 532 l 1050 113 b 1131 -10 1047 46 1057 -10 b 1242 88 1183 -10 1233 39 b 1231 101 1243 94 1239 101 z "},"у":{"ha":718,"x_min":0,"x_max":0,"o":"m 606 681 b 517 600 554 681 517 636 b 574 432 517 539 574 539 b 407 21 574 324 503 168 b 222 658 357 256 293 458 b 196 679 217 676 203 679 b 58 575 168 679 58 613 b 99 556 58 557 76 553 b 160 522 138 557 151 543 b 289 99 217 369 260 221 b 304 -26 304 36 308 3 b 122 -211 292 -119 219 -211 b 17 -154 61 -211 35 -185 b -51 -103 -8 -110 -29 -103 b -119 -181 -94 -103 -119 -140 b 32 -292 -119 -244 -71 -292 b 464 22 206 -292 344 -160 b 669 600 547 149 669 383 b 606 681 669 640 657 681 z "},"ф":{"ha":1051,"x_min":0,"x_max":0,"o":"m 489 -278 b 551 -256 536 -278 549 -272 b 508 -111 556 -224 492 -225 l 526 22 b 668 -14 572 -4 619 -14 b 990 319 844 -14 964 132 b 783 681 1021 539 950 681 b 608 606 715 681 651 654 l 660 958 b 639 983 663 981 654 985 b 532 946 618 982 599 975 b 489 913 497 931 490 924 b 511 882 486 900 494 892 b 539 767 547 860 546 817 l 515 606 b 376 681 488 656 433 681 b 56 324 197 681 81 500 b 282 -14 26 122 122 -14 b 433 22 331 -14 382 -4 l 415 -111 b 332 -256 400 -224 338 -219 b 388 -278 329 -274 340 -278 z m 693 35 b 543 144 588 35 538 108 l 588 456 b 746 619 599 544 657 619 b 892 296 878 619 917 481 b 693 35 867 119 799 35 z m 311 33 b 156 358 219 33 121 117 b 374 615 172 479 254 615 b 494 456 474 615 507 544 l 450 143 b 311 33 446 108 400 33 z "},"х":{"ha":693,"x_min":0,"x_max":0,"o":"m 694 606 b 631 674 694 636 679 674 b 361 399 535 674 442 522 l 267 657 b 242 679 261 672 250 679 b 115 565 211 679 115 603 b 154 551 115 550 132 543 b 211 524 182 561 200 557 l 290 310 b 92 89 213 197 139 89 b 31 119 68 89 56 119 b -17 56 3 119 -17 83 b 47 -14 -17 25 -3 -14 b 311 253 140 -14 232 126 l 350 147 b 483 -14 376 78 403 -14 b 608 61 547 -14 608 32 b 596 75 608 71 604 75 b 532 61 579 75 569 61 b 431 207 482 61 454 144 l 382 342 b 586 571 461 454 538 571 b 647 542 610 571 622 542 b 694 606 675 542 696 576 z "},"ч":{"ha":722,"x_min":0,"x_max":0,"o":"m 535 -10 b 644 88 588 -10 638 39 b 635 101 646 94 642 101 b 574 63 618 101 600 63 b 543 111 550 63 540 88 l 622 654 b 594 678 625 672 613 682 l 549 668 b 524 643 533 665 525 657 l 513 561 b 290 272 483 336 378 272 b 203 497 192 274 181 375 l 228 647 b 206 675 231 664 222 675 b 136 657 194 675 178 671 b 69 610 78 635 69 622 b 93 583 69 600 74 592 b 115 515 121 572 121 554 b 99 389 106 461 99 432 b 263 215 99 269 158 215 b 476 314 347 215 426 243 l 450 113 b 535 -10 442 46 461 -10 z "},"ц":{"ha":819,"x_min":0,"x_max":0,"o":"m 750 101 b 681 63 725 101 707 63 b 658 111 656 63 654 88 l 733 647 b 704 671 736 661 725 679 l 660 657 b 631 632 647 653 633 650 l 610 461 b 310 54 586 271 457 54 b 218 263 188 54 210 204 l 271 647 b 247 675 274 664 264 675 b 174 656 238 675 235 675 b 107 610 115 636 107 622 b 131 583 107 600 111 592 b 151 515 158 572 156 556 l 114 242 b 282 -14 92 72 156 -14 b 564 190 414 -14 499 75 b 642 -10 531 38 579 -10 b 718 22 671 -10 699 4 b 626 -93 713 -25 669 -56 b 536 -228 586 -129 536 -160 b 564 -283 536 -253 551 -275 b 599 -271 578 -292 601 -299 b 611 -239 597 -261 601 -249 b 731 -124 649 -197 690 -171 b 781 61 764 -81 781 -21 b 750 101 781 72 767 101 z "},"ш":{"ha":1179,"x_min":0,"x_max":0,"o":"m 1092 101 b 1031 63 1075 101 1057 63 b 1008 111 1007 63 1004 88 l 1083 647 b 1054 671 1086 661 1076 679 l 1010 657 b 982 632 997 653 983 650 l 956 426 b 700 54 936 271 833 54 b 624 244 596 54 614 179 l 676 647 b 646 671 679 661 668 679 l 603 657 b 574 632 590 653 576 650 l 547 426 b 294 53 528 260 426 53 b 215 244 188 53 207 178 l 271 647 b 247 675 274 664 264 675 b 174 656 238 675 235 675 b 107 610 115 636 107 622 b 131 583 107 600 111 592 b 151 515 158 572 156 556 l 114 242 b 261 -14 92 72 158 -14 b 521 181 363 -14 463 67 b 669 -14 521 44 582 -14 b 913 156 765 -14 856 56 b 992 -10 894 25 933 -10 b 1101 88 1044 -10 1094 39 b 1092 101 1104 94 1100 101 z "},"щ":{"ha":1171,"x_min":0,"x_max":0,"o":"m 1100 101 b 1031 63 1075 101 1057 63 b 1008 111 1007 63 1004 88 l 1083 647 b 1054 671 1086 661 1076 679 l 1010 657 b 982 632 997 653 983 650 l 956 426 b 700 54 936 271 839 54 b 624 244 596 54 614 179 l 676 647 b 646 671 679 661 668 679 l 603 657 b 574 632 590 653 576 650 l 547 426 b 293 53 528 264 426 53 b 215 244 188 53 207 178 l 271 647 b 247 675 274 664 264 675 b 174 656 238 675 235 675 b 107 610 115 636 107 622 b 131 583 107 600 111 592 b 151 515 158 572 156 556 l 114 242 b 261 -14 92 72 158 -14 b 521 181 367 -14 463 67 b 669 -14 521 44 582 -14 b 913 153 764 -14 856 54 b 992 -10 894 24 935 -10 b 1068 22 1021 -10 1049 4 b 978 -93 1063 -25 1021 -56 b 886 -228 936 -129 886 -160 b 914 -283 886 -253 901 -275 b 949 -271 929 -292 953 -299 b 961 -239 947 -261 951 -249 b 1081 -124 1000 -197 1040 -171 b 1131 61 1115 -81 1131 -21 b 1100 101 1131 72 1117 101 z "},"ь":{"ha":689,"x_min":0,"x_max":0,"o":"m 440 501 b 232 397 356 501 282 458 l 268 647 b 244 675 269 664 261 675 b 176 656 233 675 235 675 b 110 610 118 635 110 622 b 154 515 110 583 164 581 l 118 243 b 294 -14 94 75 176 -14 b 615 331 519 -14 615 192 b 440 501 615 428 557 501 z m 326 47 b 217 208 267 47 208 94 b 401 435 229 339 304 435 b 514 314 478 435 511 381 b 326 47 521 192 444 47 z "},"ы":{"ha":950,"x_min":0,"x_max":0,"o":"m 861 101 b 801 63 846 101 828 63 b 771 111 776 63 768 88 l 850 654 b 822 678 853 672 840 682 l 775 668 b 750 643 760 665 753 657 l 676 113 b 763 -10 668 47 689 -10 b 872 88 814 -10 864 39 b 861 101 874 94 869 101 z m 438 501 b 229 397 353 501 279 458 l 264 647 b 242 675 267 664 258 675 b 174 656 231 675 231 675 b 107 610 115 635 107 622 b 151 515 107 583 160 581 l 114 243 b 292 -14 92 75 174 -14 b 613 331 517 -14 613 192 b 438 501 613 428 554 501 z m 324 47 b 214 208 264 47 204 94 b 399 435 226 339 301 435 b 511 314 475 435 508 381 b 324 47 518 192 440 47 z "},"ъ":{"ha":719,"x_min":0,"x_max":0,"o":"m 468 500 b 263 390 386 500 314 453 l 335 650 b 321 676 340 665 333 676 b 129 667 258 678 193 674 b 21 624 43 658 32 657 b -10 532 6 585 -3 557 b 6 490 -14 508 -14 490 b 63 542 24 490 32 503 b 175 617 101 592 135 617 b 200 525 215 617 224 604 b 135 274 165 414 146 332 b 340 -14 106 79 196 -14 b 657 326 560 -14 657 179 b 468 500 657 428 581 500 z m 363 40 b 239 206 283 40 226 93 b 440 435 254 333 335 435 b 556 314 524 435 554 381 b 363 40 557 190 483 40 z "},"є":{"ha":725,"x_min":0,"x_max":0,"o":"m 335 -14 b 638 146 482 -14 599 82 b 601 167 654 178 625 189 b 379 67 544 110 465 67 b 149 307 221 67 147 167 b 222 329 178 324 197 329 b 381 282 278 329 318 282 b 531 374 439 282 525 339 b 517 392 532 383 529 392 b 404 350 496 392 457 350 b 253 394 349 350 304 394 b 151 354 225 394 183 378 l 153 361 b 400 622 174 524 285 622 b 618 518 522 622 557 518 b 672 565 646 518 669 539 b 468 681 682 631 569 681 b 53 307 231 681 81 499 b 335 -14 29 139 122 -14 z "},"э":{"ha":700,"x_min":0,"x_max":0,"o":"m 247 -14 b 643 347 486 -14 617 167 b 363 681 667 526 575 681 b 206 663 265 681 246 663 b 158 681 183 663 172 681 b 118 631 140 681 133 669 b 89 529 108 607 96 567 b 99 500 85 514 85 500 b 131 528 110 500 118 510 b 331 632 168 578 232 632 b 544 376 479 632 547 508 b 472 354 517 360 497 354 b 314 401 417 354 375 401 b 164 310 254 401 168 344 b 178 292 163 300 165 292 b 289 333 199 292 238 333 b 442 289 344 333 390 289 b 543 329 469 289 510 304 b 260 38 518 149 415 38 b 74 111 182 38 108 72 b 36 88 54 132 19 118 b 247 -14 67 25 168 -14 z "},"і":{"ha":368,"x_min":0,"x_max":0,"o":"m 231 799 b 336 883 275 794 331 843 b 286 947 339 910 318 943 b 178 860 239 956 182 904 b 231 799 174 825 200 801 z m 172 -10 b 283 88 225 -10 275 39 b 272 101 285 94 281 101 b 211 63 257 101 238 63 b 190 111 188 63 186 88 l 267 647 b 243 675 269 664 260 675 b 178 656 233 675 231 675 b 108 610 118 633 108 622 b 153 515 108 581 164 583 l 92 113 b 172 -10 82 46 99 -10 z "},"ї":{"ha":368,"x_min":0,"x_max":0,"o":"m 94 800 b 174 871 133 800 174 831 b 114 926 174 903 147 926 b 40 849 74 926 40 888 b 94 800 40 819 64 800 z m 282 800 b 361 871 321 800 361 831 b 301 926 361 903 336 926 b 228 849 261 926 228 888 b 282 800 228 819 251 800 z m 172 -10 b 283 88 225 -10 275 39 b 272 101 285 94 281 101 b 211 63 257 101 238 63 b 190 111 188 63 186 88 l 267 647 b 243 675 269 664 260 675 b 178 656 233 675 231 675 b 108 610 118 633 108 622 b 153 515 108 581 164 583 l 92 113 b 172 -10 82 46 99 -10 z "},"ю":{"ha":1069,"x_min":0,"x_max":0,"o":"m 739 681 b 357 364 557 681 401 539 l 232 364 l 272 647 b 250 675 275 664 267 675 b 176 656 239 675 229 675 b 107 607 117 633 107 624 b 151 515 107 578 160 585 l 81 8 b 108 -15 78 -10 89 -19 l 158 -6 b 182 19 172 -3 179 6 l 225 315 l 347 315 b 344 264 346 299 344 281 b 629 -14 344 107 461 -14 b 1015 411 844 -14 1015 179 b 739 681 1015 551 917 681 z m 653 39 b 451 296 508 39 451 157 b 722 629 451 446 547 629 b 903 386 860 629 903 513 b 653 39 903 217 814 39 z "},"я":{"ha":729,"x_min":0,"x_max":0,"o":"m 542 -14 b 651 88 594 -14 644 39 b 640 101 653 94 649 101 b 581 63 625 101 607 63 b 550 111 556 63 546 88 l 600 500 b 685 644 615 610 679 608 b 625 667 686 658 678 667 l 496 667 b 92 433 233 667 110 563 b 211 261 81 357 125 293 b 106 143 150 235 131 188 b -1 51 64 67 36 54 b -25 36 -12 50 -21 46 b 50 -10 -32 4 25 -10 b 204 132 136 -10 183 82 b 342 240 240 225 256 242 b 454 246 379 240 417 242 b 471 231 465 247 472 240 l 456 113 b 542 -14 449 47 468 -14 z m 369 290 b 189 446 208 290 179 375 b 447 615 204 558 297 615 b 522 593 511 615 525 611 l 485 315 b 369 290 482 300 472 290 z "},"⁄":{"ha":513,"x_min":0,"x_max":0,"o":"m 33 -139 b 64 -118 46 -139 58 -131 l 569 1000 b 551 1028 576 1015 567 1028 l 533 1028 b 504 1007 521 1028 508 1019 l -3 -111 b 15 -139 -10 -126 -1 -139 z "},"¹":{"ha":336,"x_min":0,"x_max":0,"o":"m 261 968 b 247 983 263 982 256 983 b 190 968 235 982 210 975 b 128 936 132 949 129 943 b 156 918 126 928 132 924 b 188 863 190 910 190 890 l 132 471 b 75 381 121 401 75 401 b 111 367 75 371 82 367 l 193 367 b 229 381 222 367 229 371 b 190 471 229 401 181 400 z "},"²":{"ha":583,"x_min":0,"x_max":0,"o":"m 483 814 b 339 986 499 914 442 986 b 133 860 247 986 171 925 b 154 847 121 840 142 832 b 306 931 208 910 260 931 b 413 806 381 931 424 882 b 50 408 396 682 193 521 b 39 385 42 403 39 393 b 61 364 39 375 44 364 b 150 418 90 365 119 418 b 374 369 206 418 276 369 b 472 467 433 369 472 421 b 460 486 472 478 469 486 b 360 433 440 486 438 433 b 168 458 260 433 239 460 b 483 814 363 613 464 703 z "},"³":{"ha":547,"x_min":0,"x_max":0,"o":"m 553 950 b 539 978 568 969 557 978 b 497 944 522 978 514 944 b 275 986 425 944 354 986 b 196 943 228 986 211 972 b 190 857 188 925 165 857 b 232 896 204 857 211 875 b 304 922 250 914 278 922 b 472 901 368 922 403 904 b 264 724 406 833 338 775 b 268 689 242 708 242 690 b 453 538 375 683 468 643 b 292 410 440 451 364 410 b 108 507 203 410 146 446 b 79 494 100 524 74 514 b 290 361 101 425 181 361 b 522 542 442 361 510 457 b 331 738 540 667 435 729 b 553 950 418 800 490 875 z "}," ":{"ha":278,"x_min":0,"x_max":0,"o":""}," ":{"ha":278,"x_min":0,"x_max":0,"o":""},".":{"ha":279,"x_min":0,"x_max":0,"o":"m 99 -14 b 179 67 140 -14 179 18 b 115 132 179 110 149 132 b 33 50 76 132 33 100 b 99 -14 33 7 65 -14 z "},",":{"ha":288,"x_min":0,"x_max":0,"o":"m 38 -181 b 182 43 76 -181 182 -85 b 106 124 182 89 151 124 b 33 46 72 124 33 97 b 85 -61 33 -7 85 -25 b 22 -168 85 -110 22 -147 b 38 -181 22 -176 29 -181 z "},":":{"ha":279,"x_min":0,"x_max":0,"o":"m 160 417 b 240 497 201 417 240 449 b 176 563 240 540 210 563 b 94 481 138 563 94 531 b 160 417 94 438 126 417 z m 99 -14 b 179 67 140 -14 179 18 b 115 132 179 110 149 132 b 33 50 76 132 33 100 b 99 -14 33 7 65 -14 z "},";":{"ha":292,"x_min":0,"x_max":0,"o":"m 160 417 b 240 497 201 417 240 449 b 178 563 240 540 211 563 b 94 481 138 563 94 531 b 160 417 94 438 126 417 z m 40 -181 b 185 43 79 -181 185 -85 b 108 124 185 89 154 124 b 36 46 76 124 36 97 b 88 -61 36 -7 88 -25 b 26 -168 88 -110 26 -147 b 40 -181 26 -176 32 -181 z "},"…":{"ha":801,"x_min":0,"x_max":0,"o":"m 99 -17 b 179 64 140 -17 179 15 b 117 129 179 107 150 129 b 33 47 76 129 33 97 b 99 -17 33 4 65 -17 z m 354 -17 b 435 64 396 -17 435 15 b 372 129 435 107 406 129 b 289 47 332 129 289 97 b 354 -17 289 4 321 -17 z m 619 -17 b 700 64 661 -17 700 15 b 638 129 700 107 671 129 b 554 47 597 129 554 97 b 619 -17 554 4 586 -17 z "},"!":{"ha":281,"x_min":0,"x_max":0,"o":"m 142 342 b 157 358 150 342 153 349 b 293 907 211 647 283 835 b 232 986 300 956 272 986 b 149 907 190 986 156 956 b 131 358 139 835 157 647 b 142 342 129 349 133 342 z m 99 -17 b 179 64 140 -17 179 15 b 115 129 179 107 149 129 b 33 47 76 129 33 97 b 99 -17 33 4 65 -17 z "},"¡":{"ha":297,"x_min":0,"x_max":0,"o":"m 179 536 b 260 617 222 536 260 568 b 197 682 260 660 231 682 b 115 599 157 682 115 649 b 179 536 115 557 146 536 z m 56 -319 b 139 -240 96 -319 132 -289 b 156 308 149 -168 129 19 b 144 325 157 319 154 325 b 131 308 138 325 133 319 b -6 -240 75 19 4 -168 b 56 -319 -12 -289 14 -319 z "},"?":{"ha":574,"x_min":0,"x_max":0,"o":"m 301 374 b 340 482 308 415 317 447 b 600 797 424 604 579 672 b 375 986 617 904 529 986 b 93 800 225 986 106 888 b 139 736 86 756 113 736 b 199 796 175 736 186 758 b 368 938 244 908 306 938 b 475 794 440 938 489 886 b 256 374 451 644 282 558 b 301 374 251 340 296 344 z m 231 -17 b 311 64 272 -17 311 15 b 249 129 311 107 282 129 b 165 47 208 129 165 97 b 231 -17 165 4 197 -17 z "},"¿":{"ha":539,"x_min":0,"x_max":0,"o":"m 324 536 b 404 617 367 536 404 568 b 342 682 404 660 375 682 b 260 600 301 682 260 650 b 324 536 260 557 290 536 z m 183 -319 b 465 -133 333 -319 453 -221 b 419 -69 472 -89 446 -69 b 358 -129 382 -69 372 -92 b 190 -271 314 -242 251 -271 b 83 -128 118 -271 69 -219 b 301 293 107 24 275 108 b 257 293 307 326 263 322 b 218 185 250 251 242 219 b -42 -131 135 64 -21 -6 b 183 -319 -58 -237 29 -319 z "},"·":{"ha":299,"x_min":0,"x_max":0,"o":"m 140 243 b 221 324 182 243 221 275 b 157 389 221 367 190 389 b 75 307 118 389 75 357 b 140 243 75 264 107 243 z "},"•":{"ha":381,"x_min":0,"x_max":0,"o":"m 178 210 b 282 314 232 210 282 250 b 200 399 282 371 244 399 b 93 292 149 399 93 357 b 178 210 93 238 135 210 z "},"*":{"ha":644,"x_min":0,"x_max":0,"o":"m 151 440 b 239 453 172 419 211 424 b 318 601 271 486 286 550 b 400 603 342 639 385 640 b 439 453 414 557 414 486 b 524 440 458 424 494 419 b 540 531 553 464 560 500 b 426 607 519 564 464 579 b 460 689 390 635 410 686 b 610 690 506 692 569 676 b 660 768 646 704 668 738 b 585 803 654 800 621 815 b 456 711 543 790 499 740 b 393 760 413 681 375 713 b 461 899 411 800 456 860 b 411 963 467 935 444 963 b 342 899 378 963 347 935 b 369 760 336 858 363 808 b 293 711 376 713 329 681 b 192 803 264 736 226 792 b 106 768 158 815 122 800 b 135 690 89 738 101 704 b 285 689 169 676 235 692 b 296 607 331 686 338 635 b 157 531 258 583 186 561 b 151 440 131 500 126 464 z "},"#":{"ha":957,"x_min":0,"x_max":0,"o":"m 153 0 b 188 24 169 0 182 8 l 292 296 l 524 296 l 421 31 b 442 0 414 13 422 0 l 444 0 b 479 24 461 0 474 8 l 583 296 l 808 296 b 843 324 826 296 839 306 l 844 328 b 825 356 850 346 843 356 l 608 356 l 692 574 l 914 574 b 951 601 932 574 944 583 l 951 606 b 931 633 956 624 949 633 l 715 633 l 835 942 b 814 972 842 960 833 972 l 811 972 b 776 949 794 972 782 964 l 656 633 l 424 633 l 543 942 b 522 972 550 960 542 972 l 519 972 b 485 949 503 972 490 964 l 364 633 l 151 633 b 117 606 133 633 121 624 l 115 601 b 135 574 110 583 117 574 l 339 574 l 257 356 l 46 356 b 10 328 28 356 15 346 l 8 324 b 29 296 4 306 11 296 l 232 296 l 129 31 b 150 0 122 13 131 0 z m 631 574 l 549 356 l 317 356 l 400 574 z "},"/":{"ha":536,"x_min":0,"x_max":0,"o":"m 33 -139 b 64 -118 46 -139 58 -131 l 569 1000 b 551 1028 576 1015 567 1028 l 533 1028 b 504 1007 521 1028 508 1019 l -3 -111 b 15 -139 -10 -126 -1 -139 z "},"\\":{"ha":510,"x_min":0,"x_max":0,"o":"m 375 -139 b 400 -111 390 -139 401 -126 l 208 1007 b 185 1028 207 1019 197 1028 l 167 1028 b 142 1000 151 1028 140 1015 l 335 -118 b 357 -139 335 -131 344 -139 z "},"-":{"ha":489,"x_min":0,"x_max":0,"o":"m 400 381 b 422 396 410 381 419 388 l 426 407 b 414 429 429 421 425 429 l 107 429 b 85 414 97 429 88 422 l 82 401 b 93 381 78 389 82 381 z "},"­":{"ha":489,"x_min":0,"x_max":0,"o":"m 400 381 b 422 396 410 381 419 388 l 426 407 b 414 429 429 421 425 429 l 107 429 b 85 414 97 429 88 422 l 82 401 b 93 381 78 389 82 381 z "},"–":{"ha":699,"x_min":0,"x_max":0,"o":"m 608 381 b 631 396 618 381 628 388 l 635 407 b 622 429 638 421 633 429 l 107 429 b 85 414 97 429 88 422 l 82 401 b 93 381 78 389 82 381 z "},"—":{"ha":976,"x_min":0,"x_max":0,"o":"m 886 381 b 908 396 896 381 906 388 l 913 407 b 900 429 915 421 911 429 l 107 429 b 85 414 97 429 88 422 l 82 401 b 93 381 78 389 82 381 z "},"_":{"ha":586,"x_min":0,"x_max":0,"o":"m 481 -94 b 511 -68 497 -94 508 -83 b 489 -42 514 -51 506 -42 l -8 -42 b -39 -68 -25 -42 -36 -51 b -17 -94 -42 -83 -33 -94 z "},"(":{"ha":518,"x_min":0,"x_max":0,"o":"m 369 -167 b 415 -162 382 -174 406 -174 b 406 -124 425 -150 418 -132 b 200 460 238 26 165 215 b 563 1033 232 692 350 892 b 579 1072 576 1043 586 1061 b 540 1072 572 1083 553 1079 b 78 464 322 957 119 754 b 369 -167 33 144 189 -64 z "},")":{"ha":519,"x_min":0,"x_max":0,"o":"m 7 -167 b 476 464 218 -64 432 144 b 186 1072 517 754 369 957 b 147 1072 174 1079 157 1083 b 151 1033 135 1061 139 1043 b 354 460 324 892 385 692 b -18 -124 319 215 193 26 b -37 -162 -32 -132 -44 -150 b 7 -167 -29 -174 -6 -174 z "},"{":{"ha":400,"x_min":0,"x_max":0,"o":"m 249 -176 b 288 -146 269 -178 283 -168 b 260 -118 289 -129 272 -121 b 210 42 197 -101 201 -21 l 244 285 b 139 465 258 381 214 436 b 296 647 222 494 282 550 l 326 863 b 422 1026 335 924 365 1007 b 460 1057 439 1032 457 1040 b 426 1081 463 1074 446 1082 b 214 838 307 1072 233 974 l 179 592 b 92 494 174 557 144 507 b 64 468 76 492 65 483 b 81 438 61 451 65 444 b 144 340 125 424 149 374 l 106 67 b 249 -176 86 -69 132 -169 z "},"}":{"ha":400,"x_min":0,"x_max":0,"o":"m 8 -176 b 221 67 126 -169 201 -69 l 260 340 b 349 438 264 374 301 424 b 376 468 367 444 374 451 b 356 494 378 483 368 492 b 294 592 306 507 289 557 l 329 838 b 186 1081 349 974 303 1072 b 144 1057 167 1082 147 1074 b 175 1026 142 1040 157 1032 b 225 863 225 1007 233 924 l 194 647 b 299 465 181 550 224 494 b 143 285 215 436 157 381 l 108 42 b 15 -118 100 -21 82 -101 b -21 -146 0 -121 -19 -129 b 8 -176 -25 -168 -12 -178 z "},"[":{"ha":385,"x_min":0,"x_max":0,"o":"m 246 -178 b 274 -151 260 -178 271 -168 b 253 -126 276 -136 268 -126 l 156 -126 b 139 -107 144 -126 138 -118 l 296 1011 b 317 1031 297 1022 306 1031 l 415 1031 b 443 1056 431 1031 442 1040 b 424 1082 446 1072 438 1082 l 221 1082 b 193 1058 206 1082 196 1074 l 24 -154 b 43 -178 21 -169 28 -178 z "},"]":{"ha":383,"x_min":0,"x_max":0,"o":"m 196 -178 b 224 -154 211 -178 221 -169 l 394 1058 b 374 1082 396 1074 389 1082 l 172 1082 b 143 1056 157 1082 146 1072 b 164 1031 140 1040 149 1031 l 263 1031 b 278 1011 272 1031 279 1022 l 121 -107 b 100 -126 119 -118 111 -126 l 1 -126 b -26 -151 -14 -126 -24 -136 b -7 -178 -29 -168 -21 -178 z "},"‚":{"ha":283,"x_min":0,"x_max":0,"o":"m 38 -181 b 182 43 76 -181 182 -85 b 106 124 182 89 151 124 b 33 46 72 124 33 97 b 85 -61 33 -7 85 -25 b 22 -168 85 -110 22 -147 b 38 -181 22 -176 29 -181 z "}}}
